<?xml version="1.0" encoding="utf-8"?>
<!-- Generator: Adobe Illustrator 24.1.0, SVG Export Plug-In . SVG Version: 6.00 Build 0)  -->
<svg version="1.1" id="Layer_1" xmlns="http://www.w3.org/2000/svg" xmlns:xlink="http://www.w3.org/1999/xlink" x="0px" y="0px"
	 viewBox="0 0 720 504" style="enable-background:new 0 0 720 504;" xml:space="preserve">
<style type="text/css">
	.st0{fill:none;stroke:#43467F;stroke-width:0.25;stroke-miterlimit:10;}
	.st1{fill:none;stroke:#43467F;stroke-width:0.5;stroke-miterlimit:10;}
	.st2{fill:none;stroke:#43467F;stroke-width:0.75;stroke-miterlimit:10;}
	.st3{fill:none;stroke:#43467F;stroke-miterlimit:10;}
	.st4{fill:none;stroke:#43467F;stroke-width:2;stroke-miterlimit:10;}
	.st5{fill:#43467F;}
	.st6{fill:#E23C28;}
	.st7{fill:#CE7C2A;}
	.st8{fill:#1A2329;}
	.st9{fill:#252F32;}
	.st10{fill:#313A3C;}
	.st11{fill:#3C4645;}
	.st12{fill:#47514E;}
	.st13{fill:#535D58;}
	.st14{fill:#5E6861;}
	.st15{fill:#69746A;}
	.st16{fill:#757F74;}
	.st17{fill:#808B7D;}
	.st18{fill:#929AEA;}
	.st19{fill:#DFCBB3;}
	.st20{fill:#EDB3B2;}
</style>
<desc>Created with getavataaars.com</desc>
<path class="st0" d="M517.2,637c-8.7,0-17.5-0.4-26.2-1.2c-3.7-0.3-13.1-1.2-25.5-3.6c-8.4,0-16.8-0.4-25.2-1.2
	c-51.7-4.9-101.9-24.9-141.6-56.5c-21.1-14.4-40.6-32.5-56.7-52.8l-94.9-9c-88-8.3-163.4-74-183.9-160
	c-14.9-36.8-20.7-77.6-16.9-118.1l5.3-56.5c0.5-5.6,1.2-11.3,2.1-16.8c0.2-5.7,0.5-11.4,1.1-17l5.3-56.5
	c6.4-68.1,36.2-125.9,86-167.3c43.7-36.3,99.6-56.3,157.5-56.3c7.7,0,15.5,0.4,23.1,1.1l15.4,1.5c8.2,0.8,16.5,1.9,24.7,3.4
	c7.7,0,15.4,0.4,22.8,1.1l5.1,0.5C317-126.1,374.1-116.7,426-75c22.1,15,42.1,34,58.1,55.5L598-8.7c95.2,9,175.7,87,187.9,181.8
	c8.5,29.2,11.5,60.5,8.6,90.7l-0.7,7.9c-0.2,1.7-0.3,3.5-0.5,5.2c0.4,11.6,0,23.3-1.1,34.8c-0.9,9.6-3.3,34.7-14.1,65.3
	c-0.1,6.9-0.6,13.8-1.2,20.7C763.8,536.3,654.6,637,517.2,637z"/>
<path class="st0" d="M517.2,618.4c-8.1,0-16.3-0.4-24.5-1.2c-3.7-0.3-13.2-1.2-25.5-3.7c-0.4,0-0.8,0-1.2,0c-8,0-16-0.4-23.9-1.1
	c-48.4-4.6-95.3-23.4-132.3-53c-22.1-14.9-42-34-58-55.6l-103-9.7C68,486.5-0.8,426.1-19,347.1c-14.2-34.4-19.8-72.6-16.2-110.6
	l5.3-56.5c0.5-5.6,1.3-11.3,2.2-16.8c0.1-5.7,0.5-11.4,1-17l5.3-56.5C-15.3,26.5,12.1-27,58-65.1c40.4-33.5,92.1-52,145.6-52
	c7.1,0,14.3,0.3,21.4,1l15.4,1.5c8.3,0.8,16.6,2,24.7,3.5c0.5,0,1,0,1.6,0c7.2,0,14.3,0.3,21.2,1l5.1,0.5
	c20.7,2,73.8,10.7,121.9,49.7c23,15.5,43.3,35.5,59.1,58.2L596.3,9.8c87.5,8.3,160.8,79.9,171.3,167.1c8.2,27.3,11.1,56.7,8.4,85.2
	l-0.7,7.9c-0.2,2.1-0.4,4.1-0.7,6.2c0.4,11.2,0.1,22.6-0.9,33.8c-0.9,9.4-3.2,34-14.1,63.6c-0.1,7.4-0.5,14.9-1.2,22.3
	C746.2,524.8,644.8,618.4,517.2,618.4z"/>
<path class="st0" d="M517.2,599.8c-7.5,0-15.2-0.4-22.7-1.1c-3.7-0.3-13.2-1.2-25.5-3.8c-1,0-2,0-3,0c-7.4,0-14.9-0.4-22.2-1
	c-45.1-4.3-88.8-21.8-123-49.4c-23-15.4-43.1-35.4-58.8-58.3l-111.4-10.5c-73.7-7-135.8-62-151.8-134.2
	c-13.5-32-18.8-67.6-15.4-103.2l5.3-56.5c0.5-5.6,1.3-11.3,2.2-16.8c0.1-5.6,0.4-11.3,1-17l5.3-56.5C2.7,33.3,27.9-15.9,69.9-50.8
	c37-30.7,84.5-47.7,133.7-47.7c6.5,0,13.1,0.3,19.6,0.9l15.4,1.5c8.3,0.8,16.6,2,24.8,3.6c1.1,0,2.2,0,3.3,0
	c6.6,0,13.1,0.3,19.5,0.9l5.1,0.5c19.1,1.8,68.3,9.9,112.5,46.1c23.9,15.9,44.3,36.8,59.5,60.9l131.1,12.4
	c79.8,7.5,146,72.9,154.8,152.3c7.9,25.5,10.7,53,8.2,79.6l-0.7,7.9c-0.2,2.4-0.5,4.8-0.8,7.2c0.5,10.9,0.2,21.9-0.8,32.8
	c-0.9,9.3-3.1,33.3-14.2,62c0,8-0.3,16-1.1,24C728.6,513.3,634.9,599.8,517.2,599.8z"/>
<path class="st0" d="M517.2,581.1c-6.9,0-14-0.3-21-1c-3.7-0.4-13.2-1.2-25.5-3.9c-1.6,0-3.2,0.1-4.8,0.1c-6.8,0-13.7-0.3-20.4-1
	c-41.8-4-82.2-20.2-113.7-45.9c-23.8-15.8-44.1-36.8-59.1-61l-120.4-11.4c-66.5-6.3-122-56.1-135.7-121.4
	C3.8,306.1-1.2,273.1,1.9,239.9l5.3-56.6c0.5-5.7,1.3-11.3,2.3-16.8c0.1-5.6,0.4-11.3,0.9-17l5.3-56.5c5-53,27.8-97.8,66-129.5
	c33.7-28,77-43.4,121.8-43.4c6,0,12,0.3,17.9,0.8l15.4,1.5c8.3,0.8,16.7,2,24.8,3.7c1.7,0,3.3-0.1,4.9-0.1c6,0,12,0.3,17.7,0.8
	l5.1,0.5c17.6,1.7,62.8,9.1,103.2,42.6c24.7,16.3,45.1,38.1,59.4,63.6l140.5,13.3c72.1,6.8,131.1,65.8,138.2,137.6
	c7.5,23.7,10.3,49.2,7.9,74l-0.7,7.9c-0.3,2.7-0.6,5.5-1,8.2c0.6,10.5,0.4,21.2-0.7,31.8c-0.9,9.1-3.1,32.5-14.3,60.3
	c0.2,8.5-0.2,17.1-1,25.7C710.9,501.8,625.1,581.1,517.2,581.1z"/>
<path class="st0" d="M517.2,562.5c-6.3,0-12.8-0.3-19.2-0.9c-3.7-0.4-13.2-1.2-25.4-4c-2.2,0.1-4.4,0.1-6.6,0.1
	c-6.2,0-12.5-0.3-18.7-0.9c-38.5-3.6-75.6-18.7-104.4-42.4c-24.6-16.2-44.8-38-59-63.6l-129.8-12.3
	c-59.4-5.6-108.2-50.1-119.6-108.5c-12.1-27.1-17-57.6-14-88.4l5.3-56.6c0.5-5.7,1.3-11.3,2.3-16.8c0-5.6,0.3-11.3,0.8-17l5.3-56.6
	c4.5-48,25.1-88.5,59.4-116.9c30.4-25.2,69.4-39.1,109.9-39.1c5.4,0,10.8,0.3,16.1,0.8l15.4,1.5c8.4,0.8,16.8,2.1,24.9,3.9
	c2.2-0.1,4.4-0.1,6.6-0.1c5.4,0,10.8,0.2,16,0.7l5.1,0.5c16.1,1.5,57.2,8.4,93.9,39c25.5,16.6,45.6,39.3,58.7,66.2L591,65.4
	c64.4,6.1,116.3,58.7,121.6,122.8c7.3,21.8,9.9,45.5,7.8,68.5l-0.7,7.9c-0.3,3.1-0.7,6.1-1.1,9.1c0.6,10.2,0.5,20.6-0.5,30.9
	c-0.8,8.9-3,31.8-14.5,58.5c0.3,9,0.1,18.2-0.8,27.4C693.3,490.2,615.3,562.5,517.2,562.5z"/>
<path class="st0" d="M499.8,543.1c-3.7-0.4-13.3-1.3-25.4-4.2c-8.4,0.4-16.9,0.2-25.3-0.6c-35.3-3.3-69-17.1-95.1-38.9
	c-25.3-16.4-45.2-39.1-58.1-66.2l-140-13.2c-52.2-4.9-94.4-44.1-103.5-95.6c-11.5-24.7-16.1-52.7-13.4-81l5.3-56.6
	c0.5-5.7,1.4-11.3,2.4-16.8c0-5.6,0.2-11.3,0.8-17l5.3-56.6C62.2-2.6,144.9-48.8,218-41.9l15.4,1.5c8.5,0.8,16.9,2.2,25,4.1
	c9.4-0.5,17.3-0.1,22.5,0.4l5.1,0.5c14.6,1.4,51.7,7.6,84.5,35.5c26.2,16.7,45.8,40.3,57.3,68.7L589.2,84
	c56.7,5.4,101.4,51.6,105,108c7,20,9.6,41.7,7.6,63l-0.7,7.9c-0.3,3.4-0.8,6.8-1.3,10.1c0.7,9.9,0.6,19.9-0.3,29.9
	c-0.8,8.7-2.9,31.1-14.8,56.8c0.6,9.6,0.4,19.4-0.5,29.2C675,485.9,595.7,552.1,499.8,543.1z"/>
<path class="st1" d="M501.5,525c-3.8-0.4-13.3-1.3-25.4-4.4c-8.4,0.5-16.9,0.4-25.3-0.4c-32.1-3-62.6-15.6-86.1-35.4
	c-25.6-16.4-45.4-40.4-56.6-68.6l-150.6-14.2c-44.6-4.2-81-38.9-87.7-83C59,296.6,54.6,271.2,57,245.2l5.3-56.6
	c0.5-5.7,1.4-11.3,2.5-16.8c-0.1-5.6,0.1-11.3,0.7-17l5.3-56.6C79.2,10.8,152-29.9,216.3-23.9l15.4,1.5c8.6,0.8,17,2.2,25.1,4.3
	c9.3-0.7,17.2-0.3,22.4,0.2l5.1,0.5c13.1,1.2,46.3,6.8,75.4,32.1c26.5,16.6,45.6,41.5,54.9,71.1L587.5,102
	c49.3,4.7,86.8,44.6,88.7,93.6c6.8,18.2,9.4,38,7.5,57.7l-0.7,7.9c-0.3,3.7-0.8,7.4-1.5,11c0.9,9.5,0.8,19.3-0.1,29
	c-0.8,8.6-2.9,30.5-15.1,55c0.9,10.1,0.9,20.5-0.1,30.9C657.9,473.9,587.2,533.1,501.5,525z"/>
<path class="st2" d="M503.2,506.9c-3.8-0.4-13.3-1.3-25.3-4.7c-8.4,0.7-16.9,0.7-25.4-0.1c-28.9-2.7-56.2-14.1-77-32
	c-26.1-16.3-45.2-41.6-54.1-70.9l-162.2-15.3c-37.3-3.5-67.5-33.4-71.8-70.3c-10.3-20-14.6-42.9-12.3-66.7l5.3-56.6
	c0.5-5.7,1.4-11.3,2.7-16.8c-0.2-5.6,0-11.3,0.5-17L89,100C96.1,24.2,159-11,214.5-5.8L230-4.3c8.7,0.8,17.1,2.3,25.2,4.5
	c9.2-0.9,17.1-0.5,22.3,0l5.1,0.5c11.6,1.1,41,6.1,66.3,28.6c26.9,16.4,45.1,42.5,51.4,73.3l185.5,17.5
	c41.2,3.9,72.2,38.2,72.3,79.1c6.6,16.4,9.3,34.4,7.6,52.4l-0.7,7.9c-0.4,4-1,8-1.8,11.9c1,9.2,1,18.7,0.2,28.1
	c-0.8,8.5-2.8,29.9-15.7,53.2c1.4,10.6,1.5,21.6,0.5,32.8C640.9,461.8,578.6,514.1,503.2,506.9z"/>
<path class="st3" d="M504.9,488.9c-3.9-0.4-13.4-1.3-25.2-5c-8.4,1-16.9,1-25.4,0.2c-25.7-2.4-49.8-12.6-67.9-28.6
	c-26.6-16.2-44.7-42.7-50.4-73.1l-175-16.5c-30.4-2.9-53.9-27.7-55.8-57.6c-9.9-17.5-14.1-38-12-59.6l5.3-56.6
	c0.5-5.7,1.5-11.4,2.9-16.8c-0.3-5.6-0.2-11.3,0.3-17l5.3-56.6c6.1-64,59-93.8,105.8-89.4l15.4,1.5c8.8,0.8,17.3,2.5,25.4,4.9
	c9.1-1.2,16.9-0.9,22.1-0.4l5.1,0.5c10.1,1,35.6,5.3,57.2,25.2c27.4,16.1,43.9,43.4,46.3,75.4c22.5,2.1,75.4,7.1,199.8,18.9
	c33,3.1,57.5,31.8,55.8,64.6c6.6,14.6,9.3,30.8,7.7,47.1l-0.7,7.9c-0.4,4.3-1.1,8.6-2.1,12.7c1.2,8.9,1.3,18,0.5,27.3
	c-0.8,8.2-2.8,29.1-16.4,50.9c0,0.2-0.1,0.5-0.1,0.8c1.9,11,2.3,22.5,1.2,34.3C623.8,449.8,570,495,504.9,488.9z"/>
<path class="st4" d="M506.6,470.8c-3.9-0.4-13.5-1.3-25.2-5.5c-8.3,1.3-16.9,1.5-25.5,0.7c-22.6-2.1-43.4-11.1-58.8-25.2
	c-27.1-15.8-43.5-43.7-44.9-75.1l-189.6-17.9c-23-2.2-40.2-21.9-39.4-44.7c-9.6-14.9-13.8-33.4-12-52.7l5.3-56.6
	c0.5-5.8,1.6-11.4,3.1-16.7c-0.5-5.5-0.5-11.2,0.1-17l5.3-56.6c3.7-39,35.1-77.9,86-73.1l15.4,1.5c9,0.9,17.6,2.7,25.6,5.4
	c8.9-1.6,16.6-1.4,21.9-0.9l5.1,0.5c8.7,0.8,30.3,4.6,48,21.8c27.4,15.2,41.9,43.8,39,77.2c0.4,0,216.3,20.4,216.3,20.4
	c23.9,2.3,41.5,23.5,39.3,47.5c0,0-0.2,2.2-0.2,2.5c6.8,12.7,9.6,27.1,8.2,42l-0.7,7.9c-0.4,4.6-1.3,9.1-2.5,13.5
	c1.5,8.6,1.8,17.5,0.9,26.5c-0.7,7.6-2.5,26.9-15.8,46.2c-0.3,2.5-0.6,5-1.1,7.4c2.1,10.3,2.7,21.1,1.6,32.4
	C606.7,437.8,561.4,476,506.6,470.8z"/>
<path class="st5" d="M508.3,452.8c-4-0.4-13.6-1.3-25-6.2c-8.3,1.8-16.9,2.2-25.7,1.4c-19.5-1.8-37-9.6-49.6-21.9
	c-26-14.3-40.2-41.7-37.3-72.3c0.1-1.5,0.3-3,0.6-4.6l-206.9-19.6c-14-1.3-24.2-13.7-22.9-27.7l0.1-1.6c0.1-0.8,0.2-1.6,0.3-2.4
	c-9.8-12.2-14.4-28.2-12.7-46l5.3-56.6c0.6-5.9,1.7-11.5,3.5-16.7c-0.8-5.5-0.9-11.2-0.3-17.1l5.3-56.6c3.9-41,36.3-59.5,66.3-56.7
	l15.4,1.5c9.4,0.9,18.1,3,26,6.2c9.1-2.3,17.1-2.1,21.5-1.7l5.1,0.5c7.3,0.7,24.9,3.9,38.7,18.5c22.6,11.5,34.4,34.1,31.8,61.5
	l-1.7,17.6l15.5,1.5c1.2-0.1,2.5-0.1,3.7,0.1l215.2,20.3c14,1.3,24.2,13.7,22.9,27.7l-0.1,1.6c-0.2,2-0.6,4-1.3,5.9
	c7.2,10.6,10.6,23.5,9.3,37.1l-0.7,7.9c-0.5,4.9-1.5,9.6-3.1,14.2c1.9,8.3,2.4,16.9,1.5,25.8c-0.7,7.5-2.3,24.8-15.4,41.3
	c-0.1,1.2-0.1,2.4-0.3,3.5c-0.3,3.7-0.9,7.2-1.7,10.6c2.4,9.5,3.1,19.7,2.1,30.5C589.6,425.8,552.8,457,508.3,452.8z"/>
<path class="st6" d="M575.5,337.5c0.3-3,0.3-5.8,0.1-8.6c1.2-1.3,2.4-2.6,3.5-3.9c10.1-12.4,11.4-25.8,12-32.3
	c0.9-9,0-17.4-2.6-25.5c2.3-4.4,3.8-9.4,4.2-14.5l0.7-7.9c1.2-12.4-3.4-27.3-18.3-36.6l2.3,0.2c4,0.4,7.5-2.6,7.9-6.6l0.1-1.6
	c0.4-4-2.6-7.5-6.6-7.9L363.8,172c-0.7-0.1-1.3,0-1.9,0.1l-33-3.1c-0.2,0-0.4,0-0.6,0c-0.6-0.1-1.2-0.1-1.8-0.2l3.4-35.7
	c2.3-24.6-10.7-38.9-24.9-45c-9.9-12.4-24.5-14.8-29.3-15.2l-5.1-0.5c-3.3-0.3-11.9-0.6-21.1,3.1c-7.6-4.1-16.4-6.6-26.4-7.6
	l-15.4-1.5c-20.4-1.9-43.6,9.9-46.5,40.4l-5.3,56.6c-0.6,6.1-0.2,11.9,1,17.1c-2.2,4.9-3.6,10.5-4.2,16.6l-5.3,56.6
	c-2,21.1,7.3,34.6,19,41.9c-3.4,0.3-6.3,3-6.6,6.5l-0.1,1.6c-0.4,4,2.6,7.5,6.6,7.9L392.6,333c0.1,0,0.2,0,0.3,0
	c0.2,1.6,0.3,3.1,0.6,4.7c-2.6,5.6-4.2,11.6-4.8,17.8c-2.3,24.4,9.2,45.4,30.2,55.8c9.8,10.5,23.9,17,40.4,18.6
	c9,0.8,17.7,0,25.8-2.6c11,6.1,21,7,24.8,7.4c34.8,3.3,62.4-20.3,65.8-56.1c1-10.5,0-20.1-2.9-28.7C574.2,346.1,575,342,575.5,337.5
	z"/>
<path class="st7" d="M565,313.5c6.6-8.2,7.5-17.2,8-22.5c0.9-9.5-0.7-17.9-5.4-26.1c3.9-3.4,6.4-8.2,7-13.9l0.7-7.9
	c0.5-5.1-0.4-15.4-13.3-21.4c3.2-0.9,5.7-3.6,6-7.1c0.4-4.5-2.9-8.5-7.4-8.9l-253.7-24c0.1-0.5,0.1-1,0.2-1.5l4.6-48.7
	c2-20.8-11.6-26.5-18.5-28C288.2,93,277,91.2,274.1,91l-5.1-0.5c-2.7-0.3-12.9-0.6-20,6.9c-5.9-5.9-14.6-10.2-27.5-11.4L206,84.5
	c-4-0.4-24.4-1-26.7,24l-5.3,56.6c-0.7,7.6,0.7,13.2,3,17.3c-3.1,3.6-5.5,8.8-6.2,16.4l-5.3,56.6c-1.2,12.6,3.3,19.6,8.6,23.6
	c-3.3,0.8-5.9,3.6-6.2,7.2c-0.4,4.5,2.9,8.5,7.4,8.9l236.4,22.4c-0.4,1.5-0.6,3-0.8,4.5c-0.6,6.5,0.1,12.5,2.2,18
	c-3,4.4-5.5,10.1-6.2,17.2c-1.7,18.5,7.1,32.8,23.2,39.3c6.6,8.5,17.2,14.1,31,15.4c9.8,0.9,18.8-1,26.2-5
	c10.1,8.4,20.7,9.5,24.5,9.8c24.7,2.3,43.6-14,46-39.7c1.1-11.2-0.9-20.3-4.7-27.2c2.1-3.3,3.8-7.8,4.3-13.9
	c0.5-5.7-0.2-10.3-1.8-14.1C558.9,319.7,562.1,317.1,565,313.5z"/>
<g>
	<g>
		<path class="st8" d="M226.1,130.1c-1.1,11.6-2.2,24.3-3.3,36.4c-0.3,2.7-0.3,5.2,1.6,5.3c7.7,0.7,8.8-5.4,10.4-21.8
			c1.4-14.4,1.6-22.2-6.1-22.9C226.7,126.9,226.3,127.9,226.1,130.1z M231.9,113.4c22.6,2.1,24.3,16.8,22.3,38.9
			c-2,21.1-5.5,36.3-29.2,34.1l-15.4-1.5c-6.2-0.6-5.8-4.7-5.4-8.8l5.3-56.6c0.4-4.1,0.8-8.2,6.9-7.6L231.9,113.4z"/>
		<path class="st8" d="M256.2,184.1l0.6-6.7c0.2-2.2,1.5-2.9,3.5-2.7c1.2,0.1,2.4,0.3,3.3,0.4c3.8,0.4,4.5-1.2,4.9-5.3
			c0.1-1.5,0.2-3.6,0.5-6.3l3.6-37.9c0.4-4.1,0.8-8.2,6.9-7.6l5.1,0.5c6.2,0.6,5.8,4.7,5.4,8.8l-4.6,48.7c-1.2,13.1-8,15.9-18.1,15
			C259.4,190.2,255.7,189.3,256.2,184.1z"/>
		<path class="st8" d="M240.9,211.2c2.8-5.1,5.2-5.3,8.9-5l5.6,0.5c6.2,0.6,5.8,4.7,5.4,8.8l-5.3,56.6c-0.4,4.1-0.8,8.2-6.9,7.6
			l-5.1-0.5c-6.2-0.6-5.8-4.7-5.4-8.8l2.7-28.3c0.1-0.6-0.1-1-0.4-1.1s-0.7,0.4-1,0.9c-8.7,13.8-9.2,17.3-12.6,17
			c-3.4-0.3-3.4-3.8-9.2-19c-0.3-0.6-0.6-1.1-0.8-1.1c-0.3,0-0.6,0.4-0.6,1l-2.7,28.3c-0.4,4.1-0.8,8.2-6.9,7.6l-5.1-0.5
			c-6.2-0.6-5.8-4.7-5.4-8.8l5.3-56.6c0.4-4.1,0.8-8.2,6.9-7.6l5.4,0.5c3.8,0.4,6.1,1.1,7.9,6.6l6,18.9c0.6,1.9,1.1,3,1.8,3.1
			c0.7,0.1,1.3-0.9,2.3-2.7L240.9,211.2z"/>
		<path class="st8" d="M284.6,250.4c-0.2,1.6,0.6,1.7,3.9,2c3.2,0.3,4,0.4,4.2-1.2c0-0.4,0.1-0.9,0.1-1.7
			c-0.3-10.2,0.5-22.7-1.8-22.9c-2.2-0.2-4,12.1-6,22.1C284.6,249.5,284.6,250,284.6,250.4z M311.9,280.6c-0.4,4.7-3.7,4.8-9.5,4.3
			l-5.4-0.5c-6.4-0.6-1.7-15.7-5.8-16.1l-8.2-0.8c-4.1-0.4-3.2,15.3-9.4,14.7l-4.8-0.5c-5.4-0.5-8.5-1.2-8-5.9
			c0.6-6.2,3.6-11.4,16.1-58.6c1.3-5.1,3.7-8,7.8-7.6l15.8,1.5c4.1,0.4,5.9,3.7,6.4,8.9C309.7,262.7,312.5,274.4,311.9,280.6z"/>
		<path class="st8" d="M345,239.7c0.4,0,5.1-13.2,8-19.6l0.3-0.5c1.5-3.3,1.5-3.5,10.1-2.7l1.3,0.1c4.7,0.4,6.7,0.6,6.4,3.7
			c-0.3,3.6-14.5,27.5-14.8,30.1c-0.3,2.7,10.1,32.7,9.7,36.8c-0.3,2.9-4.5,3-8.3,2.6c-2.2-0.2-4.1-0.6-5.1-0.7
			c-6.3-0.6-5.2-1.1-6.7-6.4l-3.7-20.3c-0.1-0.2-0.3-0.4-0.5-0.5s-0.4,0.2-0.6,0.4l-6.5,19.3c-2.4,5.5-2.8,5.5-9.5,4.9l-3.1-0.3
			c-3.4-0.3-7-1.1-6.7-3.9c0.3-3.1,14.7-31.8,15-34.5c0.3-2.7-8-28.7-7.6-32.3c0.3-2.8,2.7-3,6.8-2.6c2.2,0.2,4.9,0.6,8.1,0.9
			c2.4,0.2,2.8,1.6,3.3,3.3c0,0.1,0.2,0.3,0.2,0.4s0.2,0.3,0.2,0.4c0,0.1,0.1,0.2,0.1,0.3c1.3,6.8,3.1,20,3.2,20.2
			C344.6,239.6,344.8,239.7,345,239.7z"/>
		<path class="st8" d="M388.7,284.7c-0.4,4.1-0.8,8.2-6.9,7.6l-5.1-0.5c-6.2-0.6-5.8-4.7-5.4-8.8l5.3-56.6c0.4-4.1,0.8-8.2,6.9-7.6
			l5.1,0.5c6.2,0.6,5.8,4.7,5.4,8.8L388.7,284.7z"/>
		<path class="st8" d="M447.6,298.6l-5.1-0.5c-6.2-0.6-5.8-4.7-5.4-8.8l2.7-28.3c0.1-0.6-0.1-1-0.4-1.1c-0.3,0-0.7,0.4-1,0.9
			c-8.7,13.8-9.2,17.3-12.6,17c-3.4-0.3-3.4-3.8-9.2-19c-0.3-0.6-0.6-1.1-0.8-1.1c-0.3,0-0.6,0.4-0.6,1l-2.7,28.3
			c-0.4,4.1-0.8,8.2-6.9,7.6l-5.1-0.5c-6.2-0.6-5.8-4.7-5.4-8.8l5.3-56.6c0.4-4.1,0.8-8.2,6.9-7.6l5.4,0.5c3.8,0.4,6.1,1.1,7.9,6.6
			l6,18.9c0.6,1.9,1.1,3,1.8,3.1s1.3-0.9,2.3-2.7l9.4-17.5c2.8-5.1,5.2-5.3,8.9-5l5.6,0.5c6.2,0.6,5.8,4.7,5.4,8.8l-5.3,56.6
			c0,0-0.3,2.8-0.4,3.7C453.8,299.7,447.6,298.6,447.6,298.6z"/>
		<path class="st8" d="M507.2,283.2c-1.2,12.7-3.5,21.3-24.1,19.3c-21.7-2.1-22.4-10.9-21.1-24.3c3.1-32.5,4.2-43.2,4.2-43.2
			c0.4-4.1,0.8-8.2,6.9-7.6l5.1,0.5c6.2,0.6,5.8,4.7,5.4,8.8l-4.3,45.2c-0.3,3.1-0.5,5.7,5.1,6.2c4.6,0.4,4.9-2.1,5.2-5.2l4.3-45.3
			c0.4-4,0.8-8.1,6.9-7.5l5.1,0.5c6.2,0.6,5.8,4.7,5.4,8.7L507.2,283.2z"/>
		<path class="st8" d="M539.6,233.1c8.5,0.8,14.1,2.9,13.9,5.8l-0.7,7.9c-0.1,1.1-0.7,3-4.2,2.7l-0.8-0.1c-1.6-0.2-5.2-1.6-8.2-1.9
			c-2.5-0.2-4.5,0.4-4.8,3.7c-0.3,3.2,0.5,4.9,4.2,8.6c11.3,11.2,13.1,18.7,12.3,27c-0.4,4.7-1,9-4,12.8c-3.9,4.8-9.4,6.3-11.7,6.7
			c-2.8,0.5-6.8,0.5-10,0.2c-7.6-0.7-14.9-2.9-14.5-7l0.7-7.9c0.1-1.2,1.3-2.4,4-2.1c2.7,0.3,4.8,2,10.7,2.6c2.9,0.3,7-1.6,7.3-4.8
			c0.2-2.4,0.3-4.1-5.4-10.9c-8.7-10.3-12.8-15-12-23.4C518.2,232.6,531.4,232.3,539.6,233.1z"/>
		<path class="st8" d="M469.1,337.8c0.5-5.3-1.4-7.6-4.4-7.9c-3.8-0.4-6,1.3-6.6,6.8c-0.3,3,0.1,7.3,5.1,9.4
			C464.4,346.3,468.6,343.9,469.1,337.8z M482.7,360.9c1.8,3.2,2.3,7.5,1.9,11.9c-1.2,13-12.4,19.8-25.7,18.5
			c-13.4-1.3-23.2-7.9-21.8-23c1.1-11.2,11-15.8,11.1-16.8c0.1-0.9-8.4-5.3-7.2-18.4c0.4-4.7,3-8.9,6.3-11.9c5-4.4,12.6-4.5,18.5-4
			c11.9,1.1,21,7.4,19.8,19.6c-1.4,14.8-10.2,14.9-10.3,15.5C475.4,353.3,480.3,356.6,482.7,360.9z M455.4,368.9
			c-0.2,2.3,0.6,7.1,4.9,7.5c3.1,0.3,5.6-1.8,6-6.3c0.5-5.6-2.1-8.8-5.8-10.8C459.2,359.2,455.9,363.5,455.4,368.9z"/>
		<path class="st8" d="M500.2,329.3c0.4-4.1,0.8-8.2,6.9-7.6l23.8,2.2c4.3,0.4,5,2.7,4.6,7.7c-0.5,5.3-1.3,7.1-4.7,6.8
			c-2.1-0.2-4.7-0.7-5.8-0.8l-6.3-0.6c-4.8-0.5-4.9,0.8-5.3,4.6c-0.5,5.6-0.6,6.4,2.2,6.6c1.7,0.2,2.5-0.2,6.9,0.2
			c9.8,0.9,14.7,10.7,13.4,24.2c-1.3,13.8-10,24.9-26.3,23.3c-5.8-0.5-11.5-2.1-16.8-7.7c-2.4-2.5-4.3-4.7-4.2-6.3
			c0.1-1.1,0.7-2,1.6-2.7l3.3-2.6c3.6-2.9,4.4-3.3,5.3-3.3c0.8,0.1,1.3,0.5,2,1.4c3,4.1,5,5.2,8,5.5c5.8,0.5,8-4.3,8.4-9
			c0.4-4.3,0.7-10.3-7.9-11.1c-3.2-0.3-6,0.7-8.3,0.5c-2.1-0.2-3.6-1.5-3.4-3.5l2.5-26.6L500.2,329.3z"/>
	</g>
	<g>
		<path class="st9" d="M224.3,128.8c-1.1,11.6-2.2,24.3-3.3,36.4c-0.3,2.7-0.3,5.2,1.6,5.3c7.7,0.7,8.8-5.4,10.4-21.8
			c1.4-14.4,1.6-22.2-6.1-22.9C224.9,125.6,224.5,126.6,224.3,128.8z M230.2,112.1c22.6,2.1,24.3,16.8,22.3,38.9
			c-2,21.1-5.5,36.3-29.2,34.1l-15.4-1.5c-6.2-0.6-5.8-4.7-5.4-8.8l5.3-56.6c0.4-4.1,0.8-8.2,6.9-7.6L230.2,112.1z"/>
		<path class="st9" d="M254.4,182.8l0.6-6.7c0.2-2.2,1.5-2.9,3.5-2.7c1.2,0.1,2.4,0.3,3.3,0.4c3.8,0.4,4.5-1.2,4.9-5.3
			c0.1-1.5,0.2-3.6,0.5-6.3l3.6-37.9c0.4-4.1,0.8-8.2,6.9-7.6l5.1,0.5c6.2,0.6,5.8,4.7,5.4,8.8l-4.6,48.7c-1.2,13.1-8,15.9-18.1,15
			C257.6,188.9,253.9,188,254.4,182.8z"/>
		<path class="st9" d="M239.1,209.9c2.8-5.1,5.2-5.3,8.9-5l5.6,0.5c6.2,0.6,5.8,4.7,5.4,8.8l-5.3,56.6c-0.4,4.1-0.8,8.2-6.9,7.6
			l-5.1-0.5c-6.2-0.6-5.8-4.7-5.4-8.8l2.7-28.3c0.1-0.6-0.1-1-0.4-1.1c-0.3,0-0.7,0.4-1,0.9c-8.7,13.8-9.2,17.3-12.6,17
			c-3.4-0.3-3.4-3.8-9.2-19c-0.3-0.6-0.6-1.1-0.8-1.1c-0.3,0-0.6,0.4-0.6,1l-2.7,28.3c-0.4,4.1-0.8,8.2-6.9,7.6l-5.1-0.5
			c-6.2-0.6-5.8-4.7-5.4-8.8l5.3-56.6c0.4-4.1,0.8-8.2,6.9-7.6l5.4,0.5c3.8,0.4,6.1,1.1,7.9,6.6l6,18.9c0.6,1.9,1.1,3,1.8,3.1
			c0.7,0.1,1.3-0.9,2.3-2.7L239.1,209.9z"/>
		<path class="st9" d="M282.8,249.1c-0.2,1.6,0.6,1.7,3.9,2c3.2,0.3,4,0.4,4.2-1.2c0-0.4,0.1-0.9,0.1-1.7
			c-0.3-10.2,0.5-22.7-1.8-22.9c-2.2-0.2-4,12.1-6,22.1C282.9,248.2,282.8,248.7,282.8,249.1z M310.1,279.3
			c-0.4,4.7-3.7,4.8-9.5,4.3l-5.4-0.5c-6.4-0.6-1.7-15.7-5.8-16.1l-8.2-0.8c-4.1-0.4-3.2,15.3-9.4,14.7l-4.8-0.5
			c-5.4-0.5-8.5-1.2-8-5.9c0.6-6.2,3.6-11.4,16.1-58.6c1.3-5.1,3.7-8,7.8-7.6l15.8,1.5c4.1,0.4,5.9,3.7,6.4,8.9
			C308,261.4,310.7,273.1,310.1,279.3z"/>
		<path class="st9" d="M343.2,238.4c0.4,0,5.1-13.2,8-19.6l0.3-0.5c1.5-3.3,1.5-3.5,10.1-2.7l1.3,0.1c4.7,0.4,6.7,0.6,6.4,3.7
			c-0.3,3.6-14.5,27.5-14.8,30.1c-0.3,2.7,10.1,32.7,9.7,36.8c-0.3,2.9-4.5,3-8.3,2.6c-2.2-0.2-4.1-0.6-5.1-0.7
			c-6.3-0.6-5.2-1.1-6.7-6.4l-3.7-20.3c-0.1-0.2-0.3-0.4-0.5-0.5c-0.2,0-0.4,0.2-0.6,0.4l-6.5,19.3c-2.4,5.5-2.8,5.5-9.5,4.9
			l-3.1-0.3c-3.4-0.3-7-1.1-6.7-3.9c0.3-3.1,14.7-31.8,15-34.5c0.3-2.7-8-28.7-7.6-32.3c0.3-2.8,2.7-3,6.8-2.6
			c2.2,0.2,4.9,0.6,8.1,0.9c2.4,0.2,2.8,1.6,3.3,3.3c0,0.1,0.2,0.3,0.2,0.4c0,0.1,0.2,0.3,0.2,0.4c0,0.1,0.1,0.2,0.1,0.3
			c1.3,6.8,3.1,20,3.2,20.2C342.8,238.2,343,238.4,343.2,238.4z"/>
		<path class="st9" d="M386.9,283.4c-0.4,4.1-0.8,8.2-6.9,7.6l-5.1-0.5c-6.2-0.6-5.8-4.7-5.4-8.8l5.3-56.6c0.4-4.1,0.8-8.2,6.9-7.6
			l5.1,0.5c6.2,0.6,5.8,4.7,5.4,8.8L386.9,283.4z"/>
		<path class="st9" d="M398.5,227.4c0.4-4.1,0.8-8.2,6.9-7.6l5.4,0.5c3.8,0.4,6.1,1.1,7.9,6.6l6,18.9c0.6,1.9,1.1,3,1.8,3.1
			c0.7,0.1,1.3-0.9,2.3-2.7l9.4-17.5c2.8-5.1,5.2-5.3,8.9-5l5.6,0.5c6.2,0.6,5.8,4.7,5.4,8.8l-5.3,56.2c0,0-0.3,2.9-0.3,3.7
			c-0.5,4.9-5.9,4.3-6.4,4.3c-0.1,0-1.9-0.2-2-0.2l-3.2-0.3c-0.5,0-1.1-0.1-1.4-0.2c-4.8-1-4.5-4.8-4.1-8.6l2.7-28.3
			c0.1-0.6-0.1-1-0.4-1.1c-0.3,0-0.7,0.4-1,0.9c-8.7,13.8-9.2,17.3-12.6,17c-3.4-0.3-3.4-3.8-9.2-19c-0.3-0.6-0.6-1.1-0.8-1.1
			c-0.3,0-0.6,0.4-0.6,1l-2.7,28.3c-0.4,4.1-0.8,8.2-6.9,7.6l-5.1-0.5c-6.2-0.6-5.8-4.7-5.4-8.8L398.5,227.4z"/>
		<path class="st9" d="M505.4,281.8c-1.2,12.7-3.5,21.3-24.1,19.3c-21.7-2.1-22.4-10.9-21.1-24.3c3.1-32.5,4.2-43.2,4.2-43.2
			c0.4-4.1,0.8-8.2,6.9-7.6l5.1,0.5c6.2,0.6,5.8,4.7,5.4,8.8l-4.3,45.2c-0.3,3.1-0.5,5.7,5.1,6.2c4.6,0.4,4.9-2.1,5.2-5.2l4.3-45.3
			c0.4-4,0.8-8.1,6.9-7.5l5.1,0.5c6.2,0.6,5.8,4.7,5.4,8.7L505.4,281.8z"/>
		<path class="st9" d="M537.8,231.8c8.5,0.8,14.1,2.9,13.9,5.8l-0.7,7.9c-0.1,1.1-0.7,3-4.2,2.7l-0.8-0.1c-1.6-0.2-5.2-1.6-8.2-1.9
			c-2.5-0.2-4.5,0.4-4.8,3.7c-0.3,3.2,0.5,4.9,4.2,8.6c11.3,11.2,13.1,18.7,12.3,27c-0.4,4.7-1,9-4,12.8c-3.9,4.8-9.4,6.3-11.7,6.7
			c-2.8,0.5-6.8,0.5-10,0.2c-7.6-0.7-14.9-2.9-14.5-7l0.7-7.9c0.1-1.2,1.3-2.4,4-2.1c2.7,0.3,4.8,2,10.7,2.6c2.9,0.3,7-1.6,7.3-4.8
			c0.2-2.4,0.3-4.1-5.4-10.9c-8.7-10.3-12.8-15-12-23.4C516.4,231.3,529.6,231,537.8,231.8z"/>
		<path class="st9" d="M467.4,336.5c0.5-5.3-1.4-7.6-4.4-7.9c-3.8-0.4-6,1.3-6.6,6.8c-0.3,3,0.1,7.3,5.1,9.4
			C462.6,345,466.8,342.6,467.4,336.5z M480.9,359.6c1.8,3.2,2.3,7.5,1.9,11.9c-1.2,13-12.4,19.8-25.7,18.5
			c-13.4-1.3-23.2-7.9-21.8-23c1.1-11.2,11-15.8,11.1-16.8c0.1-0.9-8.4-5.3-7.2-18.4c0.4-4.7,3-8.9,6.3-11.9c5-4.4,12.6-4.5,18.5-4
			c11.9,1.1,21,7.4,19.8,19.6c-1.4,14.8-10.2,14.9-10.3,15.5C473.6,352,478.5,355.3,480.9,359.6z M453.6,367.6
			c-0.2,2.3,0.6,7.1,4.9,7.5c3.1,0.3,5.6-1.8,6-6.3c0.5-5.6-2.1-8.8-5.8-10.8C457.5,357.9,454.1,362.2,453.6,367.6z"/>
		<path class="st9" d="M498.5,328c0.4-4.1,0.8-8.2,6.9-7.6l23.8,2.2c4.3,0.4,5,2.7,4.6,7.7c-0.5,5.3-1.3,7.1-4.7,6.8
			c-2.1-0.2-4.7-0.7-5.8-0.8l-6.3-0.6c-4.8-0.5-4.9,0.8-5.3,4.6c-0.5,5.6-0.6,6.4,2.2,6.6c1.7,0.2,2.5-0.2,6.9,0.2
			c9.8,0.9,14.7,10.7,13.4,24.2c-1.3,13.8-10,24.9-26.3,23.3c-5.8-0.5-11.5-2.1-16.8-7.7c-2.4-2.5-4.3-4.7-4.2-6.3
			c0.1-1.1,0.7-2,1.6-2.7l3.3-2.6c3.6-2.9,4.4-3.5,5.3-3.3c0.8,0.1,1.3,0.5,2,1.4c3,4.1,5,5.2,8,5.5c5.8,0.5,8-4.3,8.4-9
			c0.4-4.3,0.7-10.3-7.9-11.1c-3.2-0.3-6,0.7-8.3,0.5c-2.1-0.2-3.6-1.5-3.4-3.5l2.5-26.6L498.5,328z"/>
	</g>
	<g>
		<path class="st10" d="M222.5,127.5c-1.1,11.6-2.2,24.3-3.3,36.4c-0.3,2.7-0.3,5.2,1.6,5.3c7.7,0.7,8.8-5.4,10.4-21.8
			c1.4-14.4,1.6-22.2-6.1-22.9C223.2,124.3,222.7,125.3,222.5,127.5z M228.4,110.8c22.6,2.1,24.3,16.8,22.3,38.9
			c-2,21.1-5.5,36.3-29.2,34.1l-15.4-1.5c-6.2-0.6-5.8-4.7-5.4-8.8L206,117c0.4-4.1,0.8-8.2,6.9-7.6L228.4,110.8z"/>
		<path class="st10" d="M252.6,181.4l0.6-6.7c0.2-2.2,1.5-2.9,3.5-2.7c1.2,0.1,2.4,0.3,3.3,0.4c3.8,0.4,4.5-1.2,4.9-5.3
			c0.1-1.5,0.2-3.6,0.5-6.3l3.6-37.9c0.4-4.1,0.8-8.2,6.9-7.6l5.1,0.5c6.2,0.6,5.8,4.7,5.4,8.8l-4.6,48.7c-1.2,13.1-8,15.9-18.1,15
			C255.9,187.6,252.1,186.7,252.6,181.4z"/>
		<path class="st10" d="M237.3,208.6c2.8-5.1,5.2-5.3,8.9-5l5.6,0.5c6.2,0.6,5.8,4.7,5.4,8.8l-5.3,56.6c-0.4,4.1-0.8,8.2-6.9,7.6
			l-5.1-0.5c-6.2-0.6-5.8-4.7-5.4-8.8l2.7-28.3c0.1-0.6-0.1-1-0.4-1.1c-0.3,0-0.7,0.4-1,0.9c-8.7,13.8-9.2,17.3-12.6,17
			c-3.4-0.3-3.4-3.8-9.2-19c-0.3-0.6-0.6-1.1-0.8-1.1c-0.3,0-0.6,0.4-0.6,1l-2.7,28.3c-0.4,4.1-0.8,8.2-6.9,7.6l-5.1-0.5
			c-6.2-0.6-5.8-4.7-5.4-8.8l5.3-56.6c0.4-4.1,0.8-8.2,6.9-7.6l5.4,0.5c3.8,0.4,6.1,1.1,7.9,6.6l6,18.9c0.6,1.9,1.1,3,1.8,3.1
			c0.7,0.1,1.3-0.9,2.3-2.7L237.3,208.6z"/>
		<path class="st10" d="M281,247.8c-0.2,1.6,0.6,1.7,3.9,2c3.2,0.3,4,0.4,4.2-1.2c0-0.4,0.1-0.9,0.1-1.7
			c-0.3-10.2,0.5-22.7-1.8-22.9c-2.2-0.2-4,12.1-6,22.1C281.1,246.8,281,247.3,281,247.8z M308.3,277.9c-0.4,4.7-3.7,4.8-9.5,4.3
			l-5.4-0.5c-6.4-0.6-1.7-15.7-5.8-16.1l-8.2-0.8c-4.1-0.4-3.2,15.3-9.4,14.7l-4.8-0.5c-5.4-0.5-8.5-1.2-8-5.9
			c0.6-6.2,3.6-11.4,16.1-58.6c1.3-5.1,3.7-8,7.8-7.6l15.8,1.5c4.1,0.4,5.9,3.7,6.4,8.9C306.2,260.1,308.9,271.8,308.3,277.9z"/>
		<path class="st10" d="M341.4,237.1c0.4,0,5.1-13.2,8-19.6l0.3-0.5c1.5-3.3,1.5-3.5,10.1-2.7l1.3,0.1c4.7,0.4,6.7,0.6,6.4,3.7
			c-0.3,3.6-14.5,27.5-14.8,30.1c-0.3,2.7,10.1,32.7,9.7,36.8c-0.3,2.9-4.5,3-8.3,2.6c-2.2-0.2-4.1-0.6-5.1-0.7
			c-6.3-0.6-5.2-1.1-6.7-6.4l-3.7-20.3c-0.1-0.2-0.3-0.4-0.5-0.5c-0.2,0-0.4,0.2-0.6,0.4l-6.5,19.3c-2.4,5.5-2.8,5.5-9.5,4.9
			l-3.1-0.3c-3.4-0.3-7-1.1-6.7-3.9c0.3-3.1,14.7-31.8,15-34.5c0.3-2.7-8-28.7-7.6-32.3c0.3-2.8,2.7-3,6.8-2.6
			c2.2,0.2,4.9,0.6,8.1,0.9c2.4,0.2,2.8,1.6,3.3,3.3c0,0.1,0.2,0.3,0.2,0.4c0,0.1,0.2,0.3,0.2,0.4c0,0.1,0.1,0.2,0.1,0.3
			c1.3,6.8,3.1,20,3.2,20.2C341.1,236.9,341.2,237.1,341.4,237.1z"/>
		<path class="st10" d="M385.1,282.1c-0.4,4.1-0.8,8.2-6.9,7.6l-5.1-0.5c-6.2-0.6-5.8-4.7-5.4-8.8l5.3-56.6c0.4-4.1,0.8-8.2,6.9-7.6
			l5.1,0.5c6.2,0.6,5.8,4.7,5.4,8.8L385.1,282.1z"/>
		<path class="st10" d="M396.7,226.1c0.4-4.1,0.8-8.2,6.9-7.6l5.4,0.5c3.8,0.4,6.1,1.1,7.9,6.6l6,18.9c0.6,1.9,1.1,3,1.8,3.1
			c0.7,0.1,1.3-0.9,2.3-2.7l9.4-17.5c2.8-5.1,5.2-5.3,8.9-5l5.6,0.5c6.2,0.6,5.8,4.7,5.4,8.8l-5.3,55.8c0,0-0.3,2.9-0.3,3.7
			c-0.4,4.7-5.3,4.6-6.2,4.7c-0.1,0-1.9-0.1-2.1-0.1l-3.2-0.3c-0.4,0-1.1-0.1-1.5-0.2c-5-1-4.6-4.8-4.3-8.6l2.7-28.3
			c0.1-0.6-0.1-1-0.4-1.1c-0.3,0-0.7,0.4-1,0.9c-8.7,13.8-9.2,17.3-12.6,17c-3.4-0.3-3.4-3.8-9.2-19c-0.3-0.6-0.6-1.1-0.8-1.1
			c-0.3,0-0.6,0.4-0.6,1l-2.7,28.3c-0.4,4.1-0.8,8.2-6.9,7.6l-5.1-0.5c-6.2-0.6-5.8-4.7-5.4-8.8L396.7,226.1z"/>
		<path class="st10" d="M503.6,280.5c-1.2,12.7-3.5,21.3-24.1,19.3c-21.7-2.1-22.4-10.9-21.1-24.3c3.1-32.5,4.2-43.2,4.2-43.2
			c0.4-4.1,0.8-8.2,6.9-7.6l5.1,0.5c6.2,0.6,5.8,4.7,5.4,8.8l-4.3,45.2c-0.3,3.1-0.5,5.7,5.1,6.2c4.6,0.4,4.9-2.1,5.2-5.2l4.3-45.3
			c0.4-4,0.8-8.1,6.9-7.5l5.1,0.5c6.2,0.6,5.8,4.7,5.4,8.7L503.6,280.5z"/>
		<path class="st10" d="M536,230.5c8.5,0.8,14.1,2.9,13.9,5.8l-0.7,7.9c-0.1,1.1-0.7,3-4.2,2.7l-0.8-0.1c-1.6-0.2-5.2-1.6-8.2-1.9
			c-2.5-0.2-4.5,0.4-4.8,3.7c-0.3,3.2,0.5,4.9,4.2,8.6c11.3,11.2,13.1,18.7,12.3,27c-0.4,4.7-1,9-4,12.8c-3.9,4.8-9.4,6.3-11.7,6.7
			c-2.8,0.5-6.8,0.5-10,0.2c-7.6-0.7-14.9-2.9-14.5-7l0.7-7.9c0.1-1.2,1.3-2.4,4-2.1c2.7,0.3,4.8,2,10.7,2.6c2.9,0.3,7-1.6,7.3-4.8
			c0.2-2.4,0.3-4.1-5.4-10.9c-8.7-10.3-12.8-15-12-23.4C514.6,230,527.8,229.7,536,230.5z"/>
		<path class="st10" d="M465.6,335.2c0.5-5.3-1.4-7.6-4.4-7.9c-3.8-0.4-6,1.3-6.6,6.8c-0.3,3,0.1,7.3,5.1,9.4
			C460.8,343.7,465,341.2,465.6,335.2z M479.2,358.2c1.8,3.2,2.3,7.5,1.9,11.9c-1.2,13-12.4,19.8-25.7,18.5
			c-13.4-1.3-23.2-7.9-21.8-23c1.1-11.2,11-15.8,11.1-16.8c0.1-0.9-8.4-5.3-7.2-18.4c0.4-4.7,3-8.9,6.3-11.9c5-4.4,12.6-4.5,18.5-4
			c11.9,1.1,21,7.4,19.8,19.6c-1.4,14.8-10.2,14.9-10.3,15.5C471.8,350.7,476.8,354,479.2,358.2z M451.8,366.2
			c-0.2,2.3,0.6,7.1,4.9,7.5c3.1,0.3,5.6-1.8,6-6.3c0.5-5.6-2.1-8.8-5.8-10.8C455.7,356.5,452.4,360.9,451.8,366.2z"/>
		<path class="st10" d="M496.7,326.7c0.4-4.1,0.8-8.2,6.9-7.6l23.8,2.2c4.3,0.4,5,2.7,4.6,7.7c-0.5,5.3-1.3,7.1-4.7,6.8
			c-2.1-0.2-4.7-0.7-5.8-0.8l-6.3-0.6c-4.8-0.5-4.9,0.8-5.3,4.6c-0.5,5.6-0.6,6.4,2.2,6.6c1.7,0.2,2.5-0.2,6.9,0.2
			c9.8,0.9,14.7,10.7,13.4,24.2c-1.3,13.8-10,24.9-26.3,23.3c-5.8-0.5-11.5-2.1-16.8-7.7c-2.4-2.5-4.3-4.7-4.2-6.3
			c0.1-1.1,0.7-2,1.6-2.7l3.3-2.6c3.6-2.9,4.4-3.5,5.3-3.3c0.8,0.1,1.3,0.5,2,1.4c3,4.1,5,5.2,8,5.5c5.8,0.5,8-4.3,8.4-9
			c0.4-4.3,0.7-10.3-7.9-11.1c-3.2-0.3-6,0.7-8.3,0.5c-2.1-0.2-3.6-1.5-3.4-3.5l2.5-26.6L496.7,326.7z"/>
	</g>
	<g>
		<path class="st11" d="M220.8,126.1c-1.1,11.6-2.2,24.3-3.3,36.4c-0.3,2.7-0.3,5.2,1.6,5.3c7.7,0.7,8.8-5.4,10.4-21.8
			c1.4-14.4,1.6-22.2-6.1-22.9C221.4,123,221,124,220.8,126.1z M226.6,109.5c22.6,2.1,24.3,16.8,22.3,38.9
			c-2,21.1-5.5,36.3-29.2,34.1l-15.4-1.5c-6.2-0.6-5.8-4.7-5.4-8.8l5.3-56.6c0.4-4.1,0.8-8.2,6.9-7.6L226.6,109.5z"/>
		<path class="st11" d="M250.8,180.1l0.6-6.7c0.2-2.2,1.5-2.9,3.5-2.7c1.2,0.1,2.4,0.3,3.3,0.4c3.8,0.4,4.5-1.2,4.9-5.3
			c0.1-1.5,0.2-3.6,0.5-6.3l3.6-37.9c0.4-4.1,0.8-8.2,6.9-7.6l5.1,0.5c6.2,0.6,5.8,4.7,5.4,8.8L280,172c-1.2,13.1-8,15.9-18.1,15
			C254.1,186.2,250.3,185.4,250.8,180.1z"/>
		<path class="st11" d="M235.5,207.2c2.8-5.1,5.2-5.3,8.9-5l5.6,0.5c6.2,0.6,5.8,4.7,5.4,8.8l-5.3,56.6c-0.4,4.1-0.8,8.2-6.9,7.6
			l-5.1-0.5c-6.2-0.6-5.8-4.7-5.4-8.8l2.7-28.3c0.1-0.6-0.1-1-0.4-1.1c-0.3,0-0.7,0.4-1,0.9c-8.7,13.8-9.2,17.3-12.6,17
			c-3.4-0.3-3.4-3.8-9.2-19c-0.3-0.6-0.6-1.1-0.8-1.1c-0.3,0-0.6,0.4-0.6,1l-2.7,28.3c-0.4,4.1-0.8,8.2-6.9,7.6l-5.1-0.5
			c-6.2-0.6-5.8-4.7-5.4-8.8l5.3-56.6c0.4-4.1,0.8-8.2,6.9-7.6l5.4,0.5c3.8,0.4,6.1,1.1,7.9,6.6l6,18.9c0.6,1.9,1.1,3,1.8,3.1
			c0.7,0.1,1.3-0.9,2.3-2.7L235.5,207.2z"/>
		<path class="st11" d="M279.2,246.4c-0.2,1.6,0.6,1.7,3.9,2c3.2,0.3,4,0.4,4.2-1.2c0-0.4,0.1-0.9,0.1-1.7
			c-0.3-10.2,0.5-22.7-1.8-22.9c-2.2-0.2-4,12.1-6,22.1C279.3,245.5,279.2,246,279.2,246.4z M306.5,276.6c-0.4,4.7-3.7,4.8-9.5,4.3
			l-5.4-0.5c-6.4-0.6-1.7-15.7-5.8-16.1l-8.2-0.8c-4.1-0.4-3.2,15.3-9.4,14.7l-4.8-0.5c-5.4-0.5-8.5-1.2-8-5.9
			c0.6-6.2,3.6-11.4,16.1-58.6c1.3-5.1,3.7-8,7.8-7.6l15.8,1.5c4.1,0.4,5.9,3.7,6.4,8.9C304.4,258.8,307.1,270.5,306.5,276.6z"/>
		<path class="st11" d="M339.7,235.8c0.4,0,5.1-13.2,8-19.6l0.3-0.5c1.5-3.3,1.5-3.5,10.1-2.7l1.3,0.1c4.7,0.4,6.7,0.6,6.4,3.7
			c-0.3,3.6-14.5,27.5-14.8,30.1c-0.3,2.7,10.1,32.7,9.7,36.8c-0.3,2.9-4.5,3-8.3,2.6c-2.2-0.2-4.1-0.6-5.1-0.7
			c-6.3-0.6-5.2-1.1-6.7-6.4l-3.7-20.3c-0.1-0.2-0.3-0.4-0.5-0.5s-0.4,0.2-0.6,0.4l-6.5,19.3c-2.4,5.5-2.8,5.5-9.5,4.9l-3.1-0.3
			c-3.4-0.3-7-1.1-6.7-3.9c0.3-3.1,14.7-31.8,15-34.5c0.3-2.7-8-28.7-7.6-32.3c0.3-2.8,2.7-3,6.8-2.6c2.2,0.2,4.9,0.6,8.1,0.9
			c2.4,0.2,2.8,1.6,3.3,3.3c0,0.1,0.2,0.3,0.2,0.4c0,0.1,0.2,0.3,0.2,0.4c0,0.1,0.1,0.2,0.1,0.3c1.3,6.8,3.1,20,3.2,20.2
			C339.3,235.6,339.4,235.7,339.7,235.8z"/>
		<path class="st11" d="M383.3,280.8c-0.4,4.1-0.8,8.2-6.9,7.6l-5.1-0.5c-6.2-0.6-5.8-4.7-5.4-8.8l5.3-56.6c0.4-4.1,0.8-8.2,6.9-7.6
			l5.1,0.5c6.2,0.6,5.8,4.7,5.4,8.8L383.3,280.8z"/>
		<path class="st11" d="M394.9,224.8c0.4-4.1,0.8-8.2,6.9-7.6l5.4,0.5c3.8,0.4,6.1,1.1,7.9,6.6l6,18.9c0.6,1.9,1.1,3,1.8,3.1
			c0.7,0.1,1.3-0.9,2.3-2.7l9.4-17.5c2.8-5.1,5.2-5.3,8.9-5l5.6,0.5c6.2,0.6,5.8,4.7,5.4,8.8l-5.2,55.4c0,0-0.3,3-0.3,3.6
			c-0.4,4.5-4.6,5-6,5.2c-0.2,0-1.8-0.1-2.1-0.1l-3.3-0.3c-0.3,0-1.2-0.1-1.5-0.2c-5.2-0.9-4.8-4.8-4.4-8.7l2.7-28.3
			c0.1-0.6-0.1-1-0.4-1.1c-0.3,0-0.7,0.4-1,0.9c-8.7,13.8-9.2,17.3-12.6,17c-3.4-0.3-3.4-3.8-9.2-19c-0.3-0.6-0.6-1.1-0.8-1.1
			c-0.3,0-0.6,0.4-0.6,1l-2.7,28.3c-0.4,4.1-0.8,8.2-6.9,7.6l-5.1-0.5c-6.2-0.6-5.8-4.7-5.4-8.8L394.9,224.8z"/>
		<path class="st11" d="M501.8,279.2c-1.2,12.7-3.5,21.3-24.1,19.3c-21.7-2.1-22.4-10.9-21.1-24.3c3.1-32.5,4.2-43.2,4.2-43.2
			c0.4-4.1,0.8-8.2,6.9-7.6l5.1,0.5c6.2,0.6,5.8,4.7,5.4,8.8l-4.3,45.2c-0.3,3.1-0.5,5.7,5.1,6.2c4.6,0.4,4.9-2.1,5.2-5.2l4.3-45.3
			c0.4-4,0.8-8.1,6.9-7.5l5.1,0.5c6.2,0.6,5.8,4.7,5.4,8.7L501.8,279.2z"/>
		<path class="st11" d="M534.3,229.2c8.5,0.8,14.1,2.9,13.9,5.8l-0.7,7.9c-0.1,1.1-0.7,3-4.2,2.7l-0.8-0.1c-1.6-0.2-5.2-1.6-8.2-1.9
			c-2.5-0.2-4.5,0.4-4.8,3.7c-0.3,3.2,0.5,4.9,4.2,8.6c11.3,11.2,13.1,18.7,12.3,27c-0.4,4.7-1,9-4,12.8c-3.9,4.8-9.4,6.3-11.7,6.7
			c-2.8,0.5-6.8,0.5-10,0.2c-7.6-0.7-14.9-2.9-14.5-7l0.7-7.9c0.1-1.2,1.3-2.4,4-2.1c2.7,0.3,4.8,2,10.7,2.6c2.9,0.3,7-1.6,7.3-4.8
			c0.2-2.4,0.3-4.1-5.4-10.9c-8.7-10.3-12.8-15-12-23.4C512.8,228.7,526,228.4,534.3,229.2z"/>
		<path class="st11" d="M463.8,333.9c0.5-5.3-1.4-7.6-4.4-7.9c-3.8-0.4-6,1.3-6.6,6.8c-0.3,3,0.1,7.3,5.1,9.4
			C459,342.3,463.2,339.9,463.8,333.9z M477.4,356.9c1.8,3.2,2.3,7.5,1.9,11.9c-1.2,13-12.4,19.8-25.7,18.5
			c-13.4-1.3-23.2-7.9-21.8-23c1.1-11.2,11-15.8,11.1-16.8c0.1-0.9-8.4-5.3-7.2-18.4c0.4-4.7,3-8.9,6.3-11.9c5-4.4,12.6-4.5,18.5-4
			c11.9,1.1,21,7.4,19.8,19.6c-1.4,14.8-10.2,14.9-10.3,15.5C470,349.4,475,352.7,477.4,356.9z M450.1,364.9
			c-0.2,2.3,0.6,7.1,4.9,7.5c3.1,0.3,5.6-1.8,6-6.3c0.5-5.6-2.1-8.8-5.8-10.8C453.9,355.2,450.6,359.6,450.1,364.9z"/>
		<path class="st11" d="M494.9,325.4c0.4-4.1,0.8-8.2,6.9-7.6l23.8,2.2c4.3,0.4,5,2.7,4.6,7.7c-0.5,5.3-1.3,7.1-4.7,6.8
			c-2.1-0.2-4.7-0.7-5.8-0.8l-6.3-0.6c-4.8-0.5-4.9,0.8-5.3,4.6c-0.5,5.6-0.6,6.4,2.2,6.6c1.7,0.2,2.5-0.2,6.9,0.2
			c9.8,0.9,14.7,10.7,13.4,24.2c-1.3,13.8-10,24.9-26.3,23.3c-5.8-0.5-11.5-2.1-16.8-7.7c-2.4-2.5-4.3-4.7-4.2-6.3
			c0.1-1.1,0.7-2,1.6-2.7l3.3-2.6c3.6-2.9,4.4-3.5,5.3-3.3c0.8,0.1,1.3,0.5,2,1.4c3,4.1,5,5.2,8,5.5c5.8,0.5,8-4.3,8.4-9
			c0.4-4.3,0.7-10.3-7.9-11.1c-3.2-0.3-6,0.7-8.3,0.5c-2.1-0.2-3.6-1.5-3.4-3.5l2.5-26.6L494.9,325.4z"/>
	</g>
	<g>
		<path class="st12" d="M219,124.8c-1.1,11.6-2.2,24.3-3.3,36.4c-0.3,2.7-0.3,5.2,1.6,5.3c7.7,0.7,8.8-5.4,10.4-21.8
			c1.4-14.4,1.6-22.2-6.1-22.9C219.6,121.7,219.2,122.7,219,124.8z M224.8,108.2c22.6,2.1,24.3,16.8,22.3,38.9
			c-2,21.1-5.5,36.3-29.2,34.1l-15.4-1.5c-6.2-0.6-5.8-4.7-5.4-8.8l5.3-56.6c0.4-4.1,0.8-8.2,6.9-7.6L224.8,108.2z"/>
		<path class="st12" d="M249,178.8l0.6-6.7c0.2-2.2,1.5-2.9,3.5-2.7c1.2,0.1,2.4,0.3,3.3,0.4c3.8,0.4,4.5-1.2,4.9-5.3
			c0.1-1.5,0.2-3.6,0.5-6.3l3.6-37.9c0.4-4.1,0.8-8.2,6.9-7.6l5.1,0.5c6.2,0.6,5.8,4.7,5.4,8.8l-4.6,48.7c-1.2,13.1-8,15.9-18.1,15
			C252.3,184.9,248.5,184.1,249,178.8z"/>
		<path class="st12" d="M233.7,205.9c2.8-5.1,5.2-5.3,8.9-5l5.6,0.5c6.2,0.6,5.8,4.7,5.4,8.8l-5.3,56.6c-0.4,4.1-0.8,8.2-6.9,7.6
			l-5.1-0.5c-6.2-0.6-5.8-4.7-5.4-8.8l2.7-28.3c0.1-0.6-0.1-1-0.4-1.1c-0.3,0-0.7,0.4-1,0.9c-8.7,13.8-9.2,17.3-12.6,17
			c-3.4-0.3-3.4-3.8-9.2-19c-0.3-0.6-0.6-1.1-0.8-1.1c-0.3,0-0.6,0.4-0.6,1l-2.7,28.3c-0.4,4.1-0.8,8.2-6.9,7.6l-5.1-0.5
			c-6.2-0.6-5.8-4.7-5.4-8.8l5.3-56.6c0.4-4.1,0.8-8.2,6.9-7.6l5.4,0.5c3.8,0.4,6.1,1.1,7.9,6.6l6,18.9c0.6,1.9,1.1,3,1.8,3.1
			c0.7,0.1,1.3-0.9,2.3-2.7L233.7,205.9z"/>
		<path class="st12" d="M277.4,245.1c-0.2,1.6,0.6,1.7,3.9,2c3.2,0.3,4,0.4,4.2-1.2c0-0.4,0.1-0.9,0.1-1.7
			c-0.3-10.2,0.5-22.7-1.8-22.9c-2.2-0.2-4,12.1-6,22.1C277.5,244.2,277.5,244.7,277.4,245.1z M304.8,275.3
			c-0.4,4.7-3.7,4.8-9.5,4.3l-5.4-0.5c-6.4-0.6-1.7-15.7-5.8-16.1l-8.2-0.8c-4.1-0.4-3.2,15.3-9.4,14.7l-4.8-0.5
			c-5.4-0.5-8.5-1.2-8-5.9c0.6-6.2,3.6-11.4,16.1-58.6c1.3-5.1,3.7-8,7.8-7.6l15.8,1.5c4.1,0.4,5.9,3.7,6.4,8.9
			C302.6,257.5,305.3,269.1,304.8,275.3z"/>
		<path class="st12" d="M337.9,234.5c0.4,0,5.1-13.2,8-19.6l0.3-0.5c1.5-3.3,1.5-3.5,10.1-2.7l1.3,0.1c4.7,0.4,6.7,0.6,6.4,3.7
			c-0.3,3.6-14.5,27.5-14.8,30.1c-0.3,2.7,10.1,32.7,9.7,36.8c-0.3,2.9-4.5,3-8.3,2.6c-2.2-0.2-4.1-0.6-5.1-0.7
			c-6.3-0.6-5.2-1.1-6.7-6.4l-3.7-20.3c-0.1-0.2-0.3-0.4-0.5-0.5c-0.2,0-0.4,0.2-0.6,0.4l-6.5,19.3c-2.4,5.5-2.8,5.5-9.5,4.9
			l-3.1-0.3c-3.4-0.3-7-1.1-6.7-3.9c0.3-3.1,14.7-31.8,15-34.5c0.3-2.7-8-28.7-7.6-32.3c0.3-2.8,2.7-3,6.8-2.6
			c2.2,0.2,4.9,0.6,8.1,0.9c2.4,0.2,2.8,1.6,3.3,3.3c0,0.1,0.2,0.3,0.2,0.4c0,0.1,0.2,0.3,0.2,0.4c0,0.1,0.1,0.2,0.1,0.3
			c1.3,6.8,3.1,20,3.2,20.2C337.5,234.3,337.7,234.4,337.9,234.5z"/>
		<path class="st12" d="M381.5,279.5c-0.4,4.1-0.8,8.2-6.9,7.6l-5.1-0.5c-6.2-0.6-5.8-4.7-5.4-8.8l5.3-56.6c0.4-4.1,0.8-8.2,6.9-7.6
			l5.1,0.5c6.2,0.6,5.8,4.7,5.4,8.8L381.5,279.5z"/>
		<path class="st12" d="M393.2,223.5c0.4-4.1,0.8-8.2,6.9-7.6l5.4,0.5c3.8,0.4,6.1,1.1,7.9,6.6l6,18.9c0.6,1.9,1.1,3,1.8,3.1
			c0.7,0.1,1.3-0.9,2.3-2.7l9.4-17.5c2.8-5.1,5.2-5.3,8.9-5l5.6,0.5c6.2,0.6,5.8,4.7,5.4,8.8l-5.2,55c0,0-0.3,3.1-0.3,3.6
			c-0.4,4.4-4,5.3-5.7,5.6c-0.3,0-1.7-0.1-2.1-0.1l-3.3-0.3c-0.3,0-1.3-0.1-1.5-0.2c-5.3-0.8-5-4.8-4.6-8.7l2.7-28.3
			c0.1-0.6-0.1-1-0.4-1.1c-0.3,0-0.7,0.4-1,0.9c-8.7,13.8-9.2,17.3-12.6,17c-3.4-0.3-3.4-3.8-9.2-19c-0.3-0.6-0.6-1.1-0.8-1.1
			c-0.3,0-0.6,0.4-0.6,1l-2.7,28.3c-0.4,4.1-0.8,8.2-6.9,7.6l-5.1-0.5c-6.2-0.6-5.8-4.7-5.4-8.8L393.2,223.5z"/>
		<path class="st12" d="M500,277.9c-1.2,12.7-3.5,21.3-24.1,19.3c-21.7-2.1-22.4-10.9-21.1-24.3c3.1-32.5,4.2-43.2,4.2-43.2
			c0.4-4.1,0.8-8.2,6.9-7.6l5.1,0.5c6.2,0.6,5.8,4.7,5.4,8.8l-4.3,45.2c-0.3,3.1-0.5,5.7,5.1,6.2c4.6,0.4,4.9-2.1,5.2-5.2l4.3-45.3
			c0.4-4,0.8-8.1,6.9-7.5l5.1,0.5c6.2,0.6,5.8,4.7,5.4,8.7L500,277.9z"/>
		<path class="st12" d="M532.5,227.9c8.5,0.8,14.1,2.9,13.9,5.8l-0.7,7.9c-0.1,1.1-0.7,3-4.2,2.7l-0.8-0.1c-1.6-0.2-5.2-1.6-8.2-1.9
			c-2.5-0.2-4.5,0.4-4.8,3.7c-0.3,3.2,0.5,4.9,4.2,8.6c11.3,11.2,13.1,18.7,12.3,27c-0.4,4.7-1,9-4,12.8c-3.9,4.8-9.4,6.3-11.7,6.7
			c-2.8,0.5-6.8,0.5-10,0.2c-7.6-0.7-14.9-2.9-14.5-7l0.7-7.9c0.1-1.2,1.3-2.4,4-2.1c2.7,0.3,4.8,2,10.7,2.6c2.9,0.3,7-1.6,7.3-4.8
			c0.2-2.4,0.3-4.1-5.4-10.9c-8.7-10.3-12.8-15-12-23.4C511,227.4,524.3,227.1,532.5,227.9z"/>
		<path class="st12" d="M462,332.5c0.5-5.3-1.4-7.6-4.4-7.9c-3.8-0.4-6,1.3-6.6,6.8c-0.3,3,0.1,7.3,5.1,9.4
			C457.3,341,461.4,338.6,462,332.5z M475.6,355.6c1.8,3.2,2.3,7.5,1.9,11.9c-1.2,13-12.4,19.8-25.7,18.5s-23.2-7.9-21.8-23
			c1.1-11.2,11-15.8,11.1-16.8c0.1-0.9-8.4-5.3-7.2-18.4c0.4-4.7,3-8.9,6.3-11.9c5-4.4,12.6-4.5,18.5-4c11.9,1.1,21,7.4,19.8,19.6
			c-1.4,14.8-10.2,14.9-10.3,15.5C468.2,348.1,473.2,351.3,475.6,355.6z M448.3,363.6c-0.2,2.3,0.6,7.1,4.9,7.5
			c3.1,0.3,5.6-1.8,6-6.3c0.5-5.6-2.1-8.8-5.8-10.8C452.1,353.9,448.8,358.3,448.3,363.6z"/>
		<path class="st12" d="M493.1,324.1c0.4-4.1,0.8-8.2,6.9-7.6l23.8,2.2c4.3,0.4,5,2.7,4.6,7.7c-0.5,5.3-1.3,7.1-4.7,6.8
			c-2.1-0.2-4.7-0.7-5.8-0.8l-6.3-0.6c-4.8-0.5-4.9,0.8-5.3,4.6c-0.5,5.6-0.6,6.4,2.2,6.6c1.7,0.2,2.5-0.2,6.9,0.2
			c9.8,0.9,14.7,10.7,13.4,24.2c-1.3,13.8-10,24.9-26.3,23.3c-5.8-0.5-11.5-2.1-16.8-7.7c-2.4-2.5-4.3-4.7-4.2-6.3
			c0.1-1.1,0.7-2,1.6-2.7l3.3-2.6c3.6-2.9,4.4-3.5,5.3-3.3c0.8,0.1,1.3,0.5,2,1.4c3,4.1,5,5.2,8,5.5c5.8,0.5,8-4.3,8.4-9
			c0.4-4.3,0.7-10.3-7.9-11.1c-3.2-0.3-6,0.7-8.3,0.5c-2.1-0.2-3.6-1.5-3.4-3.5l2.5-26.6L493.1,324.1z"/>
	</g>
	<g>
		<path class="st13" d="M217.2,123.5c-1.1,11.6-2.2,24.3-3.3,36.4c-0.3,2.7-0.3,5.2,1.6,5.3c7.7,0.7,8.8-5.4,10.4-21.8
			c1.4-14.4,1.6-22.2-6.1-22.9C217.8,120.4,217.4,121.4,217.2,123.5z M223,106.8c22.6,2.1,24.3,16.8,22.3,38.9
			c-2,21.1-5.5,36.3-29.2,34.1l-15.4-1.5c-6.2-0.6-5.8-4.7-5.4-8.8l5.3-56.6c0.4-4.1,0.8-8.2,6.9-7.6L223,106.8z"/>
		<path class="st13" d="M247.3,177.5l0.6-6.7c0.2-2.2,1.5-2.9,3.5-2.7c1.2,0.1,2.4,0.3,3.3,0.4c3.8,0.4,4.5-1.2,4.9-5.3
			c0.1-1.5,0.2-3.6,0.5-6.3l3.6-37.9c0.4-4.1,0.8-8.2,6.9-7.6l5.1,0.5c6.2,0.6,5.8,4.7,5.4,8.8l-4.6,48.7c-1.2,13.1-8,15.9-18.1,15
			C250.5,183.6,246.8,182.7,247.3,177.5z"/>
		<path class="st13" d="M231.9,204.6c2.8-5.1,5.2-5.3,8.9-5l5.6,0.5c6.2,0.6,5.8,4.7,5.4,8.8l-5.3,56.6c-0.4,4.1-0.8,8.2-6.9,7.6
			l-5.1-0.5c-6.2-0.6-5.8-4.7-5.4-8.8l2.7-28.3c0.1-0.6-0.1-1-0.4-1.1c-0.3,0-0.7,0.4-1,0.9c-8.7,13.8-9.2,17.3-12.6,17
			c-3.4-0.3-3.4-3.8-9.2-19c-0.3-0.6-0.6-1.1-0.8-1.1c-0.3,0-0.6,0.4-0.6,1l-2.7,28.3c-0.4,4.1-0.8,8.2-6.9,7.6l-5.1-0.5
			c-6.2-0.6-5.8-4.7-5.4-8.8l5.3-56.6c0.4-4.1,0.8-8.2,6.9-7.6l5.4,0.5c3.8,0.4,6.1,1.1,7.9,6.6l6,18.9c0.6,1.9,1.1,3,1.8,3.1
			c0.7,0.1,1.3-0.9,2.3-2.7L231.9,204.6z"/>
		<path class="st13" d="M275.6,243.8c-0.2,1.6,0.6,1.7,3.9,2c3.2,0.3,4,0.4,4.2-1.2c0-0.4,0.1-0.9,0.1-1.7
			c-0.3-10.2,0.5-22.7-1.8-22.9c-2.2-0.2-4,12.1-6,22.1C275.7,242.9,275.7,243.4,275.6,243.8z M303,274c-0.4,4.7-3.7,4.8-9.5,4.3
			l-5.4-0.5c-6.4-0.6-1.7-15.7-5.8-16.1l-8.2-0.8c-4.1-0.4-3.2,15.3-9.4,14.7l-4.8-0.5c-5.4-0.5-8.5-1.2-8-5.9
			c0.6-6.2,3.6-11.4,16.1-58.6c1.3-5.1,3.7-8,7.8-7.6l15.8,1.5c4.1,0.4,5.9,3.7,6.4,8.9C300.8,256.2,303.5,267.8,303,274z"/>
		<path class="st13" d="M336.1,233.1c0.4,0,5.1-13.2,8-19.6l0.3-0.5c1.5-3.3,1.5-3.5,10.1-2.7l1.3,0.1c4.7,0.4,6.7,0.6,6.4,3.7
			c-0.3,3.6-14.5,27.5-14.8,30.1c-0.3,2.7,10.1,32.7,9.7,36.8c-0.3,2.9-4.5,3-8.3,2.6c-2.2-0.2-4.1-0.6-5.1-0.7
			c-6.3-0.6-5.2-1.1-6.7-6.4l-3.7-20.3c-0.1-0.2-0.3-0.4-0.5-0.5s-0.4,0.2-0.6,0.4l-6.5,19.3c-2.4,5.5-2.8,5.5-9.5,4.9l-3.1-0.3
			c-3.4-0.3-7-1.1-6.7-3.9c0.3-3.1,14.7-31.8,15-34.5c0.3-2.7-8-28.7-7.6-32.3c0.3-2.8,2.7-3,6.8-2.6c2.2,0.2,4.9,0.6,8.1,0.9
			c2.4,0.2,2.8,1.6,3.3,3.3c0,0.1,0.2,0.3,0.2,0.4c0,0.1,0.2,0.3,0.2,0.4c0,0.1,0.1,0.2,0.1,0.3c1.3,6.8,3.1,20,3.2,20.2
			C335.7,233,335.9,233.1,336.1,233.1z"/>
		<path class="st13" d="M379.8,278.1c-0.4,4.1-0.8,8.2-6.9,7.6l-5.1-0.5c-6.2-0.6-5.8-4.7-5.4-8.8l5.3-56.6c0.4-4.1,0.8-8.2,6.9-7.6
			l5.1,0.5c6.2,0.6,5.8,4.7,5.4,8.8L379.8,278.1z"/>
		<path class="st13" d="M391.4,222.2c0.4-4.1,0.8-8.2,6.9-7.6l5.4,0.5c3.8,0.4,6.1,1.1,7.9,6.6l6,18.9c0.6,1.9,1.1,3,1.8,3.1
			c0.7,0.1,1.3-0.9,2.3-2.7l9.4-17.5c2.8-5.1,5.2-5.3,8.9-5l5.6,0.5c6.2,0.6,5.8,4.7,5.4,8.8l-5.2,54.6c0,0-0.3,3.2-0.3,3.6
			c-0.4,4.2-3.3,5.7-5.5,6c-0.4,0-1.7,0-2.1-0.1l-3.4-0.3c-0.2,0-1.3-0.1-1.5-0.2c-5.5-0.8-5.1-4.8-4.8-8.7l2.7-28.3
			c0.1-0.6-0.1-1-0.4-1.1c-0.3,0-0.7,0.4-1,0.9c-8.7,13.8-9.2,17.3-12.6,17c-3.4-0.3-3.4-3.8-9.2-19c-0.3-0.6-0.6-1.1-0.8-1.1
			c-0.3,0-0.6,0.4-0.6,1l-2.7,28.3c-0.4,4.1-0.8,8.2-6.9,7.6l-5.1-0.5c-6.2-0.6-5.8-4.7-5.4-8.8L391.4,222.2z"/>
		<path class="st13" d="M498.3,276.6c-1.2,12.7-3.5,21.3-24.1,19.3c-21.7-2.1-22.4-10.9-21.1-24.3c3.1-32.5,4.2-43.2,4.2-43.2
			c0.4-4.1,0.8-8.2,6.9-7.6l5.1,0.5c6.2,0.6,5.8,4.7,5.4,8.8l-4.3,45.2c-0.3,3.1-0.5,5.7,5.1,6.2c4.6,0.4,4.9-2.1,5.2-5.2l4.3-45.3
			c0.4-4,0.8-8.1,6.9-7.5l5.1,0.5c6.2,0.6,5.8,4.7,5.4,8.7L498.3,276.6z"/>
		<path class="st13" d="M530.7,226.5c8.5,0.8,14.1,2.9,13.9,5.8l-0.7,7.9c-0.1,1.1-0.7,3-4.2,2.7l-0.8-0.1c-1.6-0.2-5.2-1.6-8.2-1.9
			c-2.5-0.2-4.5,0.4-4.8,3.7c-0.3,3.2,0.5,4.9,4.2,8.6c11.3,11.2,13.1,18.7,12.3,27c-0.4,4.7-1,9-4,12.8c-3.9,4.8-9.4,6.3-11.7,6.7
			c-2.8,0.5-6.8,0.5-10,0.2c-7.6-0.7-14.9-2.9-14.5-7l0.7-7.9c0.1-1.2,1.3-2.4,4-2.1c2.7,0.3,4.8,2,10.7,2.6c2.9,0.3,7-1.6,7.3-4.8
			c0.2-2.4,0.3-4.1-5.4-10.9c-8.7-10.3-12.8-15-12-23.4C509.3,226.1,522.5,225.8,530.7,226.5z"/>
		<path class="st13" d="M460.2,331.2c0.5-5.3-1.4-7.6-4.4-7.9c-3.8-0.4-6,1.3-6.6,6.8c-0.3,3,0.1,7.3,5.1,9.4
			C455.5,339.7,459.6,337.3,460.2,331.2z M473.8,354.3c1.8,3.2,2.3,7.5,1.9,11.9c-1.2,13-12.4,19.8-25.7,18.5
			c-13.4-1.3-23.2-7.9-21.8-23c1.1-11.2,11-15.8,11.1-16.8c0.1-0.9-8.4-5.3-7.2-18.4c0.4-4.7,3-8.9,6.3-11.9c5-4.4,12.6-4.5,18.5-4
			c11.9,1.1,21,7.4,19.8,19.6c-1.4,14.8-10.2,14.9-10.3,15.5C466.4,346.8,471.4,350,473.8,354.3z M446.5,362.3
			c-0.2,2.3,0.6,7.1,4.9,7.5c3.1,0.3,5.6-1.8,6-6.3c0.5-5.6-2.1-8.8-5.8-10.8C450.3,352.6,447,357,446.5,362.3z"/>
		<path class="st13" d="M491.3,322.8c0.4-4.1,0.8-8.2,6.9-7.6l23.8,2.2c4.3,0.4,5,2.7,4.6,7.7c-0.5,5.3-1.3,7.1-4.7,6.8
			c-2.1-0.2-4.7-0.7-5.8-0.8l-6.3-0.6c-4.8-0.5-4.9,0.8-5.3,4.6c-0.5,5.6-0.6,6.4,2.2,6.6c1.7,0.2,2.5-0.2,6.9,0.2
			c9.8,0.9,14.7,10.7,13.4,24.2c-1.3,13.8-10,24.9-26.3,23.3c-5.8-0.5-11.5-2.1-16.8-7.7c-2.4-2.5-4.3-4.7-4.2-6.3
			c0.1-1.1,0.7-2,1.6-2.7l3.3-2.6c3.6-2.9,4.4-3.5,5.3-3.3c0.8,0.1,1.3,0.5,2,1.4c3,4.1,5,5.2,8,5.5c5.8,0.5,8-4.3,8.4-9
			c0.4-4.3,0.7-10.3-7.9-11.1c-3.2-0.3-6,0.7-8.3,0.5c-2.1-0.2-3.6-1.5-3.4-3.5l2.5-26.6L491.3,322.8z"/>
	</g>
	<g>
		<path class="st14" d="M215.4,122.2c-1.1,11.6-2.2,24.3-3.3,36.4c-0.3,2.7-0.3,5.2,1.6,5.3c7.7,0.7,8.8-5.4,10.4-21.8
			c1.4-14.4,1.6-22.2-6.1-22.9C216,119,215.6,120,215.4,122.2z M221.2,105.5c22.6,2.1,24.3,16.8,22.3,38.9
			c-2,21.1-5.5,36.3-29.2,34.1l-15.4-1.5c-6.2-0.6-5.8-4.7-5.4-8.8l5.3-56.6c0.4-4.1,0.8-8.2,6.9-7.6L221.2,105.5z"/>
		<path class="st14" d="M245.5,176.2l0.6-6.7c0.2-2.2,1.5-2.9,3.5-2.7c1.2,0.1,2.4,0.3,3.3,0.4c3.8,0.4,4.5-1.2,4.9-5.3
			c0.1-1.5,0.2-3.6,0.5-6.3l3.6-37.9c0.4-4.1,0.8-8.2,6.9-7.6l5.1,0.5c6.2,0.6,5.8,4.7,5.4,8.8l-4.6,48.7c-1.2,13.1-8,15.9-18.1,15
			C248.7,182.3,245,181.4,245.5,176.2z"/>
		<path class="st14" d="M230.1,203.3c2.8-5.1,5.2-5.3,8.9-5l5.6,0.5c6.2,0.6,5.8,4.7,5.4,8.8l-5.3,56.6c-0.4,4.1-0.8,8.2-6.9,7.6
			l-5.1-0.5c-6.2-0.6-5.8-4.7-5.4-8.8l2.7-28.3c0.1-0.6-0.1-1-0.4-1.1s-0.7,0.4-1,0.9c-8.7,13.8-9.2,17.3-12.6,17
			c-3.4-0.3-3.4-3.8-9.2-19c-0.3-0.6-0.6-1.1-0.8-1.1c-0.3,0-0.6,0.4-0.6,1l-2.7,28.3c-0.4,4.1-0.8,8.2-6.9,7.6l-5.1-0.5
			c-6.2-0.6-5.8-4.7-5.4-8.8l5.3-56.6c0.4-4.1,0.8-8.2,6.9-7.6l5.4,0.5c3.8,0.4,6.1,1.1,7.9,6.6l6,18.9c0.6,1.9,1.1,3,1.8,3.1
			c0.7,0.1,1.3-0.9,2.3-2.7L230.1,203.3z"/>
		<path class="st14" d="M273.8,242.5c-0.2,1.6,0.6,1.7,3.9,2c3.2,0.3,4,0.4,4.2-1.2c0-0.4,0.1-0.9,0.1-1.7
			c-0.3-10.2,0.5-22.7-1.8-22.9c-2.2-0.2-4,12.1-6,22.1C273.9,241.6,273.9,242.1,273.8,242.5z M301.2,272.7
			c-0.4,4.7-3.7,4.8-9.5,4.3l-5.4-0.5c-6.4-0.6-1.7-15.7-5.8-16.1l-8.2-0.8c-4.1-0.4-3.2,15.3-9.4,14.7l-4.8-0.5
			c-5.4-0.5-8.5-1.2-8-5.9c0.6-6.2,3.6-11.4,16.1-58.6c1.3-5.1,3.7-8,7.8-7.6l15.8,1.5c4.1,0.4,5.9,3.7,6.4,8.9
			C299,254.8,301.8,266.5,301.2,272.7z"/>
		<path class="st14" d="M334.3,231.8c0.4,0,5.1-13.2,8-19.6l0.3-0.5c1.5-3.3,1.5-3.5,10.1-2.7l1.3,0.1c4.7,0.4,6.7,0.6,6.4,3.7
			c-0.3,3.6-14.5,27.5-14.8,30.1c-0.3,2.7,10.1,32.7,9.7,36.8c-0.3,2.9-4.5,3-8.3,2.6c-2.2-0.2-4.1-0.6-5.1-0.7
			c-6.3-0.6-5.2-1.1-6.7-6.4l-3.7-20.3c-0.1-0.2-0.3-0.4-0.5-0.5s-0.4,0.2-0.6,0.4l-6.5,19.3c-2.4,5.5-2.8,5.5-9.5,4.9l-3.1-0.3
			c-3.4-0.3-7-1.1-6.7-3.9c0.3-3.1,14.7-31.8,15-34.5c0.3-2.7-8-28.7-7.6-32.3c0.3-2.8,2.7-3,6.8-2.6c2.2,0.2,4.9,0.6,8.1,0.9
			c2.4,0.2,2.8,1.6,3.3,3.3c0,0.1,0.2,0.3,0.2,0.4c0,0.1,0.2,0.3,0.2,0.4c0,0.1,0.1,0.2,0.1,0.3c1.3,6.8,3.1,20,3.2,20.2
			C333.9,231.7,334.1,231.8,334.3,231.8z"/>
		<path class="st14" d="M378,276.8c-0.4,4.1-0.8,8.2-6.9,7.6l-5.1-0.5c-6.2-0.6-5.8-4.7-5.4-8.8l5.3-56.6c0.4-4.1,0.8-8.2,6.9-7.6
			l5.1,0.5c6.2,0.6,5.8,4.7,5.4,8.8L378,276.8z"/>
		<path class="st14" d="M389.6,220.9c0.4-4.1,0.8-8.2,6.9-7.6l5.4,0.5c3.8,0.4,6.1,1.1,7.9,6.6l6,18.9c0.6,1.9,1.1,3,1.8,3.1
			c0.7,0.1,1.3-0.9,2.3-2.7l9.4-17.5c2.8-5.1,5.2-5.3,8.9-5l5.6,0.5c6.2,0.6,5.8,4.7,5.4,8.8l-5.1,54.2c0,0-0.3,3.2-0.3,3.6
			c-0.4,4-2.6,6-5.3,6.4c-0.4,0.1-1.6,0-2.2-0.1l-3.4-0.3c-0.2,0-1.4-0.1-1.5-0.2c-5.7-0.7-5.3-4.7-4.9-8.7l2.7-28.3
			c0.1-0.6-0.1-1-0.4-1.1c-0.3,0-0.7,0.4-1,0.9c-8.7,13.8-9.2,17.3-12.6,17c-3.4-0.3-3.4-3.8-9.2-19c-0.3-0.6-0.6-1.1-0.8-1.1
			c-0.3,0-0.6,0.4-0.6,1l-2.7,28.3c-0.4,4.1-0.8,8.2-6.9,7.6l-5.1-0.5c-6.2-0.6-5.8-4.7-5.4-8.8L389.6,220.9z"/>
		<path class="st14" d="M496.5,275.3c-1.2,12.7-3.5,21.3-24.1,19.3c-21.7-2.1-22.4-10.9-21.1-24.3c3.1-32.5,4.2-43.2,4.2-43.2
			c0.4-4.1,0.8-8.2,6.9-7.6l5.1,0.5c6.2,0.6,5.8,4.7,5.4,8.8l-4.3,45.2c-0.3,3.1-0.5,5.7,5.1,6.2c4.6,0.4,4.9-2.1,5.2-5.2l4.3-45.3
			c0.4-4,0.8-8.1,6.9-7.5l5.1,0.5c6.2,0.6,5.8,4.7,5.4,8.7L496.5,275.3z"/>
		<path class="st14" d="M528.9,225.2c8.5,0.8,14.1,2.9,13.9,5.8l-0.7,7.9c-0.1,1.1-0.7,3-4.2,2.7l-0.8-0.1c-1.6-0.2-5.2-1.6-8.2-1.9
			c-2.5-0.2-4.5,0.4-4.8,3.7c-0.3,3.2,0.5,4.9,4.2,8.6c11.3,11.2,13.1,18.7,12.3,27c-0.4,4.7-1,9-4,12.8c-3.9,4.8-9.4,6.3-11.7,6.7
			c-2.8,0.5-6.8,0.5-10,0.2c-7.6-0.7-14.9-2.9-14.5-7l0.7-7.9c0.1-1.2,1.3-2.4,4-2.1c2.7,0.3,4.8,2,10.7,2.6c2.9,0.3,7-1.6,7.3-4.8
			c0.2-2.4,0.3-4.1-5.4-10.9c-8.7-10.3-12.8-15-12-23.4C507.5,224.8,520.7,224.4,528.9,225.2z"/>
		<path class="st14" d="M458.4,329.9c0.5-5.3-1.4-7.6-4.4-7.9c-3.8-0.4-6,1.3-6.6,6.8c-0.3,3,0.1,7.3,5.1,9.4
			C453.7,338.4,457.9,336,458.4,329.9z M472,353c1.8,3.2,2.3,7.5,1.9,11.9c-1.2,13-12.4,19.8-25.7,18.5c-13.4-1.3-23.2-7.9-21.8-23
			c1.1-11.2,11-15.8,11.1-16.8c0.1-0.9-8.4-5.3-7.2-18.4c0.4-4.7,3-8.9,6.3-11.9c5-4.4,12.6-4.5,18.5-4c11.9,1.1,21,7.4,19.8,19.6
			c-1.4,14.8-10.2,14.9-10.3,15.5C464.6,345.4,469.6,348.7,472,353z M444.7,361c-0.2,2.3,0.6,7.1,4.9,7.5c3.1,0.3,5.6-1.8,6-6.3
			c0.5-5.6-2.1-8.8-5.8-10.8C448.5,351.3,445.2,355.6,444.7,361z"/>
		<path class="st14" d="M489.5,321.4c0.4-4.1,0.8-8.2,6.9-7.6l23.8,2.2c4.3,0.4,5,2.7,4.6,7.7c-0.5,5.3-1.3,7.1-4.7,6.8
			c-2.1-0.2-4.7-0.7-5.8-0.8l-6.3-0.6c-4.8-0.5-4.9,0.8-5.3,4.6c-0.5,5.6-0.6,6.4,2.2,6.6c1.7,0.2,2.5-0.2,6.9,0.2
			c9.8,0.9,14.7,10.7,13.4,24.2c-1.3,13.8-10,24.9-26.3,23.3c-5.8-0.5-11.5-2.1-16.8-7.7c-2.4-2.5-4.3-4.7-4.2-6.3
			c0.1-1.1,0.7-2,1.6-2.7l3.3-2.6c3.6-2.9,4.4-3.5,5.3-3.3c0.8,0.1,1.3,0.5,2,1.4c3,4.1,5,5.2,8,5.5c5.8,0.5,8-4.3,8.4-9
			c0.4-4.3,0.7-10.3-7.9-11.1c-3.2-0.3-6,0.7-8.3,0.5c-2.1-0.2-3.6-1.5-3.4-3.5l2.5-26.6L489.5,321.4z"/>
	</g>
	<g>
		<path class="st15" d="M213.6,120.9c-1.1,11.6-2.2,24.3-3.3,36.4c-0.3,2.7-0.3,5.2,1.6,5.3c7.7,0.7,8.8-5.4,10.4-21.8
			c1.4-14.4,1.6-22.2-6.1-22.9C214.2,117.7,213.8,118.7,213.6,120.9z M219.4,104.2c22.6,2.1,24.3,16.8,22.3,38.9
			c-2,21.1-5.5,36.3-29.2,34.1l-15.4-1.5c-6.2-0.6-5.8-4.7-5.4-8.8l5.3-56.6c0.4-4.1,0.8-8.2,6.9-7.6L219.4,104.2z"/>
		<path class="st15" d="M243.7,174.9l0.6-6.7c0.2-2.2,1.5-2.9,3.5-2.7c1.2,0.1,2.4,0.3,3.3,0.4c3.8,0.4,4.5-1.2,4.9-5.3
			c0.1-1.5,0.2-3.6,0.5-6.3l3.6-37.9c0.4-4.1,0.8-8.2,6.9-7.6l5.1,0.5c6.2,0.6,5.8,4.7,5.4,8.8l-4.6,48.7c-1.2,13.1-8,15.9-18.1,15
			C246.9,181,243.2,180.1,243.7,174.9z"/>
		<path class="st15" d="M228.4,202c2.8-5.1,5.2-5.3,8.9-5l5.6,0.5c6.2,0.6,5.8,4.7,5.4,8.8l-5.3,56.6c-0.4,4.1-0.8,8.2-6.9,7.6
			l-5.1-0.5c-6.2-0.6-5.8-4.7-5.4-8.8L228,233c0.1-0.6-0.1-1-0.4-1.1s-0.7,0.4-1,0.9c-8.7,13.8-9.2,17.3-12.6,17
			c-3.4-0.3-3.4-3.8-9.2-19c-0.3-0.6-0.6-1.1-0.8-1.1c-0.3,0-0.6,0.4-0.6,1l-2.7,28.3c-0.4,4.1-0.8,8.2-6.9,7.6l-5.1-0.5
			c-6.2-0.6-5.8-4.7-5.4-8.8l5.3-56.6c0.4-4.1,0.8-8.2,6.9-7.6l5.4,0.5c3.8,0.4,6.1,1.1,7.9,6.6l6,18.9c0.6,1.9,1.1,3,1.8,3.1
			c0.7,0.1,1.3-0.9,2.3-2.7L228.4,202z"/>
		<path class="st15" d="M272.1,241.2c-0.2,1.6,0.6,1.7,3.9,2c3.2,0.3,4,0.4,4.2-1.2c0-0.4,0.1-0.9,0.1-1.7
			c-0.3-10.2,0.5-22.7-1.8-22.9c-2.2-0.2-4,12.1-6,22.1C272.1,240.3,272.1,240.8,272.1,241.2z M299.4,271.4
			c-0.4,4.7-3.7,4.8-9.5,4.3l-5.4-0.5c-6.4-0.6-1.7-15.7-5.8-16.1l-8.2-0.8c-4.1-0.4-3.2,15.3-9.4,14.7l-4.8-0.5
			c-5.4-0.5-8.5-1.2-8-5.9c0.6-6.2,3.6-11.4,16.1-58.6c1.3-5.1,3.7-8,7.8-7.6l15.8,1.5c4.1,0.4,5.9,3.7,6.4,8.9
			C297.2,253.5,300,265.2,299.4,271.4z"/>
		<path class="st15" d="M332.5,230.5c0.4,0,5.1-13.2,8-19.6l0.3-0.5c1.5-3.3,1.5-3.5,10.1-2.7l1.3,0.1c4.7,0.4,6.7,0.6,6.4,3.7
			c-0.3,3.6-14.5,27.5-14.8,30.1c-0.3,2.7,10.1,32.7,9.7,36.8c-0.3,2.9-4.5,3-8.3,2.6c-2.2-0.2-4.1-0.6-5.1-0.7
			c-6.3-0.6-5.2-1.1-6.7-6.4l-3.7-20.3c-0.1-0.2-0.3-0.4-0.5-0.5c-0.2,0-0.4,0.2-0.6,0.4l-6.5,19.3c-2.4,5.5-2.8,5.5-9.5,4.9
			l-3.1-0.3c-3.4-0.3-7-1.1-6.7-3.9c0.3-3.1,14.7-31.8,15-34.5c0.3-2.7-8-28.7-7.6-32.3c0.3-2.8,2.7-3,6.8-2.6
			c2.2,0.2,4.9,0.6,8.1,0.9c2.4,0.2,2.8,1.6,3.3,3.3c0,0.1,0.2,0.3,0.2,0.4c0,0.1,0.2,0.3,0.2,0.4c0,0.1,0.1,0.2,0.1,0.3
			c1.3,6.8,3.1,20,3.2,20.2C332.1,230.4,332.3,230.5,332.5,230.5z"/>
		<path class="st15" d="M376.2,275.5c-0.4,4.1-0.8,8.2-6.9,7.6l-5.1-0.5c-6.2-0.6-5.8-4.7-5.4-8.8l5.3-56.6c0.4-4.1,0.8-8.2,6.9-7.6
			l5.1,0.5c6.2,0.6,5.8,4.7,5.4,8.8L376.2,275.5z"/>
		<path class="st15" d="M387.8,219.6c0.4-4.1,0.8-8.2,6.9-7.6l5.4,0.5c3.8,0.4,6.1,1.1,7.9,6.6l6,18.9c0.6,1.9,1.1,3,1.8,3.1
			c0.7,0.1,1.3-0.9,2.3-2.7l9.4-17.5c2.8-5.1,5.2-5.3,8.9-5l5.6,0.5c6.2,0.6,5.8,4.7,5.4,8.8l-5.1,53.9c0,0-0.3,3.3-0.3,3.5
			c-0.4,3.9-2,6.4-5.1,6.8c-0.5,0.1-1.5,0-2.2,0l-3.5-0.3c-0.1,0-1.5-0.1-1.6-0.2c-5.8-0.7-5.5-4.7-5.1-8.8l2.7-28.3
			c0.1-0.6-0.1-1-0.4-1.1c-0.3,0-0.7,0.4-1,0.9c-8.7,13.8-9.2,17.3-12.6,17c-3.4-0.3-3.4-3.8-9.2-19c-0.3-0.6-0.6-1.1-0.8-1.1
			c-0.3,0-0.6,0.4-0.6,1l-2.7,28.3c-0.4,4.1-0.8,8.2-6.9,7.6l-5.1-0.5c-6.2-0.6-5.8-4.7-5.4-8.8L387.8,219.6z"/>
		<path class="st15" d="M494.7,274c-1.2,12.7-3.5,21.3-24.1,19.3c-21.7-2.1-22.4-10.9-21.1-24.3c3.1-32.5,4.2-43.2,4.2-43.2
			c0.4-4.1,0.8-8.2,6.9-7.6l5.1,0.5c6.2,0.6,5.8,4.7,5.4,8.8l-4.3,45.2c-0.3,3.1-0.5,5.7,5.1,6.2c4.6,0.4,4.9-2.1,5.2-5.2l4.3-45.3
			c0.4-4,0.8-8.1,6.9-7.5l5.1,0.5c6.2,0.6,5.8,4.7,5.4,8.7L494.7,274z"/>
		<path class="st15" d="M527.1,223.9c8.5,0.8,14.1,2.9,13.9,5.8l-0.7,7.9c-0.1,1.1-0.7,3-4.2,2.7l-0.8-0.1c-1.6-0.2-5.2-1.6-8.2-1.9
			c-2.5-0.2-4.5,0.4-4.8,3.7c-0.3,3.2,0.5,4.9,4.2,8.6c11.3,11.2,13.1,18.7,12.3,27c-0.4,4.7-1,9-4,12.8c-3.9,4.8-9.4,6.3-11.7,6.7
			c-2.8,0.5-6.8,0.5-10,0.2c-7.6-0.7-14.9-2.9-14.5-7l0.7-7.9c0.1-1.2,1.3-2.4,4-2.1c2.7,0.3,4.8,2,10.7,2.6c2.9,0.3,7-1.6,7.3-4.8
			c0.2-2.4,0.3-4.1-5.4-10.9c-8.7-10.3-12.8-15-12-23.4C505.7,223.4,518.9,223.1,527.1,223.9z"/>
		<path class="st15" d="M456.6,328.6c0.5-5.3-1.4-7.6-4.4-7.9c-3.8-0.4-6,1.3-6.6,6.8c-0.3,3,0.1,7.3,5.1,9.4
			C451.9,337.1,456.1,334.7,456.6,328.6z M470.2,351.7c1.8,3.2,2.3,7.5,1.9,11.9c-1.2,13-12.4,19.8-25.7,18.5s-23.2-7.9-21.8-23
			c1.1-11.2,11-15.8,11.1-16.8c0.1-0.9-8.4-5.3-7.2-18.4c0.4-4.7,3-8.9,6.3-11.9c5-4.4,12.6-4.5,18.5-4c11.9,1.1,21,7.4,19.8,19.6
			c-1.4,14.8-10.2,14.9-10.3,15.5C462.9,344.1,467.8,347.4,470.2,351.7z M442.9,359.7c-0.2,2.3,0.6,7.1,4.9,7.5
			c3.1,0.3,5.6-1.8,6-6.3c0.5-5.6-2.1-8.8-5.8-10.8C446.7,350,443.4,354.3,442.9,359.7z"/>
		<path class="st15" d="M487.7,320.1c0.4-4.1,0.8-8.2,6.9-7.6l23.8,2.2c4.3,0.4,5,2.7,4.6,7.7c-0.5,5.3-1.3,7.1-4.7,6.8
			c-2.1-0.2-4.7-0.7-5.8-0.8l-6.3-0.6c-4.8-0.5-4.9,0.8-5.3,4.6c-0.5,5.6-0.6,6.4,2.2,6.6c1.7,0.2,2.5-0.2,6.9,0.2
			c9.8,0.9,14.7,10.7,13.4,24.2c-1.3,13.8-10,24.9-26.3,23.3c-5.8-0.5-11.5-2.1-16.8-7.7c-2.4-2.5-4.3-4.7-4.2-6.3
			c0.1-1.1,0.7-2,1.6-2.7l3.3-2.6c3.6-2.9,4.4-3.5,5.3-3.3c0.8,0.1,1.3,0.5,2,1.4c3,4.1,5,5.2,8,5.5c5.8,0.5,8-4.3,8.4-9
			c0.4-4.3,0.7-10.3-7.9-11.1c-3.2-0.3-6,0.7-8.3,0.5c-2.1-0.2-3.6-1.5-3.4-3.5l2.5-26.6L487.7,320.1z"/>
	</g>
	<g>
		<path class="st16" d="M211.8,119.6c-1.1,11.6-2.2,24.3-3.3,36.4c-0.3,2.7-0.3,5.2,1.6,5.3c7.7,0.7,8.8-5.4,10.4-21.8
			c1.4-14.4,1.6-22.2-6.1-22.9C212.4,116.4,212,117.4,211.8,119.6z M217.7,102.9c22.6,2.1,24.3,16.8,22.3,38.9
			c-2,21.1-5.5,36.3-29.2,34.1l-15.4-1.5c-6.2-0.6-5.8-4.7-5.4-8.8l5.3-56.6c0.4-4.1,0.8-8.2,6.9-7.6L217.7,102.9z"/>
		<path class="st16" d="M241.9,173.6l0.6-6.7c0.2-2.2,1.5-2.9,3.5-2.7c1.2,0.1,2.4,0.3,3.3,0.4c3.8,0.4,4.5-1.2,4.9-5.3
			c0.1-1.5,0.2-3.6,0.5-6.3l3.6-37.9c0.4-4.1,0.8-8.2,6.9-7.6l5.1,0.5c6.2,0.6,5.8,4.7,5.4,8.8l-4.6,48.7c-1.2,13.1-8,15.9-18.1,15
			C245.2,179.7,241.4,178.8,241.9,173.6z"/>
		<path class="st16" d="M226.6,200.7c2.8-5.1,5.2-5.3,8.9-5l5.6,0.5c6.2,0.6,5.8,4.7,5.4,8.8l-5.3,56.6c-0.4,4.1-0.8,8.2-6.9,7.6
			l-5.1-0.5c-6.2-0.6-5.8-4.7-5.4-8.8l2.7-28.3c0.1-0.6-0.1-1-0.4-1.1c-0.3,0-0.7,0.4-1,0.9c-8.7,13.8-9.2,17.3-12.6,17
			c-3.4-0.3-3.4-3.8-9.2-19c-0.3-0.6-0.6-1.1-0.8-1.1c-0.3,0-0.6,0.4-0.6,1l-2.7,28.3c-0.4,4.1-0.8,8.2-6.9,7.6l-5.1-0.5
			c-6.2-0.6-5.8-4.7-5.4-8.8l5.3-56.6c0.4-4.1,0.8-8.2,6.9-7.6l5.4,0.5c3.8,0.4,6.1,1.1,7.9,6.6l6,18.9c0.6,1.9,1.1,3,1.8,3.1
			c0.7,0.1,1.3-0.9,2.3-2.7L226.6,200.7z"/>
		<path class="st16" d="M270.3,239.9c-0.2,1.6,0.6,1.7,3.9,2c3.2,0.3,4,0.4,4.2-1.2c0-0.4,0.1-0.9,0.1-1.7
			c-0.3-10.2,0.5-22.7-1.8-22.9c-2.2-0.2-4,12.1-6,22.1C270.4,238.9,270.3,239.5,270.3,239.9z M297.6,270.1
			c-0.4,4.7-3.7,4.8-9.5,4.3l-5.4-0.5c-6.4-0.6-1.7-15.7-5.8-16.1l-8.2-0.8c-4.1-0.4-3.2,15.3-9.4,14.7l-4.8-0.5
			c-5.4-0.5-8.5-1.2-8-5.9c0.6-6.2,3.6-11.4,16.1-58.6c1.3-5.1,3.7-8,7.8-7.6l15.8,1.5c4.1,0.4,5.9,3.7,6.4,8.9
			C295.5,252.2,298.2,263.9,297.6,270.1z"/>
		<path class="st16" d="M330.7,229.2c0.4,0,5.1-13.2,8-19.6l0.3-0.5c1.5-3.3,1.5-3.5,10.1-2.7l1.3,0.1c4.7,0.4,6.7,0.6,6.4,3.7
			c-0.3,3.6-14.5,27.5-14.8,30.1c-0.3,2.7,10.1,32.7,9.7,36.8c-0.3,2.9-4.5,3-8.3,2.6c-2.2-0.2-4.1-0.6-5.1-0.7
			c-6.3-0.6-5.2-1.1-6.7-6.4l-3.7-20.3c-0.1-0.2-0.3-0.4-0.5-0.5c-0.2,0-0.4,0.2-0.6,0.4l-6.5,19.3c-2.4,5.5-2.8,5.5-9.5,4.9
			l-3.1-0.3c-3.4-0.3-7-1.1-6.7-3.9c0.3-3.1,14.7-31.8,15-34.5c0.3-2.7-8-28.7-7.6-32.3c0.3-2.8,2.7-3,6.8-2.6
			c2.2,0.2,4.9,0.6,8.1,0.9c2.4,0.2,2.8,1.6,3.3,3.3c0,0.1,0.2,0.3,0.2,0.4c0,0.1,0.2,0.3,0.2,0.4c0,0.1,0.1,0.2,0.1,0.3
			c1.3,6.8,3.1,20,3.2,20.2C330.3,229,330.5,229.2,330.7,229.2z"/>
		<path class="st16" d="M374.4,274.2c-0.4,4.1-0.8,8.2-6.9,7.6l-5.1-0.5c-6.2-0.6-5.8-4.7-5.4-8.8l5.3-56.6c0.4-4.1,0.8-8.2,6.9-7.6
			l5.1,0.5c6.2,0.6,5.8,4.7,5.4,8.8L374.4,274.2z"/>
		<path class="st16" d="M386,218.2c0.4-4.1,0.8-8.2,6.9-7.6l5.4,0.5c3.8,0.4,6.1,1.1,7.9,6.6l6,18.9c0.6,1.9,1.1,3,1.8,3.1
			c0.7,0.1,1.3-0.9,2.3-2.7l9.4-17.5c2.8-5.1,5.2-5.3,8.9-5l5.6,0.5c6.2,0.6,5.8,4.7,5.4,8.8l-5.1,53.5c0,0-0.3,3.4-0.3,3.5
			c-0.3,3.7-1.3,6.7-4.9,7.2c-0.6,0.1-1.5,0.1-2.2,0l-3.5-0.3c-0.1,0-1.5-0.1-1.6-0.2c-6-0.6-5.6-4.7-5.2-8.8l2.7-28.3
			c0.1-0.6-0.1-1-0.4-1.1s-0.7,0.4-1,0.9c-8.7,13.8-9.2,17.3-12.6,17c-3.4-0.3-3.4-3.8-9.2-19c-0.3-0.6-0.6-1.1-0.8-1.1
			c-0.3,0-0.6,0.4-0.6,1l-2.7,28.3c-0.4,4.1-0.8,8.2-6.9,7.6l-5.1-0.5c-6.2-0.6-5.8-4.7-5.4-8.8L386,218.2z"/>
		<path class="st16" d="M492.9,272.6c-1.2,12.7-3.5,21.3-24.1,19.3c-21.7-2.1-22.4-10.9-21.1-24.3c3.1-32.5,4.2-43.2,4.2-43.2
			c0.4-4.1,0.8-8.2,6.9-7.6l5.1,0.5c6.2,0.6,5.8,4.7,5.4,8.8l-4.3,45.2c-0.3,3.1-0.5,5.7,5.1,6.2c4.6,0.4,4.9-2.1,5.2-5.2l4.3-45.3
			c0.4-4,0.8-8.1,6.9-7.5l5.1,0.5c6.2,0.6,5.8,4.7,5.4,8.7L492.9,272.6z"/>
		<path class="st16" d="M525.3,222.6c8.5,0.8,14.1,2.9,13.9,5.8l-0.7,7.9c-0.1,1.1-0.7,3-4.2,2.7l-0.8-0.1c-1.6-0.2-5.2-1.6-8.2-1.9
			c-2.5-0.2-4.5,0.4-4.8,3.7c-0.3,3.2,0.5,4.9,4.2,8.6c11.3,11.2,13.1,18.7,12.3,27c-0.4,4.7-1,9-4,12.8c-3.9,4.8-9.4,6.3-11.7,6.7
			c-2.8,0.5-6.8,0.5-10,0.2c-7.6-0.7-14.9-2.9-14.5-7l0.7-7.9c0.1-1.2,1.3-2.4,4-2.1c2.7,0.3,4.8,2,10.7,2.6c2.9,0.3,7-1.6,7.3-4.8
			c0.2-2.4,0.3-4.1-5.4-10.9c-8.7-10.3-12.8-15-12-23.4C503.9,222.1,517.1,221.8,525.3,222.6z"/>
		<path class="st16" d="M454.9,327.3c0.5-5.3-1.4-7.6-4.4-7.9c-3.8-0.4-6,1.3-6.6,6.8c-0.3,3,0.1,7.3,5.1,9.4
			C450.1,335.8,454.3,333.4,454.9,327.3z M468.5,350.4c1.8,3.2,2.3,7.5,1.9,11.9c-1.2,13-12.4,19.8-25.7,18.5
			c-13.4-1.3-23.2-7.9-21.8-23c1.1-11.2,11-15.8,11.1-16.8c0.1-0.9-8.4-5.3-7.2-18.4c0.4-4.7,3-8.9,6.3-11.9c5-4.4,12.6-4.5,18.5-4
			c11.9,1.1,21,7.4,19.8,19.6c-1.4,14.8-10.2,14.9-10.3,15.5C461.1,342.8,466.1,346.1,468.5,350.4z M441.1,358.4
			c-0.2,2.3,0.6,7.1,4.9,7.5c3.1,0.3,5.6-1.8,6-6.3c0.5-5.6-2.1-8.8-5.8-10.8C445,348.7,441.6,353,441.1,358.4z"/>
		<path class="st16" d="M486,318.8c0.4-4.1,0.8-8.2,6.9-7.6l23.8,2.2c4.3,0.4,5,2.7,4.6,7.7c-0.5,5.3-1.3,7.1-4.7,6.8
			c-2.1-0.2-4.7-0.7-5.8-0.8l-6.3-0.6c-4.8-0.5-4.9,0.8-5.3,4.6c-0.5,5.6-0.6,6.4,2.2,6.6c1.7,0.2,2.5-0.2,6.9,0.2
			c9.8,0.9,14.7,10.7,13.4,24.2c-1.3,13.8-10,24.9-26.3,23.3c-5.8-0.5-11.5-2.1-16.8-7.7c-2.4-2.5-4.3-4.7-4.2-6.3
			c0.1-1.1,0.7-2,1.6-2.7l3.3-2.6c3.6-2.9,4.4-3.5,5.3-3.3c0.8,0.1,1.3,0.5,2,1.4c3,4.1,5,5.2,8,5.5c5.8,0.5,8-4.3,8.4-9
			c0.4-4.3,0.7-10.3-7.9-11.1c-3.2-0.3-6,0.7-8.3,0.5c-2.1-0.2-3.6-1.5-3.4-3.5l2.5-26.6L486,318.8z"/>
	</g>
	<g>
		<path class="st17" d="M210,118.2c-1.1,11.6-2.2,24.3-3.3,36.4c-0.3,2.7-0.3,5.2,1.6,5.3c7.7,0.7,8.8-5.4,10.4-21.8
			c1.4-14.4,1.6-22.2-6.1-22.9C210.7,115.1,210.3,116.1,210,118.2z M215.9,101.6c22.6,2.1,24.3,16.8,22.3,38.9
			c-2,21.1-5.5,36.3-29.2,34.1l-15.4-1.5c-6.2-0.6-5.8-4.7-5.4-8.8l5.3-56.6c0.4-4.1,0.8-8.2,6.9-7.6L215.9,101.6z"/>
		<path class="st17" d="M240.1,172.2l0.6-6.7c0.2-2.2,1.5-2.9,3.5-2.7c1.2,0.1,2.4,0.3,3.3,0.4c3.8,0.4,4.5-1.2,4.9-5.3
			c0.1-1.5,0.2-3.6,0.5-6.3l3.6-37.9c0.4-4.1,0.8-8.2,6.9-7.6l5.1,0.5c6.2,0.6,5.8,4.7,5.4,8.8l-4.6,48.7c-1.2,13.1-8,15.9-18.1,15
			C243.4,178.4,239.6,177.5,240.1,172.2z"/>
		<path class="st17" d="M224.8,199.4c2.8-5.1,5.2-5.3,8.9-5l5.6,0.5c6.2,0.6,5.8,4.7,5.4,8.8l-5.3,56.6c-0.4,4.1-0.8,8.2-6.9,7.6
			l-5.1-0.5c-6.2-0.6-5.8-4.7-5.4-8.8l2.7-28.3c0.1-0.6-0.1-1-0.4-1.1c-0.3,0-0.7,0.4-1,0.9c-8.7,13.8-9.2,17.3-12.6,17
			c-3.4-0.3-3.4-3.8-9.2-19c-0.3-0.6-0.6-1.1-0.8-1.1c-0.3,0-0.6,0.4-0.6,1l-2.7,28.3c-0.4,4.1-0.8,8.2-6.9,7.6l-5.1-0.5
			c-6.2-0.6-5.8-4.7-5.4-8.8l5.3-56.6c0.4-4.1,0.8-8.2,6.9-7.6l5.4,0.5c3.8,0.4,6.1,1.1,7.9,6.6l6,18.9c0.6,1.9,1.1,3,1.8,3.1
			c0.7,0.1,1.3-0.9,2.3-2.7L224.8,199.4z"/>
		<path class="st17" d="M268.5,238.6c-0.2,1.6,0.6,1.7,3.9,2c3.2,0.3,4,0.4,4.2-1.2c0-0.4,0.1-0.9,0.1-1.7
			c-0.3-10.2,0.5-22.7-1.8-22.9c-2.2-0.2-4,12.1-6,22.1C268.6,237.6,268.5,238.1,268.5,238.6z M295.8,268.7
			c-0.4,4.7-3.7,4.8-9.5,4.3l-5.4-0.5c-6.4-0.6-1.7-15.7-5.8-16.1l-8.2-0.8c-4.1-0.4-3.2,15.3-9.4,14.7l-4.8-0.5
			c-5.4-0.5-8.5-1.2-8-5.9c0.6-6.2,3.6-11.4,16.1-58.6c1.3-5.1,3.7-8,7.8-7.6l15.8,1.5c4.1,0.4,5.9,3.7,6.4,8.9
			C293.7,250.9,296.4,262.6,295.8,268.7z"/>
		<path class="st17" d="M328.9,227.9c0.4,0,5.1-13.2,8-19.6l0.3-0.5c1.5-3.3,1.5-3.5,10.1-2.7l1.3,0.1c4.7,0.4,6.7,0.6,6.4,3.7
			c-0.3,3.6-14.5,27.5-14.8,30.1c-0.3,2.7,10.1,32.7,9.7,36.8c-0.3,2.9-4.5,3-8.3,2.6c-2.2-0.2-4.1-0.6-5.1-0.7
			c-6.3-0.6-5.2-1.1-6.7-6.4l-3.7-20.3c-0.1-0.2-0.3-0.4-0.5-0.5c-0.2,0-0.4,0.2-0.6,0.4l-6.5,19.3c-2.4,5.5-2.8,5.5-9.5,4.9
			L306,275c-3.4-0.3-7-1.1-6.7-3.9c0.3-3.1,14.7-31.8,15-34.5c0.3-2.7-8-28.7-7.6-32.3c0.3-2.8,2.7-3,6.8-2.6
			c2.2,0.2,4.9,0.6,8.1,0.9c2.4,0.2,2.8,1.6,3.3,3.3c0,0.1,0.2,0.3,0.2,0.4s0.2,0.3,0.2,0.4c0,0.1,0.1,0.2,0.1,0.3
			c1.3,6.8,3.1,20,3.2,20.2C328.5,227.7,328.7,227.9,328.9,227.9z"/>
		<path class="st17" d="M372.6,272.9c-0.4,4.1-0.8,8.2-6.9,7.6l-5.1-0.5c-6.2-0.6-5.8-4.7-5.4-8.8l5.3-56.6c0.4-4.1,0.8-8.2,6.9-7.6
			l5.1,0.5c6.2,0.6,5.8,4.7,5.4,8.8L372.6,272.9z"/>
		<path class="st17" d="M424.1,218.2c2.8-5.1,5.2-5.3,8.9-5l5.6,0.5c6.2,0.6,5.8,4.7,5.4,8.8l-5.3,56.6c-0.4,4.1-0.8,8.2-6.9,7.6
			l-5.1-0.5c-6.2-0.6-5.8-4.7-5.4-8.8l2.7-28.3c0.1-0.6-0.1-1-0.4-1.1s-0.7,0.4-1,0.9c-8.7,13.8-9.2,17.3-12.6,17
			c-3.4-0.3-3.4-3.8-9.2-19c-0.3-0.6-0.6-1.1-0.8-1.1c-0.3,0-0.6,0.4-0.6,1l-2.7,28.3c-0.4,4.1-0.8,8.2-6.9,7.6l-5.1-0.5
			c-6.2-0.6-5.8-4.7-5.4-8.8l5.3-56.6c0.4-4.1,0.8-8.2,6.9-7.6l5.4,0.5c3.8,0.4,6.1,1.1,7.9,6.6l6,18.9c0.6,1.9,1.1,3,1.8,3.1
			c0.7,0.1,1.3-0.9,2.3-2.7L424.1,218.2z"/>
		<path class="st17" d="M491.1,271.3c-1.2,12.7-3.5,21.3-24.1,19.3c-21.7-2.1-22.4-10.9-21.1-24.3c3.1-32.5,4.2-43.2,4.2-43.2
			c0.4-4.1,0.8-8.2,6.9-7.6l5.1,0.5c6.2,0.6,5.8,4.7,5.4,8.8l-4.3,45.2c-0.3,3.1-0.5,5.7,5.1,6.2c4.6,0.4,4.9-2.1,5.2-5.2l4.3-45.3
			c0.4-4,0.8-8.1,6.9-7.5l5.1,0.5c6.2,0.6,5.8,4.7,5.4,8.7L491.1,271.3z"/>
		<path class="st17" d="M523.5,221.3c8.5,0.8,14.1,2.9,13.9,5.8l-0.7,7.9c-0.1,1.1-0.7,3-4.2,2.7l-0.8-0.1c-1.6-0.2-5.2-1.6-8.2-1.9
			c-2.5-0.2-4.5,0.4-4.8,3.7c-0.3,3.2,0.5,4.9,4.2,8.6c11.3,11.2,13.1,18.7,12.3,27c-0.4,4.7-1,9-4,12.8c-3.9,4.8-9.4,6.3-11.7,6.7
			c-2.8,0.5-6.8,0.5-10,0.2c-7.6-0.7-14.9-2.9-14.5-7l0.7-7.9c0.1-1.2,1.3-2.4,4-2.1c2.7,0.3,4.8,2,10.7,2.6c2.9,0.3,7-1.6,7.3-4.8
			c0.2-2.4,0.3-4.1-5.4-10.9c-8.7-10.3-12.8-15-12-23.4C502.1,220.8,515.3,220.5,523.5,221.3z"/>
		<path class="st17" d="M453.1,326c0.5-5.3-1.4-7.6-4.4-7.9c-3.8-0.4-6,1.3-6.6,6.8c-0.3,3,0.1,7.3,5.1,9.4
			C448.3,334.4,452.5,332,453.1,326z M466.7,349c1.8,3.2,2.3,7.5,1.9,11.9c-1.2,13-12.4,19.8-25.7,18.5c-13.4-1.3-23.2-7.9-21.8-23
			c1.1-11.2,11-15.8,11.1-16.8c0.1-0.9-8.4-5.3-7.2-18.4c0.4-4.7,3-8.9,6.3-11.9c5-4.4,12.6-4.5,18.5-4c11.9,1.1,21,7.4,19.8,19.6
			c-1.4,14.8-10.2,14.9-10.3,15.5C459.3,341.5,464.3,344.8,466.7,349z M439.4,357c-0.2,2.3,0.6,7.1,4.9,7.5c3.1,0.3,5.6-1.8,6-6.3
			c0.5-5.6-2.1-8.8-5.8-10.8C443.2,347.3,439.9,351.7,439.4,357z"/>
		<path class="st17" d="M484.2,317.5c0.4-4.1,0.8-8.2,6.9-7.6l23.8,2.2c4.3,0.4,5,2.7,4.6,7.7c-0.5,5.3-1.3,7.1-4.7,6.8
			c-2.1-0.2-4.7-0.7-5.8-0.8l-6.3-0.6c-4.8-0.5-4.9,0.8-5.3,4.6c-0.5,5.6-0.6,6.4,2.2,6.6c1.7,0.2,2.5-0.2,6.9,0.2
			c9.8,0.9,14.7,10.7,13.4,24.2c-1.3,13.8-10,24.9-26.3,23.3c-5.8-0.5-11.5-2.1-16.8-7.7c-2.4-2.5-4.3-4.7-4.2-6.3
			c0.1-1.1,0.7-2,1.6-2.7l3.3-2.6c3.6-2.9,4.4-3.3,5.3-3.3c0.8,0.1,1.3,0.5,2,1.4c3,4.1,5,5.2,8,5.5c5.8,0.5,8-4.3,8.4-9
			c0.4-4.3,0.7-10.3-7.9-11.1c-3.2-0.3-6,0.7-8.3,0.5c-2.1-0.2-3.6-1.5-3.4-3.5l2.5-26.6L484.2,317.5z"/>
	</g>
</g>
<g>
	<path class="st18" d="M133.5,371.4l-47.2-9.7c0,0-3.6-1.5-3.4-2.6l4.3-21.6c0.2-1.1,1.3-1.9,2.5-1.6l48.9,9.8
		c1.1,0.2,2.8,1.5,2.5,2.7l-5.3,21.4C135.7,370.9,134.6,371.6,133.5,371.4z"/>
	<g>
		<path class="st19" d="M127,350.7l-26.8-5.4c-2.3-0.5-4.5,1-4.9,3.3l-0.2,1c-0.5,2.3,1,4.5,3.3,4.9l26.8,5.4c2.3,0.5,4.5-1,4.9-3.3
			l0.2-1C130.7,353.4,129.2,351.2,127,350.7z"/>
		<path class="st5" d="M127.1,350.7l-26.8-5.4c-2.3-0.5-4.5,1-4.9,3.3l-0.2,1c-0.5,2.3,1,4.5,3.3,4.9l26.8,5.4
			c2.3,0.5,4.5-1,4.9-3.3l0.2-1C130.8,353.4,129.4,351.2,127.1,350.7z M99.5,353.8c-2-0.4-3.2-2.3-2.8-4.3c0.4-2,2.3-3.2,4.3-2.8
			c2,0.4,3.2,2.3,2.8,4.3C103.4,352.9,101.5,354.2,99.5,353.8z M118.6,357.6l-12.9-2.6l0.9-4.4l12.9,2.6L118.6,357.6z M125.1,358.9
			c-2-0.4-3.2-2.3-2.8-4.3c0.4-2,2.3-3.2,4.3-2.8c2,0.4,3.2,2.3,2.8,4.3C128.9,358.1,127,359.3,125.1,358.9z"/>
		<path class="st5" d="M134.3,359.3L134.3,359.3c0.1-0.2,0.2-0.4,0.2-0.5l0.3-0.5l-0.6-0.1l0.1,0.6
			C134.2,358.9,134.3,359.1,134.3,359.3z"/>
		<path class="st5" d="M132.3,359.9l3.5,0.7l0.7-3.7l-3.5-0.7L132.3,359.9L132.3,359.9z M134.1,356.9l0.1,0.7l0.8,0.2l0.3-0.7
			l0.6,0.1l-1.4,2.6l-0.8-0.2l-0.3-2.9L134.1,356.9L134.1,356.9z"/>
		<path class="st5" d="M88.1,326.8l-0.5,2.4l-1-0.2l-2.2,11.2l1,0.2l-4.6,22.7c-0.1,0.3,0.1,0.6,0.4,0.7l56.1,11.3
			c0.3,0.1,0.6-0.1,0.7-0.4l4.6-22.7l1.1,0.2l2.2-11.2l-1.2-0.2l0.5-2.4c0.1-0.3-0.1-0.6-0.4-0.7l-56.1-11.3
			C88.4,326.3,88.2,326.5,88.1,326.8z M86.3,361.2l-2-2.8l4.4-21.7l51.4,10.3l-4.4,21.7l-2.8,1.8L86.3,361.2L86.3,361.2z
			 M135.5,373.8c-0.7-0.1-1.1-0.8-0.9-1.4c0.1-0.7,0.8-1.1,1.4-0.9c0.7,0.1,1.1,0.8,0.9,1.4C136.8,373.5,136.2,373.9,135.5,373.8z
			 M142.6,338.6c0.7,0.1,1.1,0.8,0.9,1.4c-0.1,0.7-0.8,1.1-1.4,0.9c-0.7-0.1-1.1-0.8-0.9-1.4C141.3,338.9,141.9,338.5,142.6,338.6z
			 M130.3,335.7c0.8,0.2,1.4,1,1.2,1.8c-0.2,0.8-1,1.4-1.8,1.2c-0.8-0.2-1.4-1-1.2-1.8C128.7,336.1,129.5,335.5,130.3,335.7z
			 M123,336.4c0.1-0.3,0.4-0.5,0.7-0.4l0.9,0.2c0.3,0.1,0.5,0.4,0.4,0.7l-0.2,0.9c-0.1,0.3-0.4,0.5-0.7,0.4l-0.9-0.2
			c-0.3-0.1-0.5-0.4-0.4-0.7L123,336.4z M115.4,337.1c0.6,0.1,0.9,0.7,0.8,1.2c-0.1,0.6-0.7,0.9-1.2,0.8c-0.6-0.1-0.9-0.7-0.8-1.2
			C114.3,337.4,114.9,337,115.4,337.1z M106.5,333c0.1-0.3,0.4-0.5,0.7-0.4l0.9,0.2c0.3,0.1,0.5,0.4,0.4,0.7l-0.2,0.9
			c-0.1,0.3-0.4,0.5-0.7,0.4l-0.9-0.2c-0.3-0.1-0.5-0.4-0.4-0.7L106.5,333z M102.3,330c0.8,0.2,1.4,1,1.2,1.8
			c-0.2,0.8-1,1.4-1.8,1.2c-0.8-0.2-1.4-1-1.2-1.8C100.6,330.4,101.5,329.9,102.3,330z M90.5,327.8c0.7,0.1,1.1,0.8,0.9,1.4
			c-0.1,0.7-0.8,1.1-1.4,0.9c-0.7-0.1-1.1-0.8-0.9-1.4C89.2,328.1,89.8,327.7,90.5,327.8z M83.9,360.7c0.7,0.1,1.1,0.8,0.9,1.4
			c-0.1,0.7-0.8,1.1-1.4,0.9c-0.7-0.1-1.1-0.8-0.9-1.4C82.6,361,83.2,360.6,83.9,360.7z"/>
	</g>
</g>
<g>
	<path class="st20" d="M75.3,415l-27.7-19.2c-0.9-0.7-1.2-2-0.5-2.9l8.2-11.8c0.7-0.9,2-1.2,2.9-0.5l27.7,19.2
		c0.9,0.7,1.2,2,0.5,2.9l-8.2,11.8C77.6,415.4,76.3,415.7,75.3,415z"/>
	<g>
		<path class="st19" d="M77.5,399.7l-15.7-10.9c-1.3-0.9-3.2-0.6-4.1,0.7l-0.4,0.6c-0.9,1.3-0.6,3.2,0.7,4.1l15.7,10.9
			c1.3,0.9,3.2,0.6,4.1-0.7l0.4-0.6C79.2,402.5,78.9,400.6,77.5,399.7z"/>
		<path class="st6" d="M79.8,407.7L79.8,407.7c0.1-0.1,0.2-0.2,0.3-0.3l0.3-0.3l-0.4-0.2l-0.1,0.4C79.9,407.4,79.9,407.6,79.8,407.7
			z"/>
		<path class="st6" d="M78.4,407.5l2,1.4l1.5-2.2l-2-1.4L78.4,407.5L78.4,407.5z M80.4,406.1l-0.2,0.5l0.5,0.3l0.4-0.3l0.4,0.3
			l-1.6,1.3l-0.5-0.3l0.6-2L80.4,406.1L80.4,406.1z"/>
		<path class="st6" d="M59.2,373.9l-1,1.4l-0.6-0.4l-4.6,6.6l0.6,0.4l-9.2,13.3c-0.1,0.2-0.1,0.4,0.1,0.5l32.9,22.9
			c0.2,0.1,0.4,0.1,0.5-0.1l9.2-13.3l0.7,0.5l4.6-6.6l-0.7-0.5l1-1.4c0.1-0.2,0.1-0.4-0.1-0.5l-32.9-22.9
			C59.6,373.7,59.3,373.7,59.2,373.9z M48.5,395.6l-0.5-2.3l8.8-12.7l30.2,21l-8.8,12.7l-2.3,0.4L48.5,395.6L48.5,395.6z
			 M76.6,417.4c-0.4-0.3-0.5-0.8-0.2-1.2c0.3-0.4,0.8-0.5,1.2-0.2c0.4,0.3,0.5,0.8,0.2,1.2C77.5,417.5,77,417.6,76.6,417.4z
			 M91,396.7c0.4,0.3,0.5,0.8,0.2,1.2c-0.3,0.4-0.8,0.5-1.2,0.2c-0.4-0.3-0.5-0.8-0.2-1.2C90,396.5,90.6,396.4,91,396.7z
			 M83.9,391.4c0.5,0.3,0.6,1,0.3,1.5c-0.3,0.5-1,0.6-1.5,0.3c-0.5-0.3-0.6-1-0.3-1.5C82.7,391.2,83.4,391,83.9,391.4z M79,389.8
			c0.1-0.2,0.4-0.2,0.5-0.1L80,390c0.2,0.1,0.2,0.4,0.1,0.5l-0.4,0.5c-0.1,0.2-0.4,0.2-0.5,0.1l-0.5-0.4c-0.2-0.1-0.2-0.4-0.1-0.5
			L79,389.8z M73.9,388.2c0.3,0.2,0.4,0.7,0.2,1c-0.2,0.3-0.7,0.4-1,0.2c-0.3-0.2-0.4-0.7-0.2-1C73.1,388,73.6,387.9,73.9,388.2z
			 M69.3,383.1c0.1-0.2,0.4-0.2,0.5-0.1l0.5,0.4c0.2,0.1,0.2,0.4,0.1,0.5l-0.4,0.5c-0.1,0.2-0.4,0.2-0.5,0.1l-0.5-0.4
			c-0.2-0.1-0.2-0.4-0.1-0.5L69.3,383.1z M67.4,380c0.5,0.3,0.6,1,0.3,1.5c-0.3,0.5-1,0.6-1.5,0.3c-0.5-0.3-0.6-1-0.3-1.5
			C66.2,379.7,66.9,379.6,67.4,380z M60.4,375.3c0.4,0.3,0.5,0.8,0.2,1.2c-0.3,0.4-0.8,0.5-1.2,0.2c-0.4-0.3-0.5-0.8-0.2-1.2
			C59.5,375.1,60.1,375,60.4,375.3z M47,394.6c0.4,0.3,0.5,0.8,0.2,1.2c-0.3,0.4-0.8,0.5-1.2,0.2c-0.4-0.3-0.5-0.8-0.2-1.2
			S46.7,394.3,47,394.6z"/>
	</g>
</g>
<path class="st6" d="M77.4,399.8l-15.7-10.9c-1.3-0.9-3.2-0.6-4.1,0.7l-0.4,0.6c-0.9,1.3-0.6,3.2,0.7,4.1l15.7,10.9
	c1.3,0.9,3.2,0.6,4.1-0.7l0.4-0.6C79.1,402.5,78.7,400.7,77.4,399.8z M58.8,394.1c-1.2-0.8-1.4-2.4-0.6-3.5c0.8-1.2,2.4-1.4,3.5-0.6
	c1.2,0.8,1.4,2.4,0.6,3.5C61.5,394.6,60,394.9,58.8,394.1z M70,401.8l-7.6-5.3l1.8-2.6l7.6,5.3L70,401.8z M73.8,404.5
	c-1.2-0.8-1.4-2.4-0.6-3.5c0.8-1.2,2.4-1.4,3.5-0.6c1.2,0.8,1.4,2.4,0.6,3.5C76.5,405,75,405.3,73.8,404.5z"/>
</svg>
