<?xml version="1.0" encoding="utf-8"?>
<!-- Generator: Adobe Illustrator 24.1.0, SVG Export Plug-In . SVG Version: 6.00 Build 0)  -->
<svg version="1.1" id="Layer_1" xmlns="http://www.w3.org/2000/svg" xmlns:xlink="http://www.w3.org/1999/xlink" x="0px" y="0px"
	 viewBox="0 0 200 200" style="enable-background:new 0 0 200 200;" xml:space="preserve">
<style type="text/css">
	.st0{fill:#9699CC;}
	.st1{opacity:0.08;fill:#2D3235;enable-background:new    ;}
	.st2{fill:#FFFFFF;}
	.st3{fill:#444780;}
	.st4{enable-background:new    ;}
</style>
<g>
	<path class="st0" d="M137.59,137.46l-92.92-19.01c0,0-7.09-2.94-6.64-5.17l8.56-42.63c0.45-2.22,2.61-3.66,4.83-3.22l96.34,19.35
		c2.22,0.45,5.47,3.05,5.02,5.27l-10.36,42.19C141.97,136.47,139.81,137.9,137.59,137.46z"/>
	<g>
		<path class="st1" d="M52.27,56.24l-0.96,4.82l-1.88-0.38l-4.43,22.05l1.88,0.38l-8.96,44.65c-0.12,0.6,0.26,1.17,0.86,1.29
			l110.43,22.18c0.6,0.12,1.17-0.26,1.3-0.86l8.96-44.65l2.26,0.46l4.43-22.05l-2.27-0.46l0.96-4.82c0.12-0.6-0.27-1.17-0.86-1.29
			L53.55,55.37C52.97,55.25,52.39,55.64,52.27,56.24z M159.62,79.45c1.29,0.26,2.12,1.52,1.87,2.79c-0.26,1.29-1.51,2.12-2.79,1.87
			c-1.29-0.26-2.12-1.51-1.87-2.79C157.08,80.02,158.33,79.19,159.62,79.45z M135.5,73.72c1.67,0.33,2.75,1.96,2.42,3.64
			c-0.33,1.66-1.96,2.75-3.64,2.42c-1.67-0.33-2.75-1.96-2.42-3.63C132.2,74.46,133.83,73.38,135.5,73.72z M120.96,75.06
			c0.12-0.6,0.7-0.98,1.3-0.86l1.77,0.36c0.6,0.12,0.98,0.7,0.86,1.29l-0.36,1.78c-0.12,0.6-0.7,0.98-1.3,0.86l-1.77-0.36
			c-0.6-0.12-0.98-0.7-0.86-1.3L120.96,75.06z M106.11,76.54c1.12,0.23,1.83,1.31,1.61,2.42c-0.23,1.11-1.31,1.84-2.42,1.61
			c-1.11-0.22-1.83-1.31-1.61-2.42C103.91,77.04,104.99,76.31,106.11,76.54z M88.51,68.55c0.12-0.6,0.7-0.98,1.29-0.86l1.77,0.36
			c0.6,0.12,0.98,0.7,0.86,1.29l-0.36,1.77c-0.12,0.6-0.7,0.98-1.29,0.86l-1.77-0.36c-0.6-0.12-0.98-0.7-0.86-1.3L88.51,68.55z
			 M80.27,62.62c1.67,0.33,2.75,1.96,2.42,3.64c-0.33,1.66-1.96,2.75-3.63,2.42c-1.67-0.33-2.76-1.96-2.42-3.64
			C76.97,63.38,78.59,62.29,80.27,62.62z M56.98,58.29c1.29,0.26,2.12,1.52,1.87,2.79c-0.26,1.29-1.51,2.12-2.79,1.87
			c-1.29-0.26-2.12-1.51-1.87-2.79C54.44,58.86,55.7,58.03,56.98,58.29z"/>
		<path class="st2" d="M123.86,96.93L72.9,86.7c-4.31-0.87-8.5,1.93-9.37,6.23l-0.37,1.82c-0.87,4.31,1.93,8.5,6.23,9.37
			l50.97,10.23c4.31,0.87,8.5-1.93,9.37-6.23l0.37-1.82C130.96,101.99,128.18,97.8,123.86,96.93z"/>
		<path class="st3" d="M125.07,96.78L72.35,86.19c-4.45-0.89-8.8,1.99-9.69,6.45l-0.38,1.88c-0.89,4.45,1.99,8.8,6.45,9.69
			l52.72,10.58c4.46,0.89,8.8-1.99,9.69-6.45l0.38-1.88C132.41,102.01,129.52,97.67,125.07,96.78z M70.75,102.85
			c-3.86-0.77-6.37-4.54-5.59-8.4c0.78-3.86,4.54-6.36,8.4-5.59c3.86,0.77,6.37,4.53,5.59,8.39
			C78.37,101.12,74.62,103.62,70.75,102.85z M108.34,110.39l-25.42-5.11l1.73-8.65l25.42,5.11L108.34,110.39z M121.07,112.95
			c-3.86-0.77-6.36-4.54-5.59-8.4c0.77-3.86,4.53-6.36,8.39-5.59c3.86,0.77,6.36,4.53,5.59,8.39
			C128.69,111.22,124.93,113.72,121.07,112.95z"/>
		<path class="st3" d="M139.18,113.67h0.02c0.14-0.31,0.31-0.69,0.46-0.99l0.54-1.08l-1.19-0.24l0.11,1.21
			C139.14,112.91,139.16,113.33,139.18,113.67z"/>
		<path class="st3" d="M135.31,114.85l6.86,1.38l1.47-7.31l-6.86-1.38L135.31,114.85L135.31,114.85z M138.87,108.95l0.14,1.46
			l1.54,0.31l0.67-1.31l1.25,0.25l-2.72,5.06l-1.59-0.32l-0.6-5.71L138.87,108.95L138.87,108.95z"/>
		<path class="st3" d="M146.45,143.77l8.97-44.65l2.26,0.46l4.43-22.05l-2.27-0.46l0.96-4.82c0.12-0.6-0.27-1.17-0.86-1.29
			L49.52,48.78c-0.6-0.12-1.17,0.27-1.29,0.86l-0.96,4.82l-1.88-0.38l-4.43,22.05l1.88,0.38l-8.96,44.65
			c-0.12,0.6,0.26,1.17,0.86,1.29 M44.79,117.39l-3.93-5.47l8.57-42.68l101.31,20.34l-8.57,42.68l-5.56,3.56L44.79,117.39
			L44.79,117.39z M141.65,142.25c-1.29-0.26-2.12-1.52-1.87-2.79c0.26-1.29,1.51-2.12,2.79-1.87c1.29,0.26,2.12,1.51,1.87,2.79
			C144.19,141.67,142.94,142.5,141.65,142.25z M155.59,72.85c1.29,0.26,2.12,1.52,1.87,2.79c-0.26,1.29-1.51,2.12-2.79,1.87
			c-1.29-0.26-2.12-1.51-1.87-2.79C153.05,73.43,154.3,72.59,155.59,72.85z M131.47,67.12c1.67,0.33,2.75,1.96,2.42,3.64
			c-0.33,1.66-1.96,2.75-3.64,2.42c-1.67-0.33-2.75-1.96-2.42-3.63C128.17,67.86,129.8,66.78,131.47,67.12z M116.93,68.47
			c0.12-0.6,0.7-0.98,1.3-0.86l1.77,0.36c0.6,0.12,0.98,0.7,0.86,1.29l-0.36,1.77c-0.12,0.6-0.7,0.98-1.3,0.86l-1.77-0.36
			c-0.6-0.12-0.98-0.7-0.86-1.3L116.93,68.47z M102.07,69.94c1.12,0.23,1.83,1.31,1.61,2.42c-0.23,1.11-1.31,1.84-2.42,1.61
			c-1.11-0.22-1.83-1.31-1.61-2.42C99.88,70.44,100.96,69.71,102.07,69.94z M84.48,61.95c0.12-0.6,0.7-0.98,1.29-0.86l1.78,0.36
			c0.6,0.12,0.98,0.7,0.86,1.29l-0.36,1.77c-0.12,0.6-0.7,0.98-1.29,0.86l-1.77-0.36c-0.6-0.12-0.98-0.7-0.86-1.3L84.48,61.95z
			 M76.24,56.03c1.67,0.33,2.75,1.96,2.42,3.64c-0.33,1.66-1.96,2.75-3.63,2.42c-1.67-0.33-2.76-1.96-2.42-3.64
			C72.94,56.78,74.56,55.69,76.24,56.03z M52.95,51.69c1.29,0.26,2.12,1.52,1.87,2.79c-0.26,1.29-1.51,2.12-2.79,1.87
			c-1.29-0.26-2.12-1.51-1.87-2.79S51.66,51.43,52.95,51.69z M39.96,116.42c1.29,0.26,2.12,1.51,1.87,2.79
			c-0.26,1.29-1.51,2.12-2.79,1.87c-1.29-0.26-2.12-1.52-1.87-2.79C37.41,117,38.67,116.16,39.96,116.42z"/>
	</g>
</g>
<g class="st4">
	<path class="st3" d="M77.83,176.06c0.3,0,0.46,0.14,0.46,0.38v1.06c0,0.12,0,0.3-0.46,0.3c-0.24,0-0.25-0.02-0.38-0.02
		c-1.14,0-1.14,2.08-1.14,2.51c0,0.41,0.01,2.64,1.09,2.64c0.16,0,0.16-0.02,0.43-0.02c0.46,0,0.46,0.43,0.46,0.55v0.8
		c0,0.3-0.16,0.44-0.46,0.44c-1.7,0-3.68-0.78-3.68-4.44C74.15,176.84,76.12,176.06,77.83,176.06z"/>
	<path class="st3" d="M85.47,184.04c0,0.55-0.37,0.6-1.06,0.6h-0.64c-0.74,0-0.37-1.8-0.85-1.8h-0.96c-0.48,0-0.2,1.8-0.92,1.8
		h-0.56c-0.62,0-1-0.05-1-0.6c0-0.72,0.29-1.36,1.22-6.96c0.1-0.6,0.34-0.96,0.82-0.96h1.85c0.48,0,0.72,0.36,0.84,0.96
		C85.03,182,85.47,183.32,85.47,184.04z M81.98,180.84c0,0.19,0.08,0.19,0.47,0.19c0.37,0,0.47,0,0.47-0.18c0-0.05,0-0.11-0.01-0.19
		c-0.14-1.18-0.19-2.63-0.46-2.63c-0.25,0-0.34,1.44-0.46,2.63C81.98,180.74,81.98,180.8,81.98,180.84z"/>
	<path class="st3" d="M89.22,176.06c1,0,1.67,0.18,1.67,0.52v0.92c0,0.13-0.05,0.36-0.46,0.36h-0.1c-0.19,0-0.62-0.13-0.97-0.13
		c-0.29,0-0.52,0.1-0.52,0.48c0,0.37,0.11,0.56,0.58,0.95c1.43,1.18,1.71,2.02,1.71,2.99c0,0.55-0.01,1.05-0.32,1.52
		c-0.4,0.6-1.02,0.83-1.28,0.9c-0.32,0.08-0.78,0.13-1.15,0.13c-0.89,0-1.75-0.17-1.75-0.65v-0.92c0-0.14,0.12-0.29,0.44-0.29
		c0.31,0,0.58,0.18,1.26,0.18c0.34,0,0.79-0.26,0.79-0.64c0-0.28-0.01-0.48-0.74-1.2c-1.12-1.09-1.64-1.59-1.64-2.58
		C86.73,176.24,88.26,176.06,89.22,176.06z"/>
	<path class="st3" d="M94.87,176.06c1,0,1.67,0.18,1.67,0.52v0.92c0,0.13-0.05,0.36-0.46,0.36h-0.1c-0.19,0-0.62-0.13-0.97-0.13
		c-0.29,0-0.52,0.1-0.52,0.48c0,0.37,0.11,0.56,0.58,0.95c1.43,1.18,1.71,2.02,1.71,2.99c0,0.55-0.01,1.05-0.32,1.52
		c-0.4,0.6-1.02,0.83-1.28,0.9c-0.32,0.08-0.78,0.13-1.15,0.13c-0.89,0-1.75-0.17-1.75-0.65v-0.92c0-0.14,0.12-0.29,0.44-0.29
		c0.31,0,0.58,0.18,1.26,0.18c0.34,0,0.79-0.26,0.79-0.64c0-0.28-0.01-0.48-0.74-1.2c-1.12-1.09-1.64-1.59-1.64-2.58
		C92.39,176.24,93.91,176.06,94.87,176.06z"/>
	<path class="st3" d="M100.06,182.44c0.02,0.26,0.26,0.4,0.5,0.4c0.68,0,0.91-0.02,1.16-0.02c0.5,0,0.66,0.14,0.66,0.5v0.84
		c0,0.36-0.12,0.48-0.48,0.48h-3.17c-0.72,0-0.72-0.72-0.72-0.96v-6.6c0-0.48,0-0.96,0.72-0.96h3.09c0.3,0,0.56,0.12,0.56,0.36v1.02
		c0,0.29-0.24,0.3-0.54,0.3c-0.47,0-0.84-0.02-1.14-0.02c-0.66,0-0.66,0.24-0.66,0.62c0,0.78,0,0.98,0.6,0.98
		c0.74,0,0.86-0.02,1.14-0.02c0.42,0,0.44,0.42,0.44,0.55v0.77c0,0.36-0.25,0.38-0.55,0.38c-0.61,0-0.99-0.02-1.25-0.02
		c-0.38,0-0.38,0.17-0.38,0.56V182.44z"/>
	<path class="st3" d="M106.86,183.76c-0.02,0.46-0.05,0.88-0.72,0.88h-0.6c-0.72,0-0.72-0.48-0.72-0.96v-5.48
		c0-0.3-0.06-0.37-0.31-0.37c-0.08,0-0.2,0.01-0.35,0.01c-0.3,0-0.54-0.05-0.54-0.34v-1.02c0-0.24,0.26-0.36,0.56-0.36h3.31
		c0.3,0,0.56,0.12,0.56,0.36v1.02c0,0.29-0.24,0.34-0.54,0.34c-0.08,0-0.19-0.01-0.34-0.01c-0.3,0-0.32,0.07-0.32,0.37V183.76z"/>
	<path class="st3" d="M112.42,183.76c-0.02,0.46-0.05,0.88-0.72,0.88h-0.6c-0.72,0-0.72-0.48-0.72-0.96v-5.48
		c0-0.3-0.06-0.37-0.31-0.37c-0.08,0-0.2,0.01-0.35,0.01c-0.3,0-0.54-0.05-0.54-0.34v-1.02c0-0.24,0.26-0.36,0.56-0.36h3.31
		c0.3,0,0.56,0.12,0.56,0.36v1.02c0,0.29-0.24,0.34-0.54,0.34c-0.08,0-0.19-0.01-0.33-0.01c-0.3,0-0.32,0.07-0.32,0.37V183.76z"/>
	<path class="st3" d="M116.89,182.44c0.02,0.26,0.26,0.4,0.5,0.4c0.68,0,0.91-0.02,1.16-0.02c0.5,0,0.66,0.14,0.66,0.5v0.84
		c0,0.36-0.12,0.48-0.48,0.48h-3.17c-0.72,0-0.72-0.72-0.72-0.96v-6.6c0-0.48,0-0.96,0.72-0.96h3.09c0.3,0,0.56,0.12,0.56,0.36v1.02
		c0,0.29-0.24,0.3-0.54,0.3c-0.47,0-0.84-0.02-1.14-0.02c-0.66,0-0.66,0.24-0.66,0.62c0,0.78,0,0.98,0.6,0.98
		c0.74,0,0.86-0.02,1.14-0.02c0.42,0,0.44,0.42,0.44,0.55v0.77c0,0.36-0.25,0.38-0.55,0.38c-0.61,0-1-0.02-1.25-0.02
		c-0.38,0-0.38,0.17-0.38,0.56V182.44z"/>
	<path class="st3" d="M123.03,176.06c1,0,1.67,0.18,1.67,0.52v0.92c0,0.13-0.05,0.36-0.46,0.36h-0.1c-0.19,0-0.62-0.13-0.97-0.13
		c-0.29,0-0.52,0.1-0.52,0.48c0,0.37,0.11,0.56,0.58,0.95c1.43,1.18,1.71,2.02,1.71,2.99c0,0.55-0.01,1.05-0.32,1.52
		c-0.4,0.6-1.02,0.83-1.28,0.9c-0.32,0.08-0.78,0.13-1.15,0.13c-0.89,0-1.75-0.17-1.75-0.65v-0.92c0-0.14,0.12-0.29,0.44-0.29
		c0.31,0,0.58,0.18,1.26,0.18c0.34,0,0.79-0.26,0.79-0.64c0-0.28-0.01-0.48-0.74-1.2c-1.12-1.09-1.64-1.59-1.64-2.58
		C120.55,176.24,122.07,176.06,123.03,176.06z"/>
</g>
</svg>
