<?xml version="1.0" encoding="utf-8"?>
<!-- Generator: Adobe Illustrator 24.1.0, SVG Export Plug-In . SVG Version: 6.00 Build 0)  -->
<svg version="1.1" id="Layer_1" xmlns="http://www.w3.org/2000/svg" xmlns:xlink="http://www.w3.org/1999/xlink" x="0px" y="0px"
	 viewBox="0 0 600 600" style="enable-background:new 0 0 600 600;" xml:space="preserve">
<style type="text/css">
	.st0{fill:#9699CC;}
	.st1{opacity:0.25;fill:#2D3235;enable-background:new    ;}
	.st2{fill:#FFFFFF;}
	.st3{fill:#444780;}
</style>
<g>
	<path class="st0" d="M457.09,456.54L68.77,377.08c0,0-29.61-12.31-27.75-21.59L76.8,177.35c1.86-9.28,10.9-15.3,20.18-13.43
		l402.63,80.86c9.28,1.86,22.85,12.75,20.99,22.04l-43.32,176.29C475.41,452.39,466.37,458.4,457.09,456.54z"/>
	<g>
		<path class="st1" d="M100.52,117.1l-4.05,20.14l-7.86-1.58l-18.51,92.18l7.86,1.58L40.49,416c-0.5,2.48,1.11,4.9,3.6,5.4
			l461.5,92.68c2.48,0.5,4.91-1.11,5.41-3.6l37.47-186.59l9.46,1.9l18.51-92.18l-9.47-1.9l4.05-20.14c0.5-2.47-1.12-4.9-3.6-5.4
			l-461.5-92.68C103.44,113,101.02,114.62,100.52,117.1z M549.17,214.12c5.38,1.08,8.86,6.32,7.78,11.7
			c-1.08,5.39-6.31,8.86-11.7,7.78c-5.39-1.08-8.87-6.31-7.78-11.7C538.56,216.52,543.78,213.03,549.17,214.12z M448.35,190.16
			c6.98,1.4,11.51,8.2,10.1,15.2c-1.4,6.97-8.21,11.5-15.19,10.09c-6.98-1.4-11.51-8.21-10.11-15.18
			C434.57,193.28,441.36,188.76,448.35,190.16z M387.62,195.81c0.5-2.48,2.91-4.08,5.41-3.59l7.39,1.49c2.49,0.5,4.1,2.91,3.6,5.4
			l-1.49,7.4c-0.5,2.48-2.92,4.1-5.41,3.6l-7.39-1.49c-2.49-0.5-4.09-2.92-3.6-5.42L387.62,195.81z M325.54,201.94
			c4.67,0.94,7.67,5.47,6.74,10.12c-0.94,4.66-5.47,7.68-10.12,6.74c-4.65-0.93-7.67-5.46-6.73-10.12
			C316.35,204.03,320.89,201.01,325.54,201.94z M252,168.57c0.5-2.48,2.91-4.08,5.4-3.59l7.41,1.49c2.47,0.5,4.08,2.91,3.59,5.4
			l-1.49,7.4c-0.5,2.48-2.92,4.1-5.4,3.6l-7.41-1.49c-2.48-0.5-4.08-2.92-3.59-5.41L252,168.57z M217.56,143.82
			c6.99,1.4,11.5,8.2,10.09,15.2c-1.4,6.97-8.19,11.5-15.18,10.1c-6.99-1.4-11.52-8.21-10.12-15.19
			C203.77,146.93,210.56,142.41,217.56,143.82z M120.24,125.69c5.39,1.08,8.86,6.32,7.78,11.7c-1.08,5.39-6.31,8.87-11.7,7.78
			c-5.38-1.08-8.88-6.31-7.79-11.7C109.61,128.09,114.86,124.6,120.24,125.69z"/>
		<path class="st2" d="M399.74,287.18l-212.97-42.77c-18-3.61-35.52,8.04-39.14,26.05l-1.53,7.61c-3.61,18,8.04,35.52,26.04,39.14
			l212.97,42.77c18.01,3.61,35.53-8.04,39.15-26.05l1.53-7.61C429.39,308.31,417.74,290.79,399.74,287.18z"/>
		<path class="st3" d="M404.75,286.53l-220.31-44.24c-18.62-3.74-36.75,8.32-40.49,26.95l-1.58,7.87
			c-3.74,18.62,8.32,36.75,26.94,40.49l220.31,44.24c18.63,3.74,36.76-8.32,40.49-26.95l1.58-7.87
			C435.44,308.38,423.38,290.26,404.75,286.53z M177.78,311.88c-16.14-3.24-26.6-18.96-23.36-35.1
			c3.24-16.13,18.95-26.59,35.1-23.35c16.13,3.24,26.6,18.94,23.36,35.09C209.63,304.67,193.91,315.12,177.78,311.88z
			 M334.85,343.42l-106.21-21.33l7.26-36.15l106.21,21.33L334.85,343.42z M388.06,354.11c-16.14-3.24-26.59-18.96-23.35-35.1
			c3.24-16.13,18.94-26.59,35.09-23.35c16.13,3.24,26.59,18.94,23.35,35.09C419.91,346.9,404.2,357.35,388.06,354.11z"/>
		<path class="st3" d="M463.74,357.11l0.07,0.01c0.59-1.27,1.27-2.9,1.91-4.12l2.28-4.51l-4.98-1l0.44,5.05
			C463.61,353.96,463.66,355.7,463.74,357.11z"/>
		<path class="st3" d="M447.57,362.08l28.66,5.75l6.14-30.54l-28.66-5.75L447.57,362.08L447.57,362.08z M462.47,337.41l0.58,6.13
			l6.43,1.29l2.77-5.45l5.23,1.05l-11.36,21.11l-6.66-1.34l-2.49-23.89L462.47,337.41L462.47,337.41z"/>
		<path class="st3" d="M494.14,482.91l37.47-186.59l9.46,1.9l18.51-92.18l-9.47-1.9l4.05-20.14c0.5-2.47-1.12-4.9-3.6-5.4
			L89.06,85.93c-2.47-0.5-4.89,1.12-5.39,3.6l-4.05,20.14l-7.86-1.58l-18.51,92.18l7.86,1.58L23.65,388.42
			c-0.5,2.48,1.11,4.9,3.6,5.4 M69.29,372.69l-16.45-22.85l35.82-178.34l423.37,85.03l-35.82,178.35l-23.26,14.88L69.29,372.69
			L69.29,372.69z M474.07,476.55c-5.39-1.08-8.86-6.32-7.78-11.7c1.08-5.38,6.3-8.87,11.7-7.78c5.38,1.08,8.86,6.31,7.78,11.7
			C484.7,474.15,479.46,477.63,474.07,476.55z M532.31,186.54c5.38,1.08,8.86,6.32,7.78,11.7c-1.08,5.39-6.31,8.86-11.7,7.78
			c-5.39-1.08-8.87-6.31-7.78-11.7C521.7,188.95,526.94,185.46,532.31,186.54z M431.51,162.6c6.98,1.4,11.51,8.2,10.1,15.2
			c-1.4,6.97-8.21,11.5-15.19,10.09c-6.98-1.4-11.51-8.21-10.11-15.18C417.72,165.71,424.51,161.19,431.51,162.6z M370.78,168.23
			c0.5-2.48,2.91-4.08,5.41-3.59l7.39,1.49c2.49,0.5,4.1,2.91,3.6,5.4l-1.49,7.4c-0.5,2.48-2.92,4.1-5.41,3.6l-7.39-1.49
			c-2.49-0.5-4.09-2.92-3.6-5.42L370.78,168.23z M308.69,174.37c4.67,0.94,7.67,5.47,6.74,10.12c-0.94,4.66-5.47,7.68-10.12,6.74
			c-4.65-0.93-7.67-5.46-6.73-10.12C299.51,176.46,304.04,173.44,308.69,174.37z M235.15,141c0.5-2.48,2.91-4.08,5.4-3.59l7.41,1.49
			c2.47,0.5,4.08,2.91,3.59,5.4l-1.49,7.4c-0.5,2.48-2.92,4.1-5.4,3.6l-7.41-1.49c-2.48-0.5-4.08-2.92-3.59-5.41L235.15,141z
			 M200.71,116.24c6.99,1.4,11.5,8.2,10.09,15.2c-1.4,6.97-8.19,11.5-15.18,10.1c-6.99-1.4-11.52-8.21-10.12-15.19
			C186.92,119.36,193.72,114.84,200.71,116.24z M103.39,98.12c5.39,1.08,8.86,6.32,7.78,11.7c-1.08,5.39-6.31,8.87-11.7,7.78
			c-5.38-1.08-8.88-6.31-7.79-11.7C92.77,100.52,98.01,97.03,103.39,98.12z M49.06,368.63c5.39,1.08,8.86,6.31,7.78,11.7
			c-1.08,5.38-6.31,8.87-11.7,7.78c-5.38-1.08-8.87-6.32-7.79-11.7C38.44,371.03,43.68,367.55,49.06,368.63z"/>
	</g>
</g>
</svg>
