<?xml version="1.0" encoding="utf-8"?>
<!-- Generator: Adobe Illustrator 24.1.0, SVG Export Plug-In . SVG Version: 6.00 Build 0)  -->
<svg version="1.1" id="Layer_1" xmlns="http://www.w3.org/2000/svg" xmlns:xlink="http://www.w3.org/1999/xlink" x="0px" y="0px"
	 viewBox="0 0 600 600" style="enable-background:new 0 0 600 600;" xml:space="preserve">
<style type="text/css">
	.st0{opacity:0.19;fill:#2D3235;}
	.st1{fill:#F1EBE5;}
	.st2{fill:#E1DBD5;}
	.st3{fill:#CEC4BC;}
</style>
<g>
	<path class="st0" d="M311.42,141.07c-94.29,0-171,76.71-171,171s76.71,171,171,171s171-76.71,171-171S405.71,141.07,311.42,141.07z
		 M317.39,330.8c-0.21,0.07-0.43,0.12-0.65,0.18c-0.35,0.1-0.7,0.19-1.06,0.27c-0.23,0.05-0.47,0.1-0.71,0.14
		c-0.38,0.07-0.75,0.13-1.14,0.17c-0.2,0.03-0.41,0.05-0.61,0.07c-0.59,0.05-1.19,0.09-1.8,0.09c-0.62,0-1.23-0.04-1.84-0.09
		c-0.19-0.02-0.38-0.05-0.57-0.07c-0.42-0.05-0.83-0.11-1.23-0.19c-0.21-0.04-0.43-0.08-0.64-0.13c-0.39-0.09-0.77-0.19-1.15-0.3
		c-0.2-0.06-0.4-0.11-0.59-0.17c-0.49-0.16-0.96-0.33-1.43-0.52c-0.18-0.08-0.37-0.16-0.55-0.24c-0.39-0.17-0.78-0.36-1.15-0.56
		c-0.23-0.12-0.46-0.26-0.69-0.39c-0.26-0.15-0.51-0.3-0.76-0.46c-0.25-0.16-0.49-0.32-0.73-0.49c-0.21-0.15-0.42-0.31-0.62-0.46
		c-0.25-0.19-0.51-0.39-0.75-0.59c-0.13-0.11-0.25-0.23-0.38-0.34c-0.57-0.51-1.1-1.04-1.61-1.61c-0.07-0.08-0.15-0.16-0.22-0.24
		c-0.26-0.3-0.51-0.62-0.75-0.94c-0.09-0.11-0.17-0.23-0.26-0.35c-0.24-0.33-0.47-0.67-0.69-1.01c-0.06-0.09-0.11-0.19-0.17-0.28
		c-0.75-1.23-1.37-2.55-1.84-3.94l0,0c-0.66-1.97-1.04-4.08-1.04-6.27c0-5.43,2.2-10.34,5.76-13.9c1.33-1.33,2.86-2.48,4.53-3.39
		c0.56-0.3,1.13-0.58,1.72-0.83c2.35-0.99,4.94-1.54,7.65-1.54c6.79,0,12.77,3.44,16.3,8.67c2.12,3.14,3.36,6.92,3.36,10.99
		c0,4.07-1.24,7.85-3.36,10.99C325.27,326.69,321.64,329.44,317.39,330.8z"/>
	<g>
		<path class="st1" d="M288.58,119.96c-92.77,0-167.98,75.21-167.98,167.98c0,92.77,75.21,167.98,167.98,167.98
			c92.77,0,167.98-75.21,167.98-167.98C456.55,195.16,381.35,119.96,288.58,119.96z M288.58,307.59c-10.86,0-19.66-8.8-19.66-19.66
			c0-10.86,8.8-19.66,19.66-19.66c10.86,0,19.66,8.8,19.66,19.66C308.24,298.79,299.43,307.59,288.58,307.59z"/>
		<path class="st2" d="M332.16,125.7l-33.62,125.08l16.84,9.85l90.69-92.71C385.76,148.04,360.44,133.28,332.16,125.7z"/>
		<path class="st2" d="M254.85,452.52l39.7-145.85c-1.88,0.6-3.89,0.93-5.97,0.93c-8.66,0-16-5.61-18.62-13.39L164.59,401.24
			C188.07,426.93,219.43,445.3,254.85,452.52z"/>
		<path class="st3" d="M288.58,230.11c-31.94,0-57.83,25.89-57.83,57.83c0,31.94,25.89,57.83,57.83,57.83s57.83-25.89,57.83-57.83
			C346.4,256,320.51,230.11,288.58,230.11z M288.58,307.59c-10.86,0-19.66-8.8-19.66-19.66c0-10.86,8.8-19.66,19.66-19.66
			c10.86,0,19.66,8.8,19.66,19.66C308.24,298.79,299.43,307.59,288.58,307.59z"/>
		<path class="st1" d="M288.58,237.28c-27.98,0-50.66,22.68-50.66,50.66c0,27.98,22.68,50.66,50.66,50.66
			c27.98,0,50.66-22.68,50.66-50.66C339.23,259.96,316.55,237.28,288.58,237.28z M288.58,307.59c-10.86,0-19.66-8.8-19.66-19.66
			c0-10.86,8.8-19.66,19.66-19.66c10.86,0,19.66,8.8,19.66,19.66C308.24,298.79,299.43,307.59,288.58,307.59z"/>
		<path class="st3" d="M288.58,116.93c-94.29,0-171,76.71-171,171s76.71,171,171,171s171-76.71,171-171S382.87,116.93,288.58,116.93
			z M288.58,452.88c-90.95,0-164.95-74-164.95-164.95s74-164.95,164.95-164.95s164.95,74,164.95,164.95S379.53,452.88,288.58,452.88
			z"/>
	</g>
</g>
</svg>
