<?xml version="1.0" encoding="utf-8"?>
<!-- Generator: Adobe Illustrator 24.1.0, SVG Export Plug-In . SVG Version: 6.00 Build 0)  -->
<svg version="1.1" id="Layer_1" xmlns="http://www.w3.org/2000/svg" xmlns:xlink="http://www.w3.org/1999/xlink" x="0px" y="0px"
	 viewBox="0 0 200 200" style="enable-background:new 0 0 200 200;" xml:space="preserve">
<style type="text/css">
	.st0{fill:#B5792A;}
	.st1{opacity:0.08;fill:#2D3135;}
	.st2{fill:#CC8B2E;}
	.st3{opacity:0.34;fill:#DFCBB2;}
	.st4{fill:#DFCBB2;}
</style>
<g>
	<path class="st0" d="M94.91,176.06c0.3,0,0.46,0.14,0.46,0.38v1.06c0,0.12,0,0.3-0.46,0.3c-0.24,0-0.25-0.02-0.38-0.02
		c-1.14,0-1.14,2.08-1.14,2.51c0,0.41,0.01,2.64,1.09,2.64c0.16,0,0.16-0.02,0.43-0.02c0.46,0,0.46,0.43,0.46,0.55v0.8
		c0,0.3-0.16,0.44-0.46,0.44c-1.7,0-3.68-0.78-3.68-4.44C91.23,176.84,93.21,176.06,94.91,176.06z"/>
	<path class="st0" d="M99.17,176.12c2.64,0,3,1.68,3,4.26c0,2.46-0.24,4.26-3,4.26h-1.8c-0.72,0-0.72-0.48-0.72-0.96v-6.6
		c0-0.48,0-0.96,0.72-0.96H99.17z M98.68,178.11c0,1.36,0.01,2.83,0.01,4.25c0,0.31,0.02,0.6,0.24,0.6c0.9,0,0.96-0.72,0.96-2.64
		c0-1.68-0.06-2.58-0.96-2.58C98.71,177.74,98.68,177.86,98.68,178.11z"/>
	<path class="st0" d="M105.95,176.06c1,0,1.67,0.18,1.67,0.52v0.92c0,0.13-0.05,0.36-0.46,0.36h-0.1c-0.19,0-0.62-0.13-0.97-0.13
		c-0.29,0-0.52,0.1-0.52,0.48c0,0.37,0.11,0.56,0.58,0.95c1.43,1.18,1.71,2.02,1.71,2.99c0,0.55-0.01,1.06-0.32,1.52
		c-0.4,0.6-1.02,0.83-1.28,0.9c-0.32,0.08-0.78,0.13-1.15,0.13c-0.89,0-1.75-0.17-1.75-0.65v-0.92c0-0.14,0.12-0.29,0.44-0.29
		c0.31,0,0.58,0.18,1.26,0.18c0.34,0,0.79-0.26,0.79-0.64c0-0.28-0.01-0.48-0.74-1.2c-1.12-1.09-1.64-1.59-1.64-2.58
		C103.47,176.24,104.99,176.06,105.95,176.06z"/>
</g>
<g>
	<path class="st1" d="M103.12,56.63c-25.73,0-46.66,20.93-46.66,46.66s20.93,46.66,46.66,46.66s46.66-20.93,46.66-46.66
		S128.85,56.63,103.12,56.63z M104.74,108.4c-0.06,0.02-0.12,0.03-0.18,0.05c-0.1,0.03-0.19,0.05-0.29,0.07
		c-0.06,0.01-0.13,0.03-0.19,0.04c-0.1,0.02-0.21,0.03-0.31,0.05c-0.06,0.01-0.11,0.01-0.17,0.02c-0.16,0.01-0.33,0.02-0.49,0.02
		c-0.17,0-0.34-0.01-0.5-0.03c-0.05,0-0.1-0.01-0.16-0.02c-0.11-0.01-0.23-0.03-0.34-0.05c-0.06-0.01-0.12-0.02-0.17-0.04
		c-0.11-0.02-0.21-0.05-0.31-0.08c-0.05-0.02-0.11-0.03-0.16-0.05c-0.13-0.04-0.26-0.09-0.39-0.14c-0.05-0.02-0.1-0.04-0.15-0.07
		c-0.11-0.05-0.21-0.1-0.31-0.15c-0.06-0.03-0.13-0.07-0.19-0.11c-0.07-0.04-0.14-0.08-0.21-0.13c-0.07-0.04-0.13-0.09-0.2-0.13
		c-0.06-0.04-0.11-0.08-0.17-0.13c-0.07-0.05-0.14-0.11-0.2-0.16c-0.04-0.03-0.07-0.06-0.1-0.09c-0.15-0.14-0.3-0.28-0.44-0.44
		c-0.02-0.02-0.04-0.04-0.06-0.07c-0.07-0.08-0.14-0.17-0.2-0.26c-0.02-0.03-0.05-0.06-0.07-0.09c-0.07-0.09-0.13-0.18-0.19-0.28
		c-0.02-0.03-0.03-0.05-0.05-0.08c-0.2-0.34-0.37-0.7-0.5-1.07l0,0c-0.18-0.54-0.28-1.11-0.28-1.71c0-1.48,0.6-2.82,1.57-3.79
		c0.36-0.36,0.78-0.68,1.24-0.92c0.15-0.08,0.31-0.16,0.47-0.23c0.64-0.27,1.35-0.42,2.09-0.42c1.85,0,3.48,0.94,4.45,2.37
		c0.58,0.86,0.92,1.89,0.92,3c0,1.11-0.34,2.14-0.92,3C106.9,107.28,105.91,108.03,104.74,108.4z"/>
	<g>
		<path class="st2" d="M96.88,50.87c-25.31,0-45.83,20.52-45.83,45.83c0,25.31,20.52,45.83,45.83,45.83
			c25.31,0,45.83-20.52,45.83-45.83C142.72,71.39,122.2,50.87,96.88,50.87z M96.88,102.07c-2.96,0-5.36-2.4-5.36-5.36
			c0-2.96,2.4-5.36,5.36-5.36c2.96,0,5.36,2.4,5.36,5.36C102.25,99.67,99.85,102.07,96.88,102.07z"/>
		<path class="st3" d="M108.78,52.44L99.6,86.57l4.59,2.69l24.75-25.3C123.4,58.54,116.49,54.51,108.78,52.44z"/>
		<path class="st3" d="M87.68,141.62l10.83-39.8c-0.51,0.16-1.06,0.25-1.63,0.25c-2.36,0-4.37-1.53-5.08-3.65l-28.75,29.21
			C69.46,134.63,78.02,139.65,87.68,141.62z"/>
		<path class="st0" d="M96.88,80.93c-8.71,0-15.78,7.06-15.78,15.78s7.06,15.78,15.78,15.78s15.78-7.06,15.78-15.78
			S105.6,80.93,96.88,80.93z M96.88,102.07c-2.96,0-5.36-2.4-5.36-5.36c0-2.96,2.4-5.36,5.36-5.36c2.96,0,5.36,2.4,5.36,5.36
			C102.25,99.67,99.85,102.07,96.88,102.07z"/>
		<path class="st4" d="M96.88,82.88c-7.63,0-13.82,6.19-13.82,13.82s6.19,13.82,13.82,13.82s13.82-6.19,13.82-13.82
			S104.52,82.88,96.88,82.88z M96.88,102.07c-2.96,0-5.36-2.4-5.36-5.36c0-2.96,2.4-5.36,5.36-5.36c2.96,0,5.36,2.4,5.36,5.36
			C102.25,99.67,99.85,102.07,96.88,102.07z"/>
		<path class="st0" d="M96.88,50.05c-25.73,0-46.66,20.93-46.66,46.66s20.93,46.66,46.66,46.66s46.66-20.93,46.66-46.66
			S122.61,50.05,96.88,50.05z M96.88,141.72c-24.82,0-45.01-20.19-45.01-45.01S72.06,51.7,96.88,51.7s45.01,20.19,45.01,45.01
			S121.7,141.72,96.88,141.72z"/>
	</g>
</g>
</svg>
