<?xml version="1.0" encoding="utf-8"?>
<!-- Generator: Adobe Illustrator 24.1.0, SVG Export Plug-In . SVG Version: 6.00 Build 0)  -->
<svg version="1.1" id="Layer_1" xmlns="http://www.w3.org/2000/svg" xmlns:xlink="http://www.w3.org/1999/xlink" x="0px" y="0px"
	 viewBox="0 0 200 200" style="enable-background:new 0 0 200 200;" xml:space="preserve">
<style type="text/css">
	.st0{fill:#201526;}
	.st1{fill:#FFFFFF;}
	.st2{opacity:0.08;fill:#2D3235;enable-background:new    ;}
</style>
<g>
	<path class="st0" d="M89.77,176.11h0.47c0.52,0,0.82,0.06,0.82,0.54c0,0.37-0.32,1.8-1.32,7.03c-0.12,0.6-0.36,0.96-0.84,0.96h-1.5
		c-0.48,0-0.72-0.36-0.83-0.96c-0.91-5.23-1.25-6.66-1.25-7.03c0-0.5,0.3-0.55,0.88-0.55h0.52c0.64,0,0.77,0.2,0.97,2.11
		c0.35,3.15,0.37,4.33,0.58,4.33c0.14,0,0.22-1.18,0.4-2.51C89.11,176.38,88.99,176.11,89.77,176.11z"/>
	<path class="st0" d="M94.33,183.68c0,0.48,0,0.96-0.72,0.96h-0.6c-0.72,0-0.72-0.48-0.72-0.96v-6.6c0-0.48,0-0.96,0.72-0.96h0.6
		c0.72,0,0.72,0.48,0.72,0.96V183.68z"/>
	<path class="st0" d="M99.39,179.96c0.04,0,0.06-0.04,0.06-0.12v-2.76c0-0.48,0-0.96,0.72-0.96h0.6c0.72,0,0.72,0.48,0.72,0.96v6.6
		c0,0.48,0,0.96-0.72,0.96c-1.08,0-1.16-0.19-1.33-0.55l-1.6-3.47c-0.04-0.07-0.07-0.12-0.1-0.12c-0.04,0-0.05,0.05-0.05,0.12
		l0.01,3.06c0,0.48,0,0.96-0.72,0.96h-0.6c-0.72,0-0.72-0.48-0.72-0.96v-6.6c0-0.48,0-0.96,0.72-0.96h0.64
		c0.4,0,0.53,0.05,0.71,0.42l1.55,3.3C99.31,179.92,99.35,179.96,99.39,179.96z"/>
	<path class="st0" d="M105.24,184.63c-0.72,0-0.72-0.48-0.72-0.96v-1.81c0-0.65-0.62-2.15-0.84-2.65l-0.04-0.08
		c-0.24-0.54-0.95-2.36-0.95-2.7c0-0.31,0.26-0.31,0.35-0.31h1.37c0.38,0,0.5,0.52,0.6,0.96c0.08,0.38,0.48,1.73,0.5,1.83
		c0.01,0.08,0.07,0.13,0.12,0.13c0.06,0,0.11-0.04,0.12-0.12c0.01-0.11,0.37-1.46,0.47-1.85c0.11-0.44,0.25-0.96,0.68-0.96h1.07
		c0.36,0,0.49,0,0.49,0.31c0,0.34-0.7,2.17-0.94,2.7c-0.11,0.24-0.31,0.79-0.56,1.42c-0.37,0.94-0.41,1.06-0.41,2.11v1.07
		c0,0.47,0,0.91-0.72,0.91H105.24z"/>
	<path class="st0" d="M113.27,182.9c0.5,0,0.56,0.26,0.56,0.62v0.16c0,0.48,0,0.96-0.72,0.96h-2.71c-0.72,0-0.72-0.48-0.72-0.96
		v-6.6c0-0.48,0-0.96,0.72-0.96h0.6c0.72,0,0.72,0.48,0.72,0.96v5.17c0,0.29,0,0.66,0.37,0.67
		C112.73,182.92,113.02,182.9,113.27,182.9z"/>
</g>
<g>
	<g>
		<g>
			<ellipse class="st0" cx="96.65" cy="92.1" rx="71.89" ry="71.89"/>
			<g>
				<g>
					<path class="st1" d="M113.97,31.62c3,0.84,5.93,1.9,8.77,3.17c2.84,1.28,5.58,2.78,8.19,4.47c5.23,3.38,9.95,7.55,13.97,12.31
						c4,4.78,7.29,10.15,9.72,15.88c1.21,2.87,2.21,5.82,2.99,8.84c0.76,3.02,1.3,6.09,1.61,9.19c-0.34-3.09-0.92-6.16-1.71-9.16
						c-0.79-3.01-1.79-5.95-3.01-8.81c-2.44-5.72-5.75-11.05-9.75-15.8c-3.99-4.76-8.67-8.94-13.88-12.33
						c-2.6-1.7-5.33-3.2-8.16-4.49C119.87,33.58,116.95,32.49,113.97,31.62z"/>
				</g>
				<g>
					<path class="st1" d="M113.45,35.05c2.81,0.8,5.56,1.81,8.23,3.02c2.66,1.22,5.23,2.63,7.68,4.23c4.9,3.2,9.32,7.13,13.08,11.62
						c3.75,4.5,6.82,9.55,9.09,14.94c1.14,2.69,2.07,5.48,2.8,8.31c0.72,2.84,1.22,5.72,1.51,8.63c-0.32-2.9-0.86-5.78-1.61-8.6
						c-0.74-2.83-1.68-5.6-2.83-8.28c-2.29-5.37-5.37-10.4-9.13-14.86c-3.73-4.49-8.11-8.43-12.99-11.64
						c-2.44-1.61-4.99-3.03-7.64-4.26C118.99,36.92,116.25,35.88,113.45,35.05z"/>
				</g>
				<g>
					<path class="st1" d="M112.93,38.48c2.63,0.77,5.19,1.72,7.68,2.87c2.48,1.15,4.88,2.49,7.16,4c4.57,3.01,8.69,6.71,12.18,10.93
						s6.36,8.95,8.47,14.01c1.06,2.52,1.93,5.13,2.61,7.78c0.67,2.65,1.14,5.36,1.41,8.08c-0.31-2.72-0.81-5.41-1.51-8.05
						c-0.69-2.64-1.57-5.24-2.63-7.75c-2.13-5.03-5.01-9.73-8.5-13.92c-3.47-4.21-7.56-7.92-12.1-10.94
						c-2.27-1.51-4.66-2.86-7.13-4.02C118.1,40.27,115.54,39.28,112.93,38.48z"/>
				</g>
				<g>
					<path class="st1" d="M112.41,41.92c2.44,0.73,4.82,1.63,7.13,2.71c2.31,1.09,4.53,2.35,6.65,3.76
						c4.24,2.83,8.05,6.29,11.29,10.23c3.23,3.95,5.89,8.36,7.85,13.07c0.98,2.35,1.79,4.78,2.42,7.25
						c0.62,2.47,1.06,4.99,1.31,7.52c-0.29-2.53-0.76-5.04-1.41-7.49c-0.64-2.46-1.46-4.88-2.44-7.22
						c-1.98-4.69-4.65-9.07-7.88-12.99c-3.21-3.94-7-7.41-11.21-10.25c-2.11-1.42-4.32-2.69-6.61-3.79
						C117.21,43.61,114.84,42.68,112.41,41.92z"/>
				</g>
				<g>
					<path class="st1" d="M111.89,45.35c2.25,0.69,4.46,1.55,6.59,2.56c2.13,1.02,4.18,2.2,6.13,3.53
						c3.91,2.65,7.42,5.88,10.41,9.54c2.97,3.67,5.41,7.77,7.22,12.13c0.9,2.18,1.65,4.43,2.23,6.71c0.57,2.29,0.97,4.62,1.21,6.97
						c-0.27-2.34-0.7-4.66-1.31-6.94c-0.59-2.28-1.34-4.52-2.26-6.69c-1.82-4.34-4.28-8.41-7.25-12.05
						c-2.95-3.66-6.44-6.9-10.32-9.56c-1.94-1.33-3.98-2.52-6.1-3.55C116.32,46.96,114.13,46.08,111.89,45.35z"/>
				</g>
				<g>
					<path class="st1" d="M111.37,48.78c2.07,0.66,4.09,1.46,6.04,2.41c1.95,0.96,3.82,2.06,5.62,3.29
						c3.58,2.46,6.79,5.46,9.52,8.84c2.71,3.4,4.94,7.17,6.59,11.19c0.83,2.01,1.51,4.08,2.04,6.18c0.52,2.11,0.89,4.25,1.11,6.41
						c-0.25-2.15-0.65-4.29-1.21-6.38c-0.54-2.1-1.23-4.16-2.07-6.16c-1.67-4-3.91-7.75-6.63-11.12c-2.69-3.39-5.88-6.38-9.43-8.86
						c-1.78-1.24-3.64-2.35-5.58-3.32C115.43,50.31,113.43,49.47,111.37,48.78z"/>
				</g>
				<g>
					<path class="st1" d="M110.85,52.22c1.88,0.62,3.72,1.38,5.49,2.26c1.77,0.89,3.47,1.92,5.1,3.06c3.25,2.28,6.16,5.04,8.63,8.15
						c2.45,3.12,4.47,6.58,5.97,10.26c0.75,1.84,1.37,3.73,1.85,5.65c0.47,1.93,0.81,3.88,1.01,5.85c-0.23-1.97-0.6-3.92-1.11-5.83
						c-0.5-1.92-1.12-3.79-1.88-5.62c-1.51-3.66-3.55-7.09-6-10.18c-2.44-3.11-5.32-5.87-8.54-8.16c-1.61-1.15-3.3-2.17-5.06-3.08
						C114.54,53.66,112.72,52.87,110.85,52.22z"/>
				</g>
				<g>
					<path class="st1" d="M110.33,55.65c1.7,0.58,3.35,1.29,4.94,2.11c1.59,0.83,3.12,1.77,4.58,2.82c2.92,2.09,5.53,4.62,7.74,7.45
						c2.19,2.85,4,5.99,5.34,9.32c0.67,1.66,1.23,3.38,1.66,5.12c0.42,1.74,0.73,3.52,0.91,5.3c-0.21-1.78-0.55-3.54-1.01-5.28
						c-0.45-1.73-1.01-3.44-1.69-5.09c-1.36-3.31-3.18-6.43-5.38-9.25c-2.19-2.83-4.77-5.36-7.66-7.46c-1.44-1.06-2.97-2-4.55-2.85
						C113.65,57,112.02,56.27,110.33,55.65z"/>
				</g>
				<g>
					<path class="st1" d="M109.81,59.08c1.51,0.55,2.98,1.21,4.39,1.97c1.41,0.76,2.78,1.63,4.07,2.58
						c2.59,1.91,4.89,4.21,6.84,6.76c1.95,2.56,3.55,5.38,4.74,8.37c0.59,1.49,1.08,3.03,1.46,4.59s0.65,3.15,0.81,4.74
						c-0.2-1.59-0.5-3.17-0.91-4.72c-0.4-1.55-0.91-3.07-1.51-4.55c-1.21-2.96-2.8-5.77-4.75-8.31c-1.93-2.55-4.22-4.83-6.77-6.76
						c-1.28-0.97-2.62-1.84-4.02-2.62C112.76,60.35,111.31,59.67,109.81,59.08z"/>
				</g>
				<g>
					<path class="st1" d="M109.3,62.52c1.32,0.52,2.6,1.13,3.84,1.82c1.23,0.7,2.42,1.48,3.55,2.35c2.25,1.73,4.26,3.78,5.95,6.06
						c1.69,2.28,3.1,4.78,4.12,7.43c0.51,1.33,0.94,2.68,1.27,4.06c0.33,1.38,0.57,2.78,0.71,4.19c-0.18-1.41-0.45-2.8-0.81-4.16
						c-0.35-1.37-0.8-2.71-1.33-4.03c-1.05-2.62-2.44-5.11-4.14-7.36c-1.68-2.27-3.67-4.31-5.89-6.06c-1.11-0.88-2.28-1.67-3.5-2.39
						C111.86,63.71,110.6,63.07,109.3,62.52z"/>
				</g>
				<g>
					<path class="st1" d="M108.77,65.95c1.13,0.49,2.22,1.05,3.28,1.68s2.06,1.35,3.02,2.12c1.92,1.54,3.62,3.36,5.07,5.35
						c1.43,2,2.64,4.18,3.51,6.49c0.43,1.15,0.8,2.33,1.09,3.53c0.28,1.2,0.48,2.41,0.61,3.64c-0.16-1.22-0.4-2.42-0.71-3.61
						s-0.68-2.36-1.14-3.49c-0.9-2.28-2.09-4.44-3.53-6.42c-0.72-0.99-1.49-1.94-2.33-2.84c-0.84-0.9-1.73-1.73-2.68-2.51
						c-0.94-0.78-1.93-1.51-2.98-2.15C110.97,67.06,109.89,66.47,108.77,65.95z"/>
				</g>
				<g>
					<path class="st1" d="M108.25,69.38c0.93,0.46,1.84,0.98,2.72,1.55c0.87,0.58,1.7,1.21,2.49,1.89c1.58,1.36,2.99,2.93,4.19,4.64
						c1.2,1.71,2.17,3.58,2.91,5.54c0.36,0.98,0.66,1.98,0.9,3c0.23,1.02,0.4,2.05,0.51,3.08c-0.14-1.03-0.35-2.05-0.61-3.06
						c-0.26-1-0.57-2-0.95-2.96c-0.76-1.93-1.73-3.78-2.93-5.47c-1.18-1.71-2.57-3.26-4.12-4.64
						C111.81,71.56,110.09,70.37,108.25,69.38z"/>
				</g>
			</g>
			<g>
				<g>
					<path class="st1" d="M79.33,152.58c-3-0.84-5.93-1.9-8.77-3.17c-2.84-1.28-5.58-2.78-8.19-4.47
						c-5.23-3.38-9.95-7.55-13.97-12.31c-4-4.78-7.29-10.15-9.72-15.88c-1.21-2.87-2.21-5.82-2.99-8.84
						c-0.76-3.02-1.3-6.09-1.61-9.19c0.34,3.09,0.92,6.16,1.71,9.16c0.79,3.01,1.79,5.95,3.01,8.81c2.44,5.72,5.75,11.05,9.75,15.8
						c3.99,4.76,8.67,8.94,13.88,12.33c2.6,1.7,5.33,3.2,8.16,4.49C73.43,150.62,76.35,151.71,79.33,152.58z"/>
				</g>
				<g>
					<path class="st1" d="M79.85,149.15c-2.81-0.8-5.56-1.81-8.23-3.02c-2.66-1.22-5.23-2.63-7.68-4.23
						c-4.9-3.2-9.32-7.13-13.08-11.62c-3.75-4.5-6.82-9.55-9.09-14.94c-1.14-2.69-2.07-5.48-2.8-8.31
						c-0.72-2.84-1.22-5.72-1.51-8.63c0.32,2.9,0.86,5.78,1.61,8.6c0.74,2.83,1.68,5.6,2.83,8.28c2.29,5.37,5.37,10.4,9.13,14.86
						c3.73,4.49,8.11,8.43,12.99,11.64c2.44,1.61,4.99,3.03,7.64,4.26C74.31,147.27,77.05,148.31,79.85,149.15z"/>
				</g>
				<g>
					<path class="st1" d="M80.37,145.71c-2.63-0.77-5.19-1.72-7.68-2.87c-2.48-1.15-4.88-2.49-7.16-4
						c-4.57-3.01-8.69-6.71-12.18-10.93c-3.49-4.22-6.36-8.95-8.47-14.01c-1.06-2.52-1.93-5.13-2.61-7.78
						c-0.67-2.65-1.14-5.36-1.41-8.08c0.31,2.72,0.81,5.41,1.51,8.05c0.69,2.64,1.57,5.24,2.63,7.75c2.13,5.03,5.01,9.73,8.5,13.92
						c3.47,4.21,7.56,7.92,12.1,10.94c2.27,1.51,4.66,2.86,7.13,4.02C75.2,143.92,77.75,144.92,80.37,145.71z"/>
				</g>
				<g>
					<path class="st1" d="M80.89,142.28c-2.44-0.73-4.82-1.63-7.13-2.71c-2.31-1.09-4.53-2.35-6.65-3.76
						c-4.24-2.83-8.05-6.29-11.29-10.23c-3.23-3.95-5.89-8.36-7.85-13.07c-0.98-2.35-1.79-4.78-2.42-7.25
						c-0.62-2.47-1.06-4.99-1.31-7.52c0.29,2.53,0.76,5.04,1.41,7.49c0.64,2.46,1.46,4.88,2.44,7.22c1.98,4.69,4.65,9.07,7.88,12.99
						c3.21,3.94,7,7.41,11.21,10.25c2.11,1.42,4.32,2.69,6.61,3.79C76.09,140.58,78.46,141.52,80.89,142.28z"/>
				</g>
				<g>
					<path class="st1" d="M81.41,138.84c-2.25-0.69-4.46-1.55-6.59-2.56c-2.13-1.02-4.18-2.2-6.13-3.53
						c-3.91-2.65-7.42-5.88-10.41-9.54c-2.97-3.67-5.41-7.77-7.22-12.13c-0.9-2.18-1.65-4.43-2.23-6.71
						c-0.57-2.29-0.97-4.62-1.21-6.97c0.27,2.34,0.7,4.66,1.31,6.94c0.59,2.28,1.34,4.52,2.26,6.69c1.82,4.34,4.28,8.41,7.25,12.05
						c2.95,3.66,6.44,6.9,10.32,9.56c1.94,1.33,3.98,2.52,6.1,3.55C76.97,137.23,79.17,138.12,81.41,138.84z"/>
				</g>
				<g>
					<path class="st1" d="M81.93,135.41c-2.07-0.66-4.09-1.46-6.04-2.41c-1.95-0.96-3.82-2.06-5.61-3.29
						c-3.58-2.46-6.79-5.46-9.52-8.84c-2.71-3.4-4.94-7.17-6.59-11.19c-0.83-2.01-1.51-4.08-2.04-6.18
						c-0.52-2.11-0.89-4.25-1.11-6.41c0.25,2.15,0.65,4.29,1.21,6.38c0.54,2.1,1.23,4.16,2.07,6.16c1.67,4,3.91,7.75,6.63,11.12
						c2.69,3.39,5.88,6.38,9.43,8.86c1.78,1.24,3.64,2.35,5.58,3.32C77.87,133.89,79.87,134.72,81.93,135.41z"/>
				</g>
				<g>
					<path class="st1" d="M82.45,131.98c-1.88-0.62-3.72-1.38-5.49-2.26c-1.77-0.89-3.47-1.92-5.1-3.06
						c-3.25-2.28-6.16-5.04-8.63-8.15c-2.45-3.12-4.47-6.58-5.97-10.26c-0.75-1.84-1.37-3.73-1.85-5.65
						c-0.47-1.93-0.81-3.88-1.01-5.85c0.23,1.97,0.6,3.92,1.11,5.83c0.5,1.92,1.12,3.79,1.88,5.62c1.51,3.66,3.55,7.09,6,10.18
						c2.44,3.11,5.32,5.87,8.54,8.16c1.61,1.15,3.3,2.17,5.06,3.08C78.75,130.54,80.58,131.32,82.45,131.98z"/>
				</g>
				<g>
					<path class="st1" d="M82.97,128.54c-1.7-0.58-3.35-1.29-4.94-2.11c-1.59-0.83-3.12-1.77-4.58-2.82
						c-2.92-2.09-5.53-4.62-7.74-7.45c-2.19-2.85-4-5.99-5.34-9.32c-0.67-1.66-1.23-3.38-1.66-5.12c-0.42-1.74-0.73-3.52-0.91-5.3
						c0.21,1.78,0.55,3.54,1.01,5.28c0.45,1.73,1.01,3.44,1.69,5.09c1.36,3.31,3.18,6.43,5.38,9.25c2.19,2.83,4.77,5.36,7.66,7.46
						c1.44,1.06,2.97,2,4.55,2.85C79.64,127.19,81.28,127.93,82.97,128.54z"/>
				</g>
				<g>
					<path class="st1" d="M83.49,125.11c-1.51-0.55-2.98-1.21-4.39-1.97c-1.41-0.76-2.78-1.63-4.07-2.58
						c-2.59-1.91-4.89-4.21-6.84-6.76c-1.95-2.56-3.55-5.38-4.74-8.37c-0.59-1.49-1.08-3.03-1.46-4.59
						c-0.38-1.56-0.65-3.15-0.81-4.74c0.2,1.59,0.5,3.17,0.91,4.72c0.4,1.55,0.91,3.07,1.51,4.55c1.21,2.96,2.8,5.77,4.75,8.31
						c1.93,2.55,4.22,4.83,6.77,6.76c1.28,0.97,2.62,1.84,4.02,2.62C80.54,123.84,81.99,124.53,83.49,125.11z"/>
				</g>
				<g>
					<path class="st1" d="M84,121.68c-1.32-0.52-2.6-1.13-3.84-1.82c-1.23-0.7-2.42-1.48-3.55-2.35c-2.25-1.73-4.26-3.78-5.95-6.06
						s-3.1-4.78-4.12-7.43c-0.51-1.33-0.94-2.68-1.27-4.06s-0.57-2.78-0.71-4.19c0.18,1.41,0.45,2.8,0.81,4.16
						c0.35,1.37,0.8,2.71,1.33,4.03c1.05,2.62,2.44,5.11,4.14,7.36c1.68,2.27,3.67,4.31,5.89,6.06c1.11,0.88,2.28,1.67,3.5,2.39
						C81.43,120.49,82.7,121.13,84,121.68z"/>
				</g>
				<g>
					<path class="st1" d="M84.52,118.24c-1.13-0.49-2.22-1.05-3.28-1.68s-2.06-1.35-3.02-2.12c-1.92-1.54-3.62-3.36-5.07-5.35
						c-1.43-2-2.64-4.18-3.51-6.49c-0.43-1.15-0.8-2.33-1.09-3.53c-0.28-1.2-0.48-2.41-0.61-3.64c0.16,1.22,0.4,2.42,0.71,3.61
						s0.68,2.36,1.14,3.49c0.9,2.28,2.09,4.44,3.53,6.42c0.72,0.99,1.49,1.94,2.33,2.84c0.84,0.9,1.73,1.73,2.68,2.51
						c0.94,0.78,1.93,1.51,2.98,2.15C82.33,117.13,83.41,117.72,84.52,118.24z"/>
				</g>
				<g>
					<path class="st1" d="M85.04,114.81c-0.93-0.46-1.84-0.98-2.72-1.55c-0.87-0.58-1.7-1.21-2.49-1.89
						c-1.58-1.36-2.99-2.93-4.19-4.64c-1.2-1.71-2.17-3.58-2.91-5.54c-0.36-0.98-0.66-1.98-0.9-3c-0.23-1.02-0.4-2.05-0.51-3.08
						c0.14,1.03,0.35,2.05,0.61,3.06c0.26,1,0.57,2,0.95,2.96c0.76,1.93,1.73,3.78,2.93,5.47c1.18,1.71,2.57,3.26,4.12,4.64
						C81.49,112.63,83.21,113.83,85.04,114.81z"/>
				</g>
			</g>
			<g>
				<g>
					<path class="st1" d="M47.96,52.25c0.61-0.77,1.23-1.52,1.87-2.25c0.65-0.73,1.31-1.45,1.99-2.15c1.36-1.4,2.8-2.73,4.3-3.99
						c1.5-1.25,3.06-2.44,4.67-3.54c0.81-0.55,1.63-1.08,2.46-1.59c0.84-0.5,1.68-0.99,2.54-1.46c-0.84,0.5-1.67,1.01-2.49,1.54
						c-0.82,0.53-1.63,1.07-2.42,1.64c-1.59,1.12-3.14,2.31-4.63,3.57c-1.5,1.25-2.93,2.57-4.31,3.94
						c-0.69,0.68-1.37,1.39-2.03,2.11C49.24,50.78,48.59,51.51,47.96,52.25z"/>
				</g>
				<g>
					<path class="st1" d="M50.62,54.37c0.58-0.73,1.17-1.44,1.78-2.14s1.24-1.38,1.89-2.04c1.29-1.33,2.66-2.59,4.08-3.78
						c1.43-1.19,2.9-2.31,4.44-3.35c0.77-0.52,1.55-1.02,2.34-1.5c0.8-0.48,1.6-0.94,2.42-1.37c-0.8,0.47-1.59,0.95-2.36,1.46
						c-0.78,0.5-1.55,1.02-2.31,1.55c-1.51,1.07-2.98,2.19-4.4,3.38c-1.42,1.18-2.79,2.44-4.1,3.74c-0.66,0.65-1.3,1.32-1.93,2
						C51.84,52.97,51.22,53.66,50.62,54.37z"/>
				</g>
				<g>
					<path class="st1" d="M53.28,56.49c0.55-0.69,1.11-1.36,1.68-2.02c0.58-0.66,1.18-1.3,1.79-1.93c1.22-1.26,2.52-2.44,3.87-3.58
						c1.35-1.12,2.75-2.19,4.21-3.17c0.73-0.49,1.47-0.96,2.22-1.42c0.75-0.45,1.52-0.88,2.29-1.29c-0.76,0.44-1.51,0.9-2.24,1.38
						c-0.74,0.47-1.47,0.96-2.18,1.46c-1.43,1-2.83,2.07-4.17,3.19c-1.35,1.12-2.64,2.3-3.89,3.53c-0.62,0.62-1.23,1.24-1.83,1.89
						C54.44,55.17,53.86,55.82,53.28,56.49z"/>
				</g>
				<g>
					<path class="st1" d="M55.95,58.6c0.51-0.65,1.04-1.29,1.59-1.91s1.11-1.23,1.69-1.82c1.16-1.19,2.39-2.31,3.65-3.37
						c1.28-1.06,2.6-2.06,3.98-2.98c0.69-0.46,1.39-0.9,2.1-1.33c0.71-0.42,1.44-0.82,2.17-1.21c-0.72,0.41-1.42,0.85-2.12,1.29
						c-0.7,0.44-1.39,0.9-2.06,1.38c-1.35,0.95-2.67,1.94-3.94,3.01c-1.27,1.05-2.49,2.17-3.67,3.32c-0.59,0.58-1.17,1.17-1.73,1.78
						C57.04,57.36,56.49,57.98,55.95,58.6z"/>
				</g>
				<g>
					<path class="st1" d="M58.61,60.72c0.48-0.61,0.98-1.21,1.49-1.8c0.52-0.58,1.05-1.15,1.59-1.71c1.09-1.11,2.24-2.16,3.44-3.17
						c1.21-0.99,2.45-1.93,3.75-2.79c0.65-0.43,1.31-0.85,1.98-1.24c0.67-0.39,1.36-0.77,2.05-1.13c-0.67,0.39-1.34,0.79-1.99,1.21
						c-0.66,0.41-1.31,0.84-1.94,1.29c-1.28,0.89-2.52,1.82-3.71,2.82c-1.2,0.98-2.35,2.03-3.46,3.12c-0.56,0.54-1.1,1.1-1.63,1.66
						C59.64,59.56,59.12,60.13,58.61,60.72z"/>
				</g>
				<g>
					<path class="st1" d="M61.27,62.84c0.9-1.15,1.87-2.24,2.89-3.28c1.02-1.04,2.1-2.02,3.23-2.96c1.13-0.92,2.3-1.8,3.52-2.6
						c1.22-0.8,2.48-1.55,3.78-2.2c-1.26,0.73-2.49,1.51-3.69,2.34c-1.19,0.83-2.36,1.7-3.48,2.63c-1.13,0.92-2.2,1.9-3.25,2.91
						C63.23,60.68,62.23,61.75,61.27,62.84z"/>
				</g>
				<g>
					<path class="st1" d="M63.93,64.96c0.84-1.07,1.74-2.09,2.69-3.06c0.95-0.97,1.97-1.88,3.01-2.75c1.06-0.85,2.15-1.67,3.29-2.41
						s2.32-1.43,3.53-2.03c-1.17,0.68-2.33,1.4-3.44,2.17s-2.2,1.58-3.25,2.44c-1.05,0.85-2.06,1.76-3.03,2.7
						C65.76,62.95,64.83,63.94,63.93,64.96z"/>
				</g>
				<g>
					<path class="st1" d="M66.6,67.08c0.77-0.99,1.61-1.94,2.5-2.83c0.89-0.9,1.83-1.74,2.8-2.54c0.98-0.79,2-1.54,3.06-2.22
						s2.15-1.31,3.28-1.87c-1.09,0.63-2.16,1.29-3.2,2c-1.04,0.71-2.05,1.45-3.02,2.25c-0.98,0.79-1.91,1.63-2.82,2.5
						C68.3,65.23,67.43,66.14,66.6,67.08z"/>
				</g>
				<g>
					<path class="st1" d="M69.26,69.19c0.71-0.92,1.49-1.78,2.3-2.61c0.82-0.83,1.69-1.6,2.59-2.34c0.91-0.72,1.85-1.41,2.83-2.03
						c0.98-0.62,1.99-1.2,3.04-1.7c-1,0.58-1.99,1.18-2.95,1.83c-0.96,0.65-1.89,1.33-2.79,2.06c-0.9,0.72-1.77,1.49-2.61,2.29
						C70.84,67.5,70.03,68.33,69.26,69.19z"/>
				</g>
				<g>
					<path class="st1" d="M71.92,71.31c0.65-0.84,1.36-1.63,2.11-2.39c0.75-0.75,1.55-1.46,2.37-2.13c0.84-0.66,1.7-1.28,2.6-1.85
						c0.9-0.57,1.83-1.08,2.79-1.53c-0.92,0.53-1.83,1.07-2.71,1.66c-0.88,0.59-1.73,1.21-2.56,1.88c-0.83,0.65-1.62,1.36-2.39,2.08
						C73.37,69.77,72.64,70.53,71.92,71.31z"/>
				</g>
				<g>
					<path class="st1" d="M74.58,73.43c0.59-0.76,1.23-1.48,1.92-2.16c0.68-0.68,1.41-1.32,2.16-1.92c0.76-0.59,1.55-1.15,2.37-1.66
						c0.82-0.5,1.67-0.97,2.54-1.36c-0.84,0.47-1.66,0.97-2.46,1.5c-0.8,0.53-1.58,1.09-2.32,1.69c-0.75,0.59-1.48,1.22-2.18,1.87
						C75.91,72.04,75.24,72.72,74.58,73.43z"/>
				</g>
				<g>
					<path class="st1" d="M77.24,75.55c0.53-0.68,1.11-1.33,1.72-1.93c0.61-0.61,1.27-1.17,1.95-1.71c0.69-0.53,1.4-1.02,2.14-1.47
						c0.74-0.45,1.51-0.85,2.3-1.2c-0.75,0.42-1.49,0.86-2.21,1.33s-1.42,0.96-2.09,1.5c-0.68,0.52-1.33,1.08-1.97,1.66
						C78.44,74.31,77.84,74.92,77.24,75.55z"/>
				</g>
			</g>
			<ellipse class="st1" cx="96.65" cy="92.09" rx="15.63" ry="15.63"/>
			<ellipse class="st0" cx="96.65" cy="92.09" rx="7.9" ry="7.9"/>
		</g>
		<circle class="st2" cx="102.97" cy="96.74" r="72.27"/>
	</g>
	<circle class="st1" cx="96.69" cy="92.01" r="1.81"/>
</g>
</svg>
