<?xml version="1.0" encoding="utf-8"?>
<!-- Generator: Adobe Illustrator 24.1.0, SVG Export Plug-In . SVG Version: 6.00 Build 0)  -->
<svg version="1.1" id="Layer_1" xmlns="http://www.w3.org/2000/svg" xmlns:xlink="http://www.w3.org/1999/xlink" x="0px" y="0px"
	 viewBox="0 0 600 600" style="enable-background:new 0 0 600 600;" xml:space="preserve">
<style type="text/css">
	.st0{fill:#201526;}
	.st1{fill:#FFFFFF;}
	.st2{opacity:0.25;fill:#2D3235;enable-background:new    ;}
</style>
<g>
	<g>
		<g>
			<ellipse class="st0" cx="289.9" cy="292.44" rx="216.65" ry="216.65"/>
			<g>
				<g>
					<path class="st1" d="M342.09,110.17c9.03,2.53,17.87,5.72,26.43,9.56c8.55,3.86,16.8,8.37,24.69,13.46
						c15.76,10.18,29.98,22.76,42.09,37.11c12.05,14.4,21.97,30.58,29.29,47.86c3.66,8.64,6.67,17.55,9,26.64
						c2.3,9.09,3.93,18.36,4.86,27.68c-1.03-9.32-2.76-18.55-5.15-27.61c-2.37-9.06-5.4-17.94-9.09-26.55
						c-7.36-17.22-17.32-33.31-29.38-47.62c-12.01-14.35-26.14-26.94-41.84-37.16c-7.84-5.12-16.07-9.64-24.59-13.53
						C359.89,116.09,351.09,112.8,342.09,110.17z"/>
				</g>
				<g>
					<path class="st1" d="M340.53,120.52c8.46,2.42,16.76,5.46,24.79,9.1c8.01,3.67,15.76,7.94,23.14,12.75
						c14.77,9.63,28.08,21.49,39.4,35.02c11.3,13.55,20.56,28.78,27.41,45.03c3.42,8.12,6.24,16.5,8.43,25.04
						c2.16,8.55,3.67,17.25,4.55,26.01c-0.97-8.75-2.6-17.42-4.85-25.93c-2.22-8.52-5.07-16.86-8.52-24.95
						c-6.9-16.18-16.19-31.33-27.51-44.79c-11.23-13.52-24.46-25.4-39.15-35.08c-7.34-4.84-15.05-9.13-23.04-12.83
						C357.22,126.17,348.97,123.03,340.53,120.52z"/>
				</g>
				<g>
					<path class="st1" d="M338.96,130.87c7.91,2.31,15.65,5.19,23.15,8.64c7.48,3.47,14.7,7.5,21.59,12.05
						c13.78,9.09,26.17,20.24,36.72,32.93c10.51,12.73,19.17,26.98,25.53,42.21c3.19,7.61,5.81,15.44,7.85,23.44
						c2.01,8,3.42,16.14,4.25,24.34c-0.92-8.19-2.44-16.3-4.54-24.26c-2.07-7.96-4.72-15.78-7.94-23.36
						c-6.42-15.16-15.11-29.33-25.63-41.96c-10.45-12.69-22.77-23.87-36.47-32.98c-6.85-4.56-14.04-8.61-21.49-12.11
						C354.54,136.25,346.85,133.27,338.96,130.87z"/>
				</g>
				<g>
					<path class="st1" d="M337.4,141.21c7.35,2.2,14.54,4.92,21.5,8.18c6.95,3.27,13.64,7.07,20.03,11.33
						c12.78,8.53,24.27,18.97,34.04,30.84c9.73,11.9,17.74,25.19,23.65,39.38c2.95,7.09,5.39,14.4,7.28,21.84
						c1.86,7.45,3.18,15.03,3.93,22.67c-0.86-7.63-2.28-15.18-4.24-22.58c-1.93-7.42-4.39-14.7-7.37-21.75
						c-5.96-14.12-14.01-27.33-23.75-39.14c-9.67-11.86-21.08-22.32-33.78-30.89c-6.35-4.29-13.02-8.1-19.92-11.41
						C351.86,146.33,344.72,143.5,337.4,141.21z"/>
				</g>
				<g>
					<path class="st1" d="M335.83,151.56c6.79,2.08,13.43,4.66,19.85,7.72c6.41,3.08,12.58,6.64,18.47,10.63
						c11.78,7.98,22.37,17.71,31.36,28.74c8.95,11.07,16.32,23.41,21.76,36.55c2.73,6.57,4.97,13.34,6.71,20.24
						c1.71,6.9,2.93,13.93,3.64,20.99c-0.81-7.06-2.12-14.05-3.93-20.91c-1.78-6.87-4.05-13.61-6.8-20.15
						c-5.5-13.08-12.9-25.34-21.86-36.32c-8.89-11.03-19.4-20.78-31.1-28.8c-5.85-4.01-12-7.58-18.37-10.7
						C349.19,156.41,342.59,153.75,335.83,151.56z"/>
				</g>
				<g>
					<path class="st1" d="M334.27,161.91c6.23,1.98,12.32,4.4,18.2,7.27c5.87,2.89,11.53,6.21,16.92,9.92
						c10.78,7.42,20.47,16.44,28.67,26.65c8.17,10.24,14.9,21.62,19.87,33.73c2.49,6.06,4.55,12.28,6.14,18.63
						c1.57,6.35,2.68,12.81,3.34,19.31c-0.76-6.49-1.97-12.93-3.63-19.24c-1.64-6.32-3.72-12.53-6.23-18.55
						c-5.03-12.05-11.8-23.35-19.98-33.5c-8.12-10.2-17.72-19.24-28.42-26.7c-5.35-3.73-10.98-7.07-16.82-9.99
						C346.51,166.51,340.47,163.98,334.27,161.91z"/>
				</g>
				<g>
					<path class="st1" d="M332.7,172.25c5.67,1.87,11.21,4.14,16.55,6.81c5.34,2.69,10.47,5.77,15.36,9.21
						c9.78,6.87,18.57,15.18,26,24.55c7.39,9.4,13.48,19.83,17.99,30.91c2.26,5.54,4.12,11.23,5.58,17.02
						c1.43,5.81,2.44,11.7,3.04,17.64c-0.7-5.93-1.82-11.8-3.34-17.57c-1.49-5.77-3.38-11.43-5.66-16.95
						c-4.56-11.02-10.69-21.36-18.1-30.68c-7.34-9.37-16.04-17.69-25.75-24.6c-4.86-3.46-9.96-6.55-15.26-9.28
						C343.83,176.59,338.34,174.22,332.7,172.25z"/>
				</g>
				<g>
					<path class="st1" d="M331.14,182.61c5.11,1.76,10.09,3.89,14.9,6.37c4.8,2.5,9.41,5.34,13.81,8.51
						c8.79,6.31,16.65,13.92,23.33,22.44c6.61,8.57,12.06,18.05,16.1,28.09c2.02,5.02,3.7,10.18,5.01,15.42
						c1.28,5.25,2.2,10.6,2.74,15.97c-0.65-5.36-1.66-10.68-3.04-15.9c-1.34-5.23-3.05-10.35-5.09-15.34
						c-4.09-9.97-9.58-19.37-16.21-27.86c-6.59-8.52-14.36-16.15-23.08-22.49c-4.35-3.18-8.94-6.04-13.71-8.57
						C341.14,186.68,336.21,184.47,331.14,182.61z"/>
				</g>
				<g>
					<path class="st1" d="M329.57,192.95c4.54,1.66,8.97,3.64,13.24,5.92c4.26,2.3,8.36,4.9,12.27,7.77
						c7.8,5.76,14.72,12.68,20.62,20.38c5.89,7.7,10.7,16.23,14.28,25.24c1.78,4.51,3.26,9.13,4.4,13.83
						c1.13,4.71,1.95,9.49,2.44,14.3c-0.6-4.8-1.51-9.56-2.73-14.22c-1.21-4.67-2.73-9.26-4.56-13.73
						c-3.65-8.93-8.43-17.4-14.33-25.03c-5.83-7.68-12.71-14.56-20.41-20.37c-3.85-2.91-7.9-5.55-12.12-7.89
						C338.46,196.77,334.08,194.71,329.57,192.95z"/>
				</g>
				<g>
					<path class="st1" d="M328.01,203.3c3.97,1.56,7.84,3.4,11.57,5.49c3.72,2.11,7.31,4.46,10.7,7.07
						c6.79,5.22,12.83,11.4,17.94,18.26c5.1,6.87,9.34,14.4,12.42,22.39c1.54,3.99,2.83,8.08,3.84,12.23
						c0.99,4.16,1.7,8.38,2.14,12.63c-0.54-4.24-1.35-8.43-2.44-12.55c-1.07-4.13-2.4-8.18-3.99-12.13
						c-3.16-7.9-7.37-15.39-12.48-22.19c-5.05-6.85-11.05-12.99-17.74-18.26c-3.34-2.64-6.88-5.03-10.55-7.19
						C335.76,206.88,331.94,204.95,328.01,203.3z"/>
				</g>
				<g>
					<path class="st1" d="M326.44,213.65c3.4,1.47,6.7,3.16,9.89,5.06c3.18,1.91,6.22,4.06,9.11,6.38
						c5.8,4.65,10.9,10.13,15.29,16.13c4.32,6.04,7.94,12.6,10.58,19.55c1.31,3.47,2.41,7.02,3.27,10.63
						c0.84,3.62,1.46,7.27,1.84,10.96c-0.49-3.67-1.2-7.31-2.14-10.88c-0.92-3.58-2.06-7.1-3.42-10.53
						c-2.72-6.87-6.31-13.38-10.64-19.35c-2.16-3-4.51-5.85-7.02-8.55c-2.52-2.7-5.23-5.21-8.06-7.58
						c-2.84-2.36-5.83-4.54-8.97-6.49C333.05,216.99,329.8,215.21,326.44,213.65z"/>
				</g>
				<g>
					<path class="st1" d="M324.87,223.99c2.81,1.38,5.55,2.94,8.19,4.66c2.62,1.74,5.13,3.65,7.52,5.69
						c4.77,4.11,9,8.84,12.63,13.99c3.61,5.16,6.54,10.8,8.76,16.69c1.1,2.95,1.99,5.97,2.71,9.04c0.7,3.06,1.21,6.17,1.54,9.29
						c-0.43-3.11-1.04-6.19-1.84-9.22c-0.78-3.03-1.72-6.02-2.87-8.93c-2.29-5.81-5.2-11.4-8.83-16.49
						c-3.55-5.14-7.75-9.83-12.42-13.99C335.59,230.56,330.41,226.95,324.87,223.99z"/>
				</g>
			</g>
			<g>
				<g>
					<path class="st1" d="M237.71,474.71c-9.03-2.53-17.87-5.72-26.43-9.56c-8.55-3.86-16.8-8.37-24.69-13.46
						c-15.76-10.18-29.98-22.76-42.09-37.11c-12.05-14.4-21.97-30.58-29.29-47.86c-3.66-8.64-6.67-17.55-9-26.64
						c-2.3-9.09-3.93-18.36-4.86-27.68c1.03,9.32,2.76,18.55,5.15,27.61c2.37,9.06,5.4,17.94,9.09,26.55
						c7.36,17.22,17.32,33.31,29.38,47.62c12.01,14.35,26.14,26.94,41.84,37.16c7.84,5.12,16.07,9.64,24.59,13.53
						C219.92,468.79,228.72,472.08,237.71,474.71z"/>
				</g>
				<g>
					<path class="st1" d="M239.28,464.36c-8.46-2.42-16.76-5.46-24.79-9.1c-8.01-3.67-15.76-7.94-23.14-12.75
						c-14.77-9.63-28.08-21.49-39.4-35.02c-11.3-13.55-20.56-28.78-27.41-45.03c-3.42-8.12-6.24-16.5-8.43-25.04
						c-2.16-8.55-3.67-17.25-4.55-26.01c0.97,8.75,2.6,17.42,4.85,25.93c2.22,8.52,5.07,16.86,8.52,24.95
						c6.9,16.18,16.19,31.33,27.51,44.79c11.23,13.52,24.46,25.4,39.15,35.08c7.34,4.84,15.05,9.13,23.04,12.83
						C222.59,458.71,230.84,461.85,239.28,464.36z"/>
				</g>
				<g>
					<path class="st1" d="M240.85,454.01c-7.91-2.31-15.65-5.19-23.15-8.64c-7.48-3.47-14.7-7.5-21.59-12.05
						c-13.78-9.09-26.17-20.24-36.72-32.93c-10.51-12.73-19.17-26.98-25.53-42.21c-3.19-7.61-5.81-15.44-7.85-23.44
						c-2.01-8-3.42-16.14-4.25-24.34c0.92,8.19,2.44,16.3,4.54,24.26c2.07,7.96,4.72,15.78,7.94,23.36
						c6.42,15.16,15.11,29.33,25.63,41.96c10.45,12.69,22.77,23.87,36.47,32.98c6.85,4.56,14.04,8.61,21.49,12.11
						C225.26,448.62,232.96,451.61,240.85,454.01z"/>
				</g>
				<g>
					<path class="st1" d="M242.41,443.67c-7.35-2.2-14.54-4.92-21.5-8.18c-6.95-3.27-13.64-7.07-20.03-11.33
						c-12.78-8.53-24.27-18.97-34.04-30.84c-9.73-11.9-17.74-25.19-23.65-39.38c-2.95-7.09-5.39-14.4-7.28-21.84
						c-1.86-7.45-3.18-15.03-3.93-22.67c0.86,7.63,2.28,15.18,4.24,22.58c1.93,7.42,4.39,14.7,7.37,21.75
						c5.96,14.12,14.01,27.33,23.75,39.14c9.67,11.86,21.08,22.32,33.78,30.89c6.35,4.29,13.02,8.1,19.92,11.41
						C227.94,438.55,235.08,441.38,242.41,443.67z"/>
				</g>
				<g>
					<path class="st1" d="M243.98,433.31c-6.79-2.08-13.43-4.66-19.85-7.72c-6.41-3.08-12.58-6.64-18.47-10.63
						c-11.78-7.98-22.37-17.71-31.36-28.74c-8.95-11.07-16.32-23.41-21.76-36.55c-2.73-6.57-4.97-13.34-6.71-20.24
						c-1.71-6.9-2.93-13.93-3.64-20.99c0.81,7.06,2.12,14.05,3.93,20.91c1.78,6.87,4.05,13.61,6.8,20.15
						c5.5,13.08,12.9,25.34,21.86,36.32c8.89,11.03,19.4,20.78,31.1,28.8c5.85,4.01,12,7.58,18.37,10.7
						C230.61,428.46,237.21,431.13,243.98,433.31z"/>
				</g>
				<g>
					<path class="st1" d="M245.54,422.97c-6.23-1.98-12.32-4.4-18.2-7.27c-5.87-2.89-11.53-6.21-16.92-9.92
						c-10.78-7.42-20.47-16.44-28.67-26.65c-8.17-10.24-14.9-21.62-19.87-33.73c-2.49-6.06-4.55-12.28-6.14-18.63
						c-1.57-6.35-2.68-12.81-3.34-19.31c0.76,6.49,1.97,12.93,3.64,19.24c1.64,6.32,3.72,12.53,6.23,18.55
						c5.03,12.05,11.8,23.35,19.98,33.5c8.12,10.2,17.72,19.24,28.42,26.7c5.35,3.73,10.98,7.07,16.82,9.99
						C233.3,418.37,239.34,420.9,245.54,422.97z"/>
				</g>
				<g>
					<path class="st1" d="M247.1,412.63c-5.67-1.87-11.21-4.14-16.55-6.81c-5.34-2.69-10.47-5.77-15.36-9.21
						c-9.78-6.87-18.57-15.18-26-24.55c-7.39-9.4-13.48-19.84-17.99-30.91c-2.26-5.54-4.12-11.23-5.58-17.02
						c-1.43-5.81-2.44-11.7-3.04-17.64c0.7,5.93,1.82,11.8,3.34,17.57c1.49,5.77,3.38,11.43,5.66,16.95
						c4.56,11.02,10.69,21.36,18.1,30.68c7.34,9.37,16.04,17.69,25.75,24.6c4.86,3.46,9.96,6.55,15.26,9.28
						C235.97,408.29,241.47,410.65,247.1,412.63z"/>
				</g>
				<g>
					<path class="st1" d="M248.67,402.27c-5.11-1.76-10.09-3.89-14.9-6.37c-4.8-2.5-9.41-5.34-13.81-8.51
						c-8.79-6.31-16.65-13.92-23.33-22.44c-6.61-8.57-12.06-18.05-16.1-28.09c-2.02-5.02-3.7-10.18-5.01-15.42
						c-1.28-5.25-2.2-10.6-2.74-15.97c0.65,5.36,1.66,10.68,3.04,15.9c1.34,5.23,3.05,10.35,5.09,15.34
						c4.09,9.97,9.58,19.37,16.21,27.86c6.59,8.52,14.36,16.15,23.08,22.49c4.35,3.18,8.94,6.04,13.71,8.57
						C238.66,398.2,243.6,400.41,248.67,402.27z"/>
				</g>
				<g>
					<path class="st1" d="M250.23,391.93c-4.54-1.66-8.97-3.64-13.24-5.92c-4.26-2.3-8.36-4.9-12.27-7.77
						c-7.8-5.76-14.72-12.68-20.62-20.38c-5.89-7.7-10.7-16.23-14.28-25.24c-1.78-4.51-3.26-9.13-4.4-13.83
						c-1.13-4.71-1.95-9.49-2.44-14.3c0.6,4.8,1.51,9.56,2.73,14.22c1.21,4.67,2.73,9.26,4.56,13.73
						c3.65,8.93,8.43,17.4,14.33,25.03c5.83,7.68,12.71,14.56,20.41,20.37c3.85,2.91,7.9,5.55,12.12,7.89
						C241.35,388.1,245.73,390.17,250.23,391.93z"/>
				</g>
				<g>
					<path class="st1" d="M251.79,381.58c-3.97-1.56-7.84-3.4-11.57-5.49c-3.72-2.11-7.31-4.46-10.7-7.07
						c-6.79-5.22-12.83-11.4-17.94-18.26c-5.1-6.87-9.34-14.4-12.42-22.39c-1.54-3.99-2.83-8.08-3.84-12.23
						c-0.99-4.16-1.7-8.38-2.14-12.63c0.54,4.24,1.35,8.43,2.44,12.55c1.07,4.13,2.4,8.18,3.99,12.13
						c3.16,7.9,7.37,15.39,12.48,22.19c5.05,6.85,11.05,12.99,17.74,18.26c3.34,2.64,6.88,5.03,10.55,7.19
						C244.04,377.99,247.86,379.92,251.79,381.58z"/>
				</g>
				<g>
					<path class="st1" d="M253.36,371.23c-3.4-1.47-6.7-3.16-9.89-5.07c-3.18-1.91-6.22-4.06-9.11-6.38
						c-5.8-4.65-10.9-10.13-15.29-16.13c-4.32-6.04-7.94-12.6-10.58-19.55c-1.31-3.47-2.41-7.02-3.27-10.63
						c-0.84-3.62-1.46-7.27-1.84-10.96c0.49,3.67,1.2,7.31,2.14,10.88c0.92,3.58,2.06,7.1,3.42,10.53
						c2.72,6.87,6.31,13.38,10.64,19.35c2.16,3,4.51,5.85,7.02,8.55s5.23,5.21,8.06,7.58c2.84,2.36,5.83,4.54,8.97,6.49
						C246.75,367.88,250.01,369.66,253.36,371.23z"/>
				</g>
				<g>
					<path class="st1" d="M254.92,360.88c-2.81-1.38-5.55-2.94-8.19-4.66c-2.62-1.74-5.13-3.65-7.52-5.69
						c-4.77-4.11-9-8.84-12.63-13.99c-3.61-5.16-6.54-10.8-8.76-16.69c-1.1-2.95-1.99-5.97-2.71-9.04c-0.7-3.06-1.21-6.17-1.54-9.29
						c0.43,3.11,1.04,6.19,1.84,9.22c0.78,3.03,1.72,6.02,2.87,8.93c2.29,5.81,5.2,11.4,8.83,16.49c3.55,5.14,7.75,9.83,12.42,13.99
						C244.22,354.32,249.4,357.93,254.92,360.88z"/>
				</g>
			</g>
			<g>
				<g>
					<path class="st1" d="M143.17,172.35c1.83-2.31,3.71-4.57,5.64-6.8c1.95-2.21,3.95-4.37,6-6.49c4.11-4.22,8.45-8.22,12.94-12.03
						c4.53-3.77,9.21-7.36,14.08-10.68c2.43-1.65,4.91-3.26,7.42-4.79c2.52-1.52,5.08-2.99,7.66-4.39c-2.53,1.49-5.03,3.04-7.5,4.65
						c-2.47,1.59-4.91,3.23-7.31,4.93c-4.8,3.39-9.47,6.96-13.95,10.76c-4.51,3.76-8.83,7.74-13,11.89
						c-2.09,2.06-4.13,4.19-6.12,6.35C147.03,167.92,145.07,170.11,143.17,172.35z"/>
				</g>
				<g>
					<path class="st1" d="M151.19,178.74c1.74-2.19,3.52-4.34,5.35-6.45c1.85-2.1,3.75-4.14,5.7-6.15c3.9-4.01,8.03-7.79,12.3-11.4
						c4.3-3.57,8.75-6.97,13.38-10.11c2.32-1.57,4.66-3.08,7.06-4.53c2.4-1.43,4.83-2.82,7.29-4.14c-2.41,1.41-4.79,2.88-7.12,4.4
						c-2.35,1.5-4.66,3.06-6.95,4.66c-4.56,3.21-8.99,6.59-13.26,10.19c-4.29,3.56-8.4,7.34-12.36,11.26
						c-1.99,1.96-3.92,3.97-5.81,6.02C154.86,174.53,153,176.62,151.19,178.74z"/>
				</g>
				<g>
					<path class="st1" d="M159.22,185.12c1.64-2.07,3.33-4.11,5.07-6.1c1.75-1.98,3.56-3.92,5.39-5.82
						c3.69-3.79,7.61-7.37,11.65-10.78c4.08-3.37,8.3-6.59,12.68-9.54c2.2-1.48,4.43-2.9,6.69-4.27c2.27-1.35,4.58-2.65,6.91-3.89
						c-2.28,1.33-4.54,2.72-6.75,4.15c-2.22,1.42-4.42,2.89-6.58,4.4c-4.32,3.03-8.52,6.22-12.56,9.62
						c-4.07,3.36-7.96,6.93-11.71,10.64c-1.88,1.85-3.72,3.75-5.51,5.69C162.7,181.15,160.94,183.11,159.22,185.12z"/>
				</g>
				<g>
					<path class="st1" d="M167.24,191.5c1.54-1.95,3.14-3.88,4.78-5.76c1.65-1.87,3.36-3.7,5.1-5.49
						c3.49-3.57,7.19-6.95,11.01-10.16c3.86-3.18,7.84-6.2,12-8.98c2.08-1.38,4.19-2.73,6.33-4.01c2.15-1.27,4.33-2.48,6.54-3.64
						c-2.16,1.25-4.29,2.55-6.38,3.9c-2.11,1.33-4.18,2.72-6.22,4.14c-4.08,2.85-8.05,5.86-11.86,9.06
						c-3.84,3.16-7.52,6.53-11.07,10.02c-1.78,1.74-3.52,3.53-5.21,5.35C170.54,187.76,168.87,189.61,167.24,191.5z"/>
				</g>
				<g>
					<path class="st1" d="M175.27,197.88c1.45-1.84,2.95-3.64,4.5-5.41c1.55-1.75,3.15-3.47,4.8-5.15
						c3.28-3.36,6.76-6.52,10.37-9.54c3.63-2.98,7.39-5.81,11.3-8.41c1.95-1.29,3.94-2.55,5.96-3.74c2.03-1.18,4.09-2.32,6.17-3.4
						c-2.03,1.17-4.04,2.39-6,3.66c-1.98,1.25-3.93,2.54-5.85,3.88c-3.84,2.68-7.58,5.49-11.17,8.49c-3.62,2.96-7.08,6.12-10.43,9.4
						c-1.68,1.64-3.31,3.31-4.91,5.02C178.37,194.38,176.79,196.11,175.27,197.88z"/>
				</g>
				<g>
					<path class="st1" d="M183.29,204.27c2.7-3.46,5.62-6.75,8.7-9.89c3.08-3.14,6.34-6.1,9.72-8.91c3.41-2.78,6.94-5.42,10.6-7.84
						c3.67-2.42,7.47-4.66,11.38-6.64c-3.79,2.21-7.51,4.54-11.12,7.04c-3.6,2.49-7.11,5.12-10.48,7.92
						c-3.4,2.77-6.64,5.71-9.78,8.77C189.19,197.77,186.19,200.97,183.29,204.27z"/>
				</g>
				<g>
					<path class="st1" d="M191.31,210.65c2.52-3.23,5.24-6.29,8.11-9.22c2.87-2.93,5.92-5.67,9.08-8.29
						c3.19-2.58,6.48-5.03,9.92-7.27c3.43-2.24,6.98-4.3,10.65-6.12c-3.54,2.06-7.01,4.21-10.38,6.53s-6.64,4.75-9.78,7.36
						c-3.17,2.57-6.2,5.31-9.14,8.15C196.83,204.61,194.03,207.59,191.31,210.65z"/>
				</g>
				<g>
					<path class="st1" d="M199.34,217.04c2.33-3,4.86-5.84,7.53-8.54c2.67-2.71,5.5-5.24,8.43-7.67c2.96-2.38,6.02-4.64,9.22-6.7
						c3.2-2.06,6.49-3.96,9.9-5.62c-3.29,1.9-6.51,3.88-9.63,6.02c-3.12,2.14-6.17,4.38-9.09,6.79c-2.94,2.37-5.76,4.9-8.49,7.53
						C204.47,211.46,201.86,214.21,199.34,217.04z"/>
				</g>
				<g>
					<path class="st1" d="M207.36,223.41c2.15-2.76,4.48-5.38,6.94-7.87c2.47-2.49,5.08-4.82,7.79-7.04
						c2.73-2.18,5.57-4.25,8.52-6.13c2.95-1.88,6.01-3.61,9.16-5.12c-3.03,1.74-6.01,3.57-8.89,5.52c-2.89,1.95-5.7,4.01-8.4,6.22
						c-2.73,2.16-5.33,4.49-7.85,6.9C212.11,218.3,209.7,220.82,207.36,223.41z"/>
				</g>
				<g>
					<path class="st1" d="M215.38,229.8c1.96-2.53,4.09-4.92,6.36-7.19c2.26-2.27,4.66-4.4,7.15-6.42c2.52-1.98,5.11-3.87,7.83-5.57
						c2.71-1.7,5.52-3.26,8.41-4.61c-2.78,1.59-5.5,3.24-8.15,5.02c-2.65,1.77-5.23,3.65-7.7,5.65c-2.51,1.96-4.89,4.09-7.21,6.27
						C219.76,225.14,217.54,227.44,215.38,229.8z"/>
				</g>
				<g>
					<path class="st1" d="M223.4,236.18c1.78-2.29,3.72-4.45,5.77-6.51s4.25-3.97,6.51-5.79c2.3-1.78,4.66-3.47,7.13-5
						c2.47-1.52,5.03-2.91,7.67-4.1c-2.53,1.43-5,2.91-7.41,4.51s-4.76,3.28-7.01,5.08c-2.27,1.77-4.45,3.67-6.56,5.65
						C227.4,231.99,225.38,234.06,223.4,236.18z"/>
				</g>
				<g>
					<path class="st1" d="M231.43,242.56c1.59-2.06,3.34-3.99,5.18-5.83s3.83-3.54,5.87-5.16c2.07-1.59,4.21-3.09,6.43-4.43
						c2.23-1.34,4.54-2.57,6.92-3.61c-2.27,1.28-4.5,2.59-6.66,4.01c-2.16,1.43-4.29,2.9-6.31,4.52c-2.06,1.57-4.02,3.26-5.92,5.02
						C235.04,238.83,233.21,240.68,231.43,242.56z"/>
				</g>
			</g>
			<ellipse class="st1" cx="289.9" cy="292.42" rx="47.09" ry="47.09"/>
			<ellipse class="st0" cx="289.9" cy="292.43" rx="23.8" ry="23.8"/>
		</g>
		<circle class="st2" cx="308.96" cy="306.42" r="217.8"/>
	</g>
	<circle class="st1" cx="290.03" cy="292.17" r="5.45"/>
</g>
</svg>
