<?xml version="1.0" encoding="utf-8"?>
<!-- Generator: Adobe Illustrator 24.1.0, SVG Export Plug-In . SVG Version: 6.00 Build 0)  -->
<svg version="1.1" id="Layer_1" xmlns="http://www.w3.org/2000/svg" xmlns:xlink="http://www.w3.org/1999/xlink" x="0px" y="0px"
	 viewBox="0 0 200 200" style="enable-background:new 0 0 200 200;" xml:space="preserve">
<style type="text/css">
	.st0{fill:#201526;}
	.st1{fill:#FFFFFF;}
	.st2{opacity:0.08;fill:#2D3235;enable-background:new    ;}
</style>
<g>
	<path class="st0" d="M90.19,176.11h0.47c0.52,0,0.82,0.06,0.82,0.54c0,0.37-0.32,1.8-1.32,7.03c-0.12,0.6-0.36,0.96-0.84,0.96h-1.5
		c-0.48,0-0.72-0.36-0.83-0.96c-0.91-5.23-1.25-6.66-1.25-7.03c0-0.5,0.3-0.55,0.88-0.55h0.52c0.64,0,0.77,0.2,0.97,2.11
		c0.35,3.15,0.37,4.33,0.58,4.33c0.14,0,0.22-1.18,0.4-2.51C89.53,176.38,89.42,176.11,90.19,176.11z"/>
	<path class="st0" d="M94.76,183.68c0,0.48,0,0.96-0.72,0.96h-0.6c-0.72,0-0.72-0.48-0.72-0.96v-6.6c0-0.48,0-0.96,0.72-0.96h0.6
		c0.72,0,0.72,0.48,0.72,0.96V183.68z"/>
	<path class="st0" d="M99.81,179.96c0.04,0,0.06-0.04,0.06-0.12v-2.76c0-0.48,0-0.96,0.72-0.96h0.6c0.72,0,0.72,0.48,0.72,0.96v6.6
		c0,0.48,0,0.96-0.72,0.96c-1.08,0-1.16-0.19-1.33-0.55l-1.6-3.47c-0.04-0.07-0.07-0.12-0.1-0.12c-0.04,0-0.05,0.05-0.05,0.12
		l0.01,3.06c0,0.48,0,0.96-0.72,0.96h-0.6c-0.72,0-0.72-0.48-0.72-0.96v-6.6c0-0.48,0-0.96,0.72-0.96h0.64
		c0.4,0,0.53,0.05,0.71,0.42l1.55,3.3C99.73,179.92,99.77,179.96,99.81,179.96z"/>
	<path class="st0" d="M105.66,184.63c-0.72,0-0.72-0.48-0.72-0.96v-1.81c0-0.65-0.62-2.15-0.84-2.65l-0.04-0.08
		c-0.24-0.54-0.95-2.36-0.95-2.7c0-0.31,0.26-0.31,0.35-0.31h1.37c0.38,0,0.5,0.52,0.6,0.96c0.08,0.38,0.48,1.73,0.5,1.83
		c0.01,0.08,0.07,0.13,0.12,0.13c0.06,0,0.11-0.04,0.12-0.12c0.01-0.11,0.37-1.46,0.47-1.85c0.11-0.44,0.25-0.96,0.68-0.96h1.07
		c0.36,0,0.49,0,0.49,0.31c0,0.34-0.7,2.17-0.94,2.7c-0.11,0.24-0.31,0.79-0.56,1.42c-0.37,0.94-0.41,1.06-0.41,2.11v1.07
		c0,0.47,0,0.91-0.72,0.91H105.66z"/>
	<path class="st0" d="M113.69,182.9c0.5,0,0.56,0.26,0.56,0.62v0.16c0,0.48,0,0.96-0.72,0.96h-2.71c-0.72,0-0.72-0.48-0.72-0.96
		v-6.6c0-0.48,0-0.96,0.72-0.96h0.6c0.72,0,0.72,0.48,0.72,0.96v5.17c0,0.29,0,0.66,0.37,0.67
		C113.15,182.92,113.44,182.9,113.69,182.9z"/>
</g>
<g>
	<g>
		<g>
			<ellipse class="st0" cx="97.09" cy="94.49" rx="62.41" ry="62.41"/>
			<g>
				<g>
					<path class="st1" d="M112.13,41.98c2.6,0.73,5.15,1.65,7.61,2.75c2.47,1.11,4.84,2.41,7.11,3.88
						c4.54,2.93,8.64,6.55,12.13,10.69c3.47,4.15,6.33,8.81,8.44,13.79c1.05,2.49,1.92,5.05,2.6,7.67c0.66,2.62,1.13,5.29,1.4,7.98
						c-0.3-2.68-0.8-5.35-1.48-7.95c-0.69-2.61-1.55-5.17-2.61-7.65c-2.12-4.97-4.99-9.59-8.46-13.72
						c-3.46-4.13-7.53-7.76-12.05-10.7c-2.26-1.48-4.63-2.78-7.08-3.9C117.25,43.69,114.72,42.74,112.13,41.98z"/>
				</g>
				<g>
					<path class="st1" d="M111.68,44.96c2.44,0.69,4.83,1.57,7.15,2.62c2.31,1.06,4.54,2.28,6.67,3.67
						c4.25,2.78,8.09,6.19,11.36,10.09c3.26,3.91,5.92,8.29,7.89,12.97c0.99,2.34,1.8,4.76,2.43,7.21c0.63,2.47,1.06,4.97,1.31,7.49
						c-0.28-2.52-0.75-5.02-1.4-7.47c-0.64-2.46-1.46-4.86-2.46-7.19c-1.99-4.66-4.66-9.03-7.93-12.9
						c-3.24-3.9-7.04-7.32-11.28-10.11c-2.12-1.4-4.33-2.63-6.63-3.7C116.49,46.59,114.11,45.68,111.68,44.96z"/>
				</g>
				<g>
					<path class="st1" d="M111.23,47.94c2.28,0.67,4.51,1.49,6.67,2.49c2.15,1,4.24,2.16,6.22,3.47c3.97,2.61,7.54,5.83,10.57,9.49
						c3.03,3.66,5.52,7.77,7.35,12.16c0.92,2.19,1.68,4.45,2.27,6.75c0.58,2.3,0.99,4.65,1.22,7.01c-0.27-2.36-0.7-4.7-1.31-6.99
						c-0.6-2.29-1.36-4.55-2.28-6.73c-1.85-4.37-4.35-8.45-7.38-12.08c-3.01-3.66-6.56-6.88-10.5-9.5
						c-1.97-1.31-4.05-2.48-6.19-3.49C115.71,49.49,113.49,48.63,111.23,47.94z"/>
				</g>
				<g>
					<path class="st1" d="M110.77,50.93c2.12,0.63,4.18,1.42,6.19,2.35c2.01,0.95,3.93,2.04,5.77,3.26c3.68,2.46,6.99,5.46,9.8,8.88
						c2.8,3.43,5.11,7.26,6.82,11.35c0.85,2.04,1.55,4.15,2.1,6.29c0.54,2.14,0.92,4.33,1.14,6.53c-0.25-2.2-0.66-4.38-1.22-6.5
						c-0.56-2.14-1.27-4.24-2.12-6.27c-1.72-4.07-4.04-7.87-6.84-11.28c-2.79-3.42-6.08-6.43-9.73-8.9
						c-1.83-1.23-3.75-2.34-5.74-3.29C114.94,52.39,112.88,51.59,110.77,50.93z"/>
				</g>
				<g>
					<path class="st1" d="M110.32,53.9c1.95,0.6,3.87,1.35,5.72,2.22c1.85,0.89,3.63,1.91,5.32,3.06c3.39,2.3,6.44,5.1,9.04,8.28
						c2.58,3.19,4.7,6.75,6.27,10.53c0.78,1.89,1.43,3.85,1.94,5.83c0.49,1.99,0.84,4.01,1.05,6.05c-0.23-2.03-0.61-4.05-1.14-6.03
						c-0.51-1.98-1.16-3.92-1.96-5.81c-1.58-3.77-3.72-7.3-6.29-10.46c-2.56-3.18-5.59-5.99-8.96-8.3c-1.68-1.15-3.46-2.19-5.3-3.08
						C114.17,55.3,112.27,54.54,110.32,53.9z"/>
				</g>
				<g>
					<path class="st1" d="M109.87,56.88c1.8,0.57,3.55,1.27,5.24,2.09c1.69,0.83,3.32,1.79,4.88,2.86c3.11,2.14,5.89,4.74,8.27,7.67
						c2.35,2.95,4.29,6.22,5.72,9.71c0.72,1.75,1.31,3.54,1.77,5.37c0.45,1.83,0.77,3.69,0.96,5.56c-0.22-1.87-0.56-3.72-1.05-5.54
						c-0.47-1.82-1.07-3.61-1.8-5.35c-1.45-3.47-3.39-6.73-5.76-9.65c-2.34-2.94-5.1-5.54-8.19-7.69c-1.55-1.08-3.16-2.04-4.84-2.88
						C113.4,58.21,111.66,57.48,109.87,56.88z"/>
				</g>
				<g>
					<path class="st1" d="M109.42,59.87c1.63,0.54,3.23,1.2,4.77,1.96c1.54,0.77,3.01,1.67,4.43,2.66c2.82,1.98,5.35,4.38,7.49,7.08
						c2.13,2.71,3.88,5.71,5.18,8.91c0.65,1.6,1.19,3.24,1.61,4.91c0.41,1.68,0.7,3.37,0.88,5.08c-0.2-1.71-0.52-3.4-0.96-5.06
						c-0.43-1.67-0.97-3.29-1.63-4.88c-1.31-3.18-3.08-6.16-5.21-8.84c-2.12-2.7-4.62-5.1-7.41-7.08c-1.4-1-2.86-1.88-4.39-2.67
						C112.62,61.12,111.04,60.43,109.42,59.87z"/>
				</g>
				<g>
					<path class="st1" d="M108.97,62.85c1.48,0.5,2.91,1.12,4.29,1.83c1.38,0.72,2.71,1.54,3.98,2.45c2.54,1.81,4.8,4.01,6.72,6.47
						c1.9,2.47,3.47,5.2,4.64,8.09c0.58,1.44,1.07,2.93,1.44,4.45c0.36,1.51,0.63,3.06,0.79,4.6c-0.18-1.55-0.48-3.07-0.88-4.58
						c-0.39-1.5-0.88-2.99-1.47-4.42c-1.18-2.87-2.76-5.58-4.67-8.03c-1.9-2.46-4.14-4.65-6.65-6.48c-1.25-0.92-2.58-1.74-3.95-2.47
						C111.85,64.02,110.44,63.38,108.97,62.85z"/>
				</g>
				<g>
					<path class="st1" d="M108.52,65.82c1.31,0.48,2.59,1.05,3.81,1.71c1.22,0.66,2.41,1.42,3.53,2.24
						c2.25,1.66,4.25,3.65,5.94,5.87c1.69,2.22,3.08,4.67,4.12,7.27c0.51,1.29,0.94,2.63,1.27,3.98s0.56,2.73,0.7,4.12
						c-0.17-1.38-0.43-2.75-0.79-4.1c-0.35-1.35-0.79-2.67-1.31-3.95c-1.05-2.57-2.43-5.01-4.12-7.21
						c-1.68-2.21-3.66-4.19-5.88-5.87c-1.11-0.84-2.27-1.6-3.49-2.27C111.08,66.93,109.82,66.34,108.52,65.82z"/>
				</g>
				<g>
					<path class="st1" d="M108.07,68.81c1.15,0.45,2.26,0.98,3.33,1.58c1.07,0.61,2.1,1.28,3.08,2.04c1.95,1.5,3.7,3.28,5.17,5.26
						c1.47,1.98,2.69,4.15,3.58,6.45c0.44,1.15,0.82,2.33,1.1,3.52c0.29,1.2,0.49,2.41,0.62,3.64c-0.16-1.22-0.39-2.43-0.7-3.61
						c-0.3-1.19-0.69-2.35-1.15-3.5c-0.91-2.27-2.12-4.44-3.59-6.39c-1.46-1.97-3.19-3.74-5.11-5.26c-0.96-0.76-1.98-1.45-3.04-2.07
						C110.3,69.84,109.2,69.29,108.07,68.81z"/>
				</g>
				<g>
					<path class="st1" d="M107.61,71.79c0.98,0.43,1.93,0.91,2.85,1.46c0.92,0.55,1.79,1.17,2.62,1.84c1.67,1.34,3.14,2.92,4.4,4.64
						c1.24,1.74,2.29,3.63,3.05,5.63c0.37,1,0.69,2.02,0.95,3.06c0.24,1.04,0.42,2.09,0.53,3.16c-0.14-1.06-0.35-2.1-0.62-3.13
						c-0.27-1.03-0.59-2.05-0.99-3.03c-0.78-1.98-1.81-3.85-3.06-5.57c-0.63-0.86-1.29-1.68-2.02-2.47c-0.73-0.78-1.5-1.5-2.33-2.18
						c-0.82-0.68-1.68-1.31-2.59-1.87C109.52,72.75,108.59,72.24,107.61,71.79z"/>
				</g>
				<g>
					<path class="st1" d="M107.16,74.77c0.81,0.4,1.6,0.85,2.36,1.35c0.76,0.5,1.48,1.05,2.16,1.64c1.37,1.18,2.6,2.54,3.64,4.03
						s1.88,3.11,2.53,4.81c0.31,0.85,0.57,1.72,0.78,2.6c0.2,0.89,0.35,1.78,0.44,2.67c-0.12-0.89-0.3-1.78-0.53-2.66
						c-0.23-0.87-0.49-1.74-0.82-2.57c-0.66-1.68-1.5-3.28-2.54-4.75c-1.02-1.48-2.23-2.83-3.58-4.03
						C110.25,76.66,108.76,75.63,107.16,74.77z"/>
				</g>
			</g>
			<g>
				<g>
					<path class="st1" d="M82.05,147c-2.6-0.73-5.15-1.65-7.61-2.75c-2.47-1.11-4.84-2.41-7.11-3.88
						c-4.54-2.93-8.64-6.55-12.13-10.69c-3.47-4.15-6.33-8.81-8.44-13.79c-1.05-2.49-1.92-5.05-2.6-7.67
						c-0.66-2.62-1.13-5.29-1.4-7.98c0.3,2.68,0.8,5.35,1.48,7.95c0.69,2.61,1.55,5.17,2.61,7.65c2.12,4.97,4.99,9.59,8.46,13.72
						c3.46,4.13,7.53,7.76,12.05,10.7c2.26,1.48,4.63,2.78,7.08,3.9C76.93,145.3,79.47,146.24,82.05,147z"/>
				</g>
				<g>
					<path class="st1" d="M82.51,144.02c-2.44-0.69-4.83-1.57-7.15-2.62c-2.31-1.06-4.54-2.28-6.67-3.67
						c-4.25-2.78-8.09-6.19-11.36-10.09c-3.26-3.91-5.92-8.29-7.89-12.97c-0.99-2.34-1.8-4.76-2.43-7.21
						c-0.63-2.47-1.06-4.97-1.31-7.49c0.28,2.52,0.75,5.02,1.4,7.47c0.64,2.46,1.46,4.86,2.46,7.19c1.99,4.66,4.66,9.03,7.93,12.9
						c3.24,3.9,7.04,7.32,11.28,10.11c2.12,1.4,4.33,2.63,6.63,3.7C77.7,142.39,80.08,143.29,82.51,144.02z"/>
				</g>
				<g>
					<path class="st1" d="M82.96,141.03c-2.28-0.67-4.51-1.49-6.67-2.49c-2.15-1-4.24-2.16-6.22-3.47
						c-3.97-2.61-7.54-5.83-10.57-9.49c-3.03-3.66-5.52-7.77-7.35-12.16c-0.92-2.19-1.68-4.45-2.27-6.75
						c-0.58-2.3-0.99-4.65-1.22-7.01c0.27,2.36,0.7,4.7,1.31,6.99c0.6,2.29,1.36,4.55,2.28,6.73c1.85,4.37,4.35,8.45,7.38,12.08
						c3.01,3.66,6.56,6.88,10.5,9.5c1.97,1.31,4.05,2.48,6.19,3.49C78.47,139.48,80.68,140.35,82.96,141.03z"/>
				</g>
				<g>
					<path class="st1" d="M83.41,138.06c-2.12-0.63-4.18-1.42-6.19-2.35c-2.01-0.95-3.93-2.04-5.77-3.26
						c-3.68-2.46-6.99-5.46-9.8-8.88c-2.8-3.43-5.11-7.26-6.82-11.35c-0.85-2.04-1.55-4.15-2.1-6.29c-0.54-2.14-0.92-4.33-1.14-6.53
						c0.25,2.2,0.66,4.38,1.22,6.5c0.56,2.14,1.27,4.24,2.12,6.27c1.72,4.07,4.04,7.87,6.84,11.28c2.79,3.42,6.08,6.43,9.73,8.9
						c1.83,1.23,3.75,2.34,5.74,3.29C79.24,136.58,81.3,137.4,83.41,138.06z"/>
				</g>
				<g>
					<path class="st1" d="M83.86,135.07c-1.95-0.6-3.87-1.35-5.72-2.22c-1.85-0.89-3.63-1.91-5.32-3.06
						c-3.39-2.3-6.44-5.1-9.04-8.28c-2.58-3.19-4.7-6.75-6.27-10.53c-0.78-1.89-1.43-3.85-1.94-5.83c-0.49-1.99-0.84-4.01-1.05-6.05
						c0.23,2.03,0.61,4.05,1.14,6.03c0.51,1.98,1.16,3.92,1.96,5.81c1.58,3.77,3.72,7.3,6.29,10.46c2.56,3.18,5.59,5.99,8.96,8.3
						c1.68,1.15,3.46,2.19,5.3,3.08C80.01,133.67,81.92,134.44,83.86,135.07z"/>
				</g>
				<g>
					<path class="st1" d="M84.31,132.09c-1.8-0.57-3.55-1.27-5.24-2.09c-1.69-0.83-3.32-1.79-4.87-2.86
						c-3.11-2.14-5.89-4.74-8.26-7.67c-2.35-2.95-4.29-6.22-5.72-9.71c-0.72-1.75-1.31-3.54-1.77-5.37
						c-0.45-1.83-0.77-3.69-0.96-5.56c0.22,1.87,0.56,3.72,1.05,5.54c0.47,1.82,1.07,3.61,1.8,5.35c1.45,3.47,3.39,6.73,5.76,9.65
						c2.34,2.94,5.1,5.54,8.19,7.69c1.55,1.08,3.16,2.04,4.84,2.88C80.79,130.77,82.52,131.49,84.31,132.09z"/>
				</g>
				<g>
					<path class="st1" d="M84.76,129.11c-1.63-0.54-3.23-1.2-4.77-1.96c-1.54-0.77-3.01-1.67-4.43-2.66
						c-2.82-1.98-5.35-4.38-7.49-7.08c-2.13-2.71-3.88-5.71-5.18-8.91c-0.65-1.6-1.19-3.24-1.61-4.91c-0.41-1.68-0.7-3.37-0.88-5.08
						c0.2,1.71,0.52,3.4,0.96,5.06c0.43,1.67,0.97,3.29,1.63,4.88c1.31,3.18,3.08,6.16,5.21,8.84c2.12,2.7,4.62,5.1,7.41,7.08
						c1.4,1,2.86,1.88,4.39,2.67C81.55,127.86,83.14,128.54,84.76,129.11z"/>
				</g>
				<g>
					<path class="st1" d="M85.22,126.13c-1.48-0.5-2.91-1.12-4.29-1.83c-1.38-0.72-2.71-1.54-3.98-2.45
						c-2.54-1.81-4.8-4.01-6.72-6.47c-1.9-2.47-3.47-5.2-4.64-8.09c-0.58-1.44-1.07-2.93-1.44-4.45c-0.36-1.51-0.63-3.06-0.79-4.6
						c0.18,1.55,0.48,3.07,0.88,4.58c0.39,1.5,0.88,2.99,1.47,4.42c1.18,2.87,2.76,5.58,4.67,8.03c1.9,2.46,4.14,4.65,6.65,6.48
						c1.25,0.92,2.58,1.74,3.95,2.47C82.32,124.96,83.75,125.6,85.22,126.13z"/>
				</g>
				<g>
					<path class="st1" d="M85.67,123.15c-1.31-0.48-2.59-1.05-3.81-1.71s-2.41-1.42-3.53-2.24c-2.25-1.66-4.25-3.66-5.94-5.87
						c-1.69-2.22-3.08-4.67-4.12-7.27c-0.51-1.29-0.94-2.63-1.27-3.98c-0.33-1.35-0.56-2.73-0.7-4.12c0.17,1.38,0.43,2.75,0.79,4.1
						c0.35,1.35,0.79,2.67,1.31,3.95c1.05,2.57,2.43,5.01,4.12,7.21c1.68,2.21,3.66,4.19,5.88,5.87c1.11,0.84,2.27,1.6,3.49,2.27
						C83.11,122.05,84.36,122.65,85.67,123.15z"/>
				</g>
				<g>
					<path class="st1" d="M86.11,120.17c-1.15-0.45-2.26-0.98-3.33-1.58c-1.07-0.61-2.1-1.28-3.08-2.04
						c-1.95-1.5-3.7-3.28-5.17-5.26s-2.69-4.15-3.58-6.45c-0.44-1.15-0.82-2.33-1.1-3.52c-0.29-1.2-0.49-2.41-0.62-3.64
						c0.16,1.22,0.39,2.43,0.7,3.61c0.3,1.19,0.69,2.35,1.15,3.5c0.91,2.27,2.12,4.44,3.59,6.39c1.46,1.97,3.19,3.74,5.11,5.26
						c0.96,0.76,1.98,1.45,3.04,2.07C83.88,119.14,84.98,119.69,86.11,120.17z"/>
				</g>
				<g>
					<path class="st1" d="M86.56,117.19c-0.98-0.43-1.93-0.91-2.85-1.46c-0.92-0.55-1.79-1.17-2.62-1.84
						c-1.67-1.34-3.14-2.92-4.4-4.64c-1.24-1.74-2.29-3.63-3.05-5.63c-0.37-1-0.69-2.02-0.95-3.06c-0.24-1.04-0.42-2.09-0.53-3.16
						c0.14,1.06,0.35,2.1,0.62,3.13s0.59,2.05,0.99,3.03c0.78,1.98,1.81,3.85,3.06,5.57c0.63,0.86,1.29,1.68,2.02,2.47
						c0.73,0.78,1.5,1.5,2.33,2.18c0.82,0.68,1.68,1.31,2.59,1.87C84.66,116.22,85.6,116.73,86.56,117.19z"/>
				</g>
				<g>
					<path class="st1" d="M87.01,114.21c-0.81-0.4-1.6-0.85-2.36-1.35c-0.76-0.5-1.48-1.05-2.16-1.64c-1.37-1.18-2.6-2.54-3.64-4.03
						c-1.04-1.48-1.88-3.11-2.53-4.81c-0.31-0.85-0.57-1.72-0.78-2.6c-0.2-0.89-0.35-1.78-0.44-2.67c0.12,0.89,0.3,1.78,0.53,2.66
						c0.23,0.87,0.49,1.74,0.82,2.57c0.66,1.68,1.5,3.28,2.54,4.75c1.02,1.48,2.23,2.83,3.58,4.03
						C83.93,112.31,85.42,113.36,87.01,114.21z"/>
				</g>
			</g>
			<g>
				<g>
					<path class="st1" d="M54.82,59.89c0.53-0.67,1.07-1.32,1.62-1.95c0.56-0.63,1.14-1.26,1.73-1.87c1.18-1.22,2.43-2.37,3.73-3.46
						c1.3-1.09,2.66-2.12,4.05-3.07c0.7-0.48,1.42-0.94,2.14-1.38c0.73-0.43,1.46-0.86,2.21-1.27c-0.73,0.43-1.45,0.88-2.16,1.34
						c-0.71,0.46-1.42,0.93-2.1,1.42c-1.38,0.97-2.73,2.01-4.02,3.1c-1.3,1.09-2.54,2.23-3.74,3.42c-0.6,0.59-1.19,1.21-1.76,1.83
						C55.93,58.62,55.37,59.25,54.82,59.89z"/>
				</g>
				<g>
					<path class="st1" d="M57.13,61.74c0.5-0.63,1.02-1.25,1.55-1.86c0.53-0.61,1.08-1.2,1.64-1.77c1.12-1.15,2.31-2.25,3.54-3.28
						c1.24-1.03,2.52-2.01,3.85-2.91c0.67-0.45,1.35-0.89,2.03-1.3c0.69-0.42,1.39-0.82,2.1-1.19c-0.69,0.41-1.38,0.82-2.05,1.27
						c-0.68,0.43-1.35,0.89-2.01,1.35c-1.31,0.93-2.59,1.9-3.82,2.93c-1.23,1.02-2.42,2.12-3.56,3.25
						c-0.57,0.56-1.13,1.15-1.68,1.74C58.19,60.52,57.65,61.12,57.13,61.74z"/>
				</g>
				<g>
					<path class="st1" d="M59.44,63.58c0.48-0.6,0.96-1.18,1.46-1.75c0.5-0.57,1.02-1.13,1.55-1.68c1.06-1.09,2.19-2.12,3.36-3.11
						c1.17-0.97,2.39-1.9,3.66-2.75c0.63-0.43,1.28-0.83,1.93-1.23c0.65-0.39,1.32-0.76,1.99-1.12c-0.66,0.38-1.31,0.78-1.94,1.2
						c-0.64,0.41-1.28,0.83-1.89,1.27c-1.24,0.87-2.46,1.8-3.62,2.77c-1.17,0.97-2.29,2-3.38,3.06c-0.54,0.54-1.07,1.08-1.59,1.64
						C60.45,62.43,59.94,62.99,59.44,63.58z"/>
				</g>
				<g>
					<path class="st1" d="M61.76,65.41c0.44-0.56,0.9-1.12,1.38-1.66c0.48-0.54,0.96-1.07,1.47-1.58c1.01-1.03,2.07-2.01,3.17-2.93
						c1.11-0.92,2.26-1.79,3.46-2.59c0.6-0.4,1.21-0.78,1.82-1.15c0.62-0.36,1.25-0.71,1.88-1.05c-0.63,0.36-1.23,0.74-1.84,1.12
						c-0.61,0.38-1.21,0.78-1.79,1.2c-1.17,0.82-2.32,1.68-3.42,2.61c-1.1,0.91-2.16,1.88-3.19,2.88c-0.51,0.5-1.02,1.02-1.5,1.55
						C62.7,64.33,62.23,64.87,61.76,65.41z"/>
				</g>
				<g>
					<path class="st1" d="M64.07,67.25c0.42-0.53,0.85-1.05,1.29-1.56c0.45-0.5,0.91-1,1.38-1.48c0.95-0.96,1.94-1.88,2.99-2.75
						c1.05-0.86,2.13-1.68,3.26-2.42c0.56-0.37,1.14-0.74,1.72-1.08c0.58-0.34,1.18-0.67,1.78-0.98c-0.58,0.34-1.16,0.69-1.73,1.05
						c-0.57,0.36-1.14,0.73-1.68,1.12c-1.11,0.77-2.19,1.58-3.22,2.45c-1.04,0.85-2.04,1.76-3,2.71c-0.49,0.47-0.95,0.95-1.42,1.44
						C64.96,66.24,64.51,66.74,64.07,67.25z"/>
				</g>
				<g>
					<path class="st1" d="M66.38,69.09c0.78-1,1.62-1.94,2.51-2.85c0.89-0.9,1.82-1.75,2.8-2.57c0.98-0.8,2-1.56,3.06-2.26
						s2.15-1.35,3.28-1.91c-1.09,0.63-2.16,1.31-3.2,2.03c-1.03,0.72-2.05,1.48-3.02,2.28c-0.98,0.8-1.91,1.65-2.82,2.53
						C68.08,67.21,67.21,68.14,66.38,69.09z"/>
				</g>
				<g>
					<path class="st1" d="M68.69,70.93c0.73-0.93,1.51-1.81,2.34-2.66c0.82-0.84,1.71-1.63,2.61-2.39c0.92-0.74,1.87-1.45,2.86-2.09
						c0.99-0.64,2.01-1.24,3.06-1.76c-1.02,0.59-2.02,1.22-2.99,1.88c-0.96,0.67-1.91,1.37-2.82,2.12
						c-0.91,0.74-1.79,1.53-2.63,2.34C70.27,69.18,69.47,70.04,68.69,70.93z"/>
				</g>
				<g>
					<path class="st1" d="M71,72.77c0.67-0.86,1.4-1.68,2.17-2.46c0.77-0.78,1.59-1.51,2.43-2.21c0.85-0.69,1.74-1.34,2.66-1.93
						c0.92-0.59,1.87-1.14,2.85-1.62c-0.95,0.55-1.88,1.12-2.78,1.74c-0.9,0.62-1.78,1.26-2.62,1.95c-0.85,0.69-1.66,1.42-2.45,2.17
						C72.48,71.16,71.72,71.95,71,72.77z"/>
				</g>
				<g>
					<path class="st1" d="M73.31,74.6c0.62-0.8,1.29-1.55,2-2.27c0.71-0.72,1.47-1.39,2.25-2.03c0.79-0.63,1.61-1.22,2.46-1.76
						c0.85-0.54,1.73-1.04,2.64-1.48c-0.87,0.5-1.73,1.02-2.56,1.59c-0.83,0.56-1.64,1.15-2.42,1.79c-0.78,0.63-1.54,1.29-2.27,1.99
						C74.68,73.13,73.98,73.85,73.31,74.6z"/>
				</g>
				<g>
					<path class="st1" d="M75.62,76.44c0.56-0.73,1.18-1.42,1.83-2.07c0.65-0.65,1.35-1.27,2.06-1.85c0.73-0.57,1.48-1.11,2.26-1.61
						s1.59-0.94,2.42-1.33c-0.8,0.46-1.59,0.93-2.35,1.44c-0.76,0.51-1.5,1.05-2.22,1.63c-0.72,0.56-1.41,1.18-2.07,1.81
						C76.88,75.11,76.25,75.76,75.62,76.44z"/>
				</g>
				<g>
					<path class="st1" d="M77.93,78.28C78.44,77.62,79,77,79.6,76.41c0.59-0.59,1.22-1.15,1.88-1.67c0.66-0.51,1.35-1,2.06-1.44
						c0.71-0.43,1.45-0.84,2.21-1.18c-0.73,0.41-1.44,0.84-2.14,1.3c-0.69,0.46-1.37,0.95-2.01,1.47c-0.65,0.51-1.28,1.06-1.89,1.62
						C79.09,77.08,78.5,77.67,77.93,78.28z"/>
				</g>
				<g>
					<path class="st1" d="M80.24,80.12c0.46-0.59,0.96-1.15,1.49-1.68c0.53-0.53,1.1-1.02,1.69-1.48c0.6-0.46,1.22-0.89,1.86-1.28
						c0.64-0.39,1.31-0.74,2-1.04c-0.65,0.36-1.29,0.75-1.92,1.15s-1.23,0.83-1.81,1.3c-0.59,0.45-1.15,0.94-1.71,1.44
						C81.28,79.05,80.76,79.58,80.24,80.12z"/>
				</g>
			</g>
			<ellipse class="st1" cx="97.09" cy="94.48" rx="13.57" ry="13.57"/>
			<ellipse class="st0" cx="97.09" cy="94.48" rx="6.86" ry="6.86"/>
		</g>
		<circle class="st2" cx="102.58" cy="98.52" r="62.74"/>
	</g>
	<circle class="st1" cx="97.13" cy="94.41" r="1.57"/>
</g>
</svg>
